<svg width="95" height="32" viewBox="0 0 95 32" fill="none" xmlns="http://www.w3.org/2000/svg">
<g id="_Client logo" clip-path="url(#clip0_4107_12087)">
<path id="Vector" d="M40.427 16.4105C40.427 20.8522 36.9379 24.1252 32.6559 24.1252C28.3739 24.1252 24.8848 20.8522 24.8848 16.4105C24.8848 11.9374 28.3739 8.69568 32.6559 8.69568C36.9379 8.69568 40.427 11.9374 40.427 16.4105ZM37.0252 16.4105C37.0252 13.6348 35.003 11.7357 32.6559 11.7357C30.3088 11.7357 28.2866 13.6348 28.2866 16.4105C28.2866 19.1583 30.3088 21.0852 32.6559 21.0852C35.003 21.0852 37.0252 19.1548 37.0252 16.4105Z" fill="#EA4335"/>
<path id="Vector_2" d="M57.1917 16.4105C57.1917 20.8522 53.7025 24.1252 49.4206 24.1252C45.1386 24.1252 41.6494 20.8522 41.6494 16.4105C41.6494 11.9409 45.1386 8.69568 49.4206 8.69568C53.7025 8.69568 57.1917 11.9374 57.1917 16.4105ZM53.7898 16.4105C53.7898 13.6348 51.7676 11.7357 49.4206 11.7357C47.0735 11.7357 45.0513 13.6348 45.0513 16.4105C45.0513 19.1583 47.0735 21.0852 49.4206 21.0852C51.7676 21.0852 53.7898 19.1548 53.7898 16.4105Z" fill="#FBBC05"/>
<path id="Vector_3" d="M73.258 9.16177V23.0122C73.258 28.7096 69.8841 31.0365 65.8955 31.0365C62.1409 31.0365 59.8811 28.5357 59.0289 26.4905L61.9907 25.2626C62.5181 26.5183 63.8104 28 65.892 28C68.4451 28 70.0273 26.4313 70.0273 23.4783V22.3687H69.9085C69.1471 23.3044 67.6802 24.1218 65.8291 24.1218C61.9558 24.1218 58.4072 20.7618 58.4072 16.4383C58.4072 12.0835 61.9558 8.69568 65.8291 8.69568C67.6767 8.69568 69.1436 9.51307 69.9085 10.4209H70.0273V9.16524H73.258V9.16177ZM70.2683 16.4383C70.2683 13.7218 68.4486 11.7357 66.133 11.7357C63.7859 11.7357 61.8195 13.7218 61.8195 16.4383C61.8195 19.127 63.7859 21.0852 66.133 21.0852C68.4486 21.0852 70.2683 19.127 70.2683 16.4383Z" fill="#4285F4"/>
<path id="Vector_4" d="M78.5846 1.04346V23.6522H75.2666V1.04346H78.5846Z" fill="#34A853"/>
<path id="Vector_5" d="M91.514 18.9495L94.1544 20.7026C93.3022 21.9582 91.2485 24.1217 87.7 24.1217C83.2993 24.1217 80.0127 20.7339 80.0127 16.4069C80.0127 11.8191 83.3272 8.69214 87.3193 8.69214C91.3394 8.69214 93.3057 11.8782 93.9484 13.6L94.3011 14.4765L83.9454 18.7478C84.7383 20.2956 85.9712 21.0852 87.7 21.0852C89.4324 21.0852 90.6338 20.2365 91.514 18.9495ZM83.3866 16.1739L90.309 13.3113C89.9283 12.3478 88.7827 11.6765 87.4346 11.6765C85.7057 11.6765 83.2993 13.1965 83.3866 16.1739Z" fill="#EA4335"/>
<path id="Vector_6" d="M12.3258 14.4035V11.1304H23.401C23.5092 11.7008 23.5651 12.3756 23.5651 13.1061C23.5651 15.5617 22.8911 18.5982 20.7186 20.7617C18.6056 22.953 15.9058 24.1217 12.3293 24.1217C5.70024 24.1217 0.125977 18.7443 0.125977 12.1426C0.125977 5.54084 5.70024 0.163452 12.3293 0.163452C15.9966 0.163452 18.6091 1.5965 20.5719 3.46432L18.2528 5.77389C16.8453 4.45911 14.9383 3.4365 12.3258 3.4365C7.48498 3.4365 3.69895 7.32171 3.69895 12.1426C3.69895 16.9635 7.48498 20.8487 12.3258 20.8487C15.4657 20.8487 17.2539 19.593 18.3995 18.4521C19.3286 17.5269 19.9398 16.2052 20.1808 14.4L12.3258 14.4035Z" fill="#4285F4"/>
</g>
<defs>
<clipPath id="clip0_4107_12087">
<rect width="95" height="32" fill="white"/>
</clipPath>
</defs>
</svg>
