<svg width="473" height="483" viewBox="0 0 473 483" fill="none" xmlns="http://www.w3.org/2000/svg">
<g opacity="0.2">
<path opacity="0.09" d="M142.865 363.249L157.408 355.165C157.99 354.826 185.25 339.936 185.767 340.243L195.139 335.636C199.373 333.211 205.578 332.402 210.942 332.402C215.496 332.453 219.968 333.618 223.967 335.797L289.523 373.159L303.501 381.13L383.035 426.397C385.589 427.855 387.717 429.956 389.208 432.492C390.198 434.248 390.753 436.216 390.824 438.231C390.985 443.485 387.737 448.481 381.92 451.844L367.377 459.927C366.779 460.267 339.519 475.156 339.002 474.865L329.63 479.457C325.412 481.898 319.207 482.69 313.826 482.69C309.278 482.64 304.812 481.474 300.818 479.295L235.262 441.933L221.284 433.963L141.75 388.696C139.208 387.245 137.077 385.17 135.561 382.665C134.57 380.91 134.016 378.941 133.945 376.926C133.816 371.607 137.048 366.612 142.865 363.249Z" fill="black"/>
<path opacity="0.18" d="M144.319 364.413L158.458 356.588C159.638 355.909 185.169 342.474 186.187 343.072L195.284 339.306C199.082 337.123 205.691 336.978 210.522 336.978C214.923 337.178 219.22 338.389 223.078 340.518L286.695 376.813L300.269 384.541L377.476 428.579C379.919 430.001 382.004 431.964 383.568 434.319C384.58 435.976 385.189 437.848 385.346 439.783C385.653 444.827 382.583 449.693 376.862 452.991L362.723 460.816C361.544 461.495 336.012 474.93 334.994 474.332L325.897 478.099C322.1 480.297 315.491 480.427 310.659 480.427C306.26 480.224 301.966 479.019 298.104 476.902L234.486 440.575L220.912 432.847L143.721 388.841C141.277 387.416 139.188 385.453 137.613 383.102C136.608 381.441 136 379.571 135.836 377.637C135.545 372.577 138.583 367.711 144.319 364.413Z" fill="black"/>
<path opacity="0.27" d="M145.773 365.561L159.589 358.125C161.366 357.09 185.136 345.11 186.671 345.999L195.494 343.073C198.871 341.133 205.868 341.65 210.166 341.65C214.411 342.005 218.532 343.262 222.253 345.337L283.948 380.564L297.117 388.082L371.966 430.827C374.312 432.219 376.355 434.066 377.977 436.259C379.006 437.821 379.668 439.595 379.916 441.449C380.368 446.299 377.476 451.036 371.836 454.286L358.085 461.803C356.308 462.838 332.538 474.818 331.003 473.928L322.18 476.855C318.803 478.795 311.806 478.277 307.508 478.277C303.225 477.916 299.069 476.637 295.324 474.527L233.678 439.283L220.508 431.765L145.66 389.02C143.309 387.629 141.26 385.782 139.632 383.588C138.613 382.023 137.956 380.25 137.71 378.398C137.257 373.564 140.198 368.811 145.773 365.561Z" fill="black"/>
<path opacity="0.36" d="M147.227 366.725L160.575 359.482C162.95 358.108 184.991 347.583 187.043 348.764L195.575 346.678C198.532 344.981 205.933 346.177 209.682 346.177C212.913 346.177 218.957 348.634 221.3 349.992L281.088 384.169L293.837 391.461L366.423 432.913C368.679 434.276 370.684 436.014 372.354 438.054C373.389 439.501 374.1 441.156 374.438 442.904C375.052 447.528 372.305 452.167 366.795 455.352L353.432 462.579C351.072 463.953 329.032 474.494 326.979 473.298L318.447 475.383C315.49 477.081 308.09 475.884 304.325 475.884C301.093 475.884 295.065 473.427 292.722 472.069L232.934 437.892L220.201 430.617L147.664 389.149C145.405 387.791 143.398 386.051 141.733 384.008C140.699 382.561 139.993 380.906 139.665 379.158C138.97 374.534 141.701 369.894 147.227 366.725Z" fill="black"/>
<path opacity="0.45" d="M148.666 367.825L161.593 360.873C164.55 359.176 184.846 350.074 187.447 351.561L195.688 350.316C198.225 348.861 206.03 350.72 209.246 350.72C212.057 350.72 218.392 353.533 220.395 354.681L278.244 387.791L290.574 394.856L360.768 435.031C362.938 436.361 364.908 437.994 366.618 439.881C367.683 441.251 368.443 442.833 368.847 444.521C369.607 448.918 367.038 453.445 361.624 456.565L348.697 463.517C345.74 465.134 325.445 474.316 322.843 472.829L314.586 474.074C312.049 475.529 304.244 473.67 301.028 473.67C298.233 473.67 291.899 470.873 289.879 469.709L232.03 436.599L219.7 429.534L149.506 389.359C147.336 388.029 145.366 386.396 143.656 384.509C142.597 383.135 141.838 381.555 141.427 379.869C140.683 375.52 143.252 371.058 148.666 367.825Z" fill="black"/>
<path opacity="0.55" d="M150.12 369.02L162.692 362.376C166.247 360.323 184.797 352.676 187.883 354.454L195.85 354.05C197.967 352.837 206.159 355.375 208.777 355.375C211.12 355.375 217.777 358.512 219.458 359.482L275.384 391.525L287.309 398.363L355.177 437.245C357.265 438.535 359.196 440.065 360.929 441.804C362.006 443.081 362.819 444.559 363.321 446.153C364.242 450.356 361.818 454.754 356.518 457.825L343.947 464.47C340.392 466.523 321.825 474.17 318.755 472.392L310.788 472.796C308.672 474.008 300.479 471.486 297.861 471.486C295.518 471.486 288.861 468.334 287.18 467.38L231.254 435.321L219.377 428.499L151.51 389.601C149.419 388.307 147.483 386.777 145.741 385.042C144.665 383.766 143.858 382.287 143.366 380.693C142.396 376.489 144.82 372.092 150.12 369.02Z" fill="black"/>
<path opacity="0.64" d="M151.51 370.185L163.694 363.815C167.83 361.422 184.7 355.23 188.239 357.348L195.931 357.785C197.627 356.815 206.208 360.016 208.357 360.016C210.231 360.016 217.228 363.492 218.569 364.268L272.702 395.211L284.207 401.807L349.715 439.412C351.737 440.653 353.641 442.076 355.403 443.664C356.492 444.86 357.352 446.246 357.94 447.754C359.023 451.747 356.761 456.031 351.477 459.071L339.309 465.424C335.156 467.817 318.302 474.009 314.764 471.891L307.056 471.455C305.44 472.425 296.779 469.224 294.63 469.224C292.771 469.224 285.758 465.748 284.433 464.972L230.43 433.996L218.909 427.383L153.4 389.812C151.388 388.552 149.485 387.124 147.712 385.543C146.628 384.347 145.773 382.96 145.192 381.453C144.109 377.525 146.371 373.192 151.51 370.185Z" fill="black"/>
<path opacity="0.73" d="M153.029 371.333L164.809 365.27C169.543 362.522 184.62 357.785 188.724 360.145L196.141 361.422C197.401 360.695 206.386 364.559 208.001 364.559C209.617 364.559 216.743 368.374 217.697 368.956L269.761 398.881L280.862 405.348L344.044 441.659C346.035 442.796 347.913 444.122 349.651 445.62C350.876 446.623 351.804 447.942 352.333 449.435C353.577 453.202 351.477 457.373 346.354 460.315L334.574 466.394C329.84 469.126 314.764 473.879 310.659 471.503L303.242 470.226C301.982 470.953 292.998 467.089 291.382 467.089C289.766 467.089 282.64 463.274 281.686 462.692L229.622 432.767L218.521 426.381L155.34 390.086C153.351 388.938 151.474 387.606 149.732 386.109C148.506 385.11 147.583 383.789 147.066 382.294C145.822 378.446 147.923 374.291 153.029 371.333Z" fill="black"/>
<path opacity="0.82" d="M154.483 372.481L165.875 366.709C171.207 363.637 184.538 360.323 189.144 362.991L196.286 365.109C197.126 364.624 206.498 369.166 207.597 369.166C208.696 369.166 216.194 373.305 216.873 373.693L266.965 402.567L277.662 408.711L338.533 443.809C340.447 444.919 342.287 446.15 344.043 447.495C345.298 448.386 346.282 449.605 346.887 451.02C348.293 454.576 346.338 458.634 341.329 461.528L329.937 467.3C324.604 470.388 311.273 473.686 306.668 471.018L299.525 468.9C298.685 469.385 289.297 464.842 288.214 464.842C287.132 464.842 279.602 460.704 278.939 460.316L228.846 431.458L218.149 425.298L157.311 390.281C155.394 389.167 153.549 387.936 151.784 386.594C150.535 385.703 149.556 384.483 148.957 383.07C147.518 379.432 149.474 375.375 154.483 372.481Z" fill="black"/>
<path opacity="0.91" d="M155.921 373.644L166.941 368.147C172.856 364.736 184.442 362.877 189.564 365.835L196.431 368.794C196.852 368.551 206.628 373.757 207.161 373.757C207.694 373.757 215.628 378.252 215.968 378.446L264.186 406.237L274.463 412.17L332.975 445.894C333.217 446.04 338.291 449.127 338.404 449.289C339.68 450.069 340.715 451.189 341.393 452.523C343.009 455.869 341.167 459.798 336.255 462.643L325.251 468.124C319.336 471.535 307.75 473.394 302.628 470.436L295.777 467.477C295.357 467.719 285.58 462.514 285.047 462.514C284.514 462.514 276.564 458.035 276.24 457.841L228.006 430.034L217.761 424.117L159.217 390.458C158.959 390.312 153.901 387.305 153.772 387.079C152.508 386.289 151.48 385.171 150.799 383.845C149.231 380.402 151.025 376.473 155.921 373.644Z" fill="black"/>
<path d="M298.555 469.967L227.165 428.725L155.775 387.5C150.151 384.266 150.927 378.559 157.391 374.793L168.007 369.603C174.471 365.836 184.36 365.432 189.999 368.681L261.39 409.859L332.78 451.084C338.419 454.318 337.708 460.041 331.164 463.792L320.547 468.997C314.052 472.813 304.211 473.217 298.555 469.967Z" fill="black"/>
</g>
<path d="M303.29 460.25L187.592 388.227C174.552 380.143 169.817 358.948 177.137 340.971L305.924 22.6922C309.625 13.5579 301.4 11.3753 308.203 8.14195C308.461 8.02878 323.004 3.51822 323.279 3.45355C329.92 1.69135 336.561 0.996172 342.67 4.82774L458.4 76.8191C471.456 84.9026 476.175 106.097 468.871 124.075L340.084 442.418C336.222 451.957 329.759 458.698 322.584 461.689C322.164 461.867 304.534 467.558 304.098 467.655C298.281 468.997 308.994 463.807 303.29 460.25Z" fill="url(#paint0_linear_4107_12346)"/>
<path style="mix-blend-mode:color-dodge" d="M456.914 77.2231L341.248 5.19939C335.075 1.36782 448.107 79.244 448.107 79.244C461.147 87.3275 465.882 108.538 458.562 126.5C458.562 126.5 334.752 452.296 338.614 442.758L467.401 124.479C474.688 106.501 469.986 85.3389 456.914 77.2231Z" fill="url(#paint1_radial_4107_12346)"/>
<path style="mix-blend-mode:screen" opacity="0.6" d="M290.476 464.259L174.729 392.236C161.673 384.152 156.955 362.957 164.259 344.98L293.045 26.7013C300.317 8.72362 316.799 0.737148 329.839 8.91762L445.602 80.8928C458.642 88.9763 463.377 110.171 456.057 128.149L327.27 446.427C319.934 464.389 303.403 472.375 290.476 464.259Z" fill="url(#paint2_radial_4107_12346)"/>
<path d="M287.39 465.359L171.708 393.335C158.652 385.252 153.933 364.057 161.237 346.079L290.024 27.8009C297.295 9.82323 313.777 1.83676 326.818 10.0172L442.516 82.0248C455.556 90.1083 460.291 111.319 452.971 129.281L324.184 447.559C316.912 465.488 300.446 473.475 287.39 465.359Z" fill="url(#paint3_linear_4107_12346)"/>
<path d="M164.436 348.278L293.32 29.6111C299.703 13.8483 314.149 6.84804 325.638 13.9777L440.705 85.6134C452.146 92.7268 456.25 111.27 449.884 127.033L320.935 445.7C314.569 461.462 300.123 468.463 288.618 461.349L173.534 389.714C162.109 382.584 157.973 364.04 164.436 348.278Z" fill="url(#paint4_linear_4107_12346)"/>
<path d="M169.284 350.348L297.602 33.2815C302.934 20.0893 315.021 14.2369 324.604 20.2025L437.231 90.3023C446.797 96.2679 450.158 111.788 444.907 124.98L316.605 442.03C311.272 455.223 299.185 461.091 289.603 455.126L176.992 385.009C167.409 379.141 163.984 363.524 169.284 350.348Z" fill="url(#paint5_linear_4107_12346)"/>
<path d="M421.444 83.9001C418.762 90.5285 412.056 93.0829 406.465 89.5908L343.445 50.3698C337.854 46.8778 335.495 38.6811 338.177 32.0527L324.798 23.7267C315.781 18.1168 304.954 22.2393 300.559 32.9257L170.9 353.548C166.569 364.251 170.367 377.476 179.399 383.102L289.41 451.585C298.442 457.195 309.253 453.088 313.648 442.386L443.323 121.763C447.654 111.061 443.841 97.836 434.824 92.226L421.444 83.9001Z" fill="url(#paint6_linear_4107_12346)"/>
<path d="M427.035 202.921L435.729 181.435C437.263 178.279 439.877 175.778 443.097 174.386C446.054 173.255 447.541 174.564 446.426 177.313L437.733 198.798C436.204 201.955 433.587 204.452 430.364 205.831C427.407 207.011 425.92 205.718 427.035 202.921Z" fill="url(#paint7_linear_4107_12346)"/>
<path d="M428.732 205.475C427.455 205.475 427.536 204.117 428.005 202.985L436.698 181.5C438.083 178.674 440.417 176.425 443.291 175.146C443.746 174.952 444.234 174.848 444.729 174.839C446.006 174.839 445.925 176.197 445.456 177.345L436.763 198.831C435.377 201.652 433.043 203.896 430.17 205.168C429.715 205.362 429.226 205.466 428.732 205.475Z" fill="url(#paint8_linear_4107_12346)"/>
<path style="mix-blend-mode:color-dodge" d="M429.103 203.568L437.797 182.082C439.177 179.252 441.512 177.002 444.39 175.728C444.778 175.574 445.186 175.476 445.602 175.437C445.532 175.249 445.403 175.089 445.233 174.981C445.064 174.873 444.864 174.823 444.664 174.839C444.17 174.848 443.682 174.952 443.226 175.146C440.352 176.425 438.018 178.674 436.633 181.5L428.005 202.921C427.536 204.053 427.455 205.394 428.732 205.411H428.893C428.749 204.79 428.823 204.139 429.103 203.568Z" fill="url(#paint9_radial_4107_12346)"/>
<g style="mix-blend-mode:multiply">
<path d="M434.824 92.226L421.444 83.9001C418.762 90.5285 412.056 93.0829 406.465 89.5908L343.445 50.3698C337.854 46.8778 335.495 38.6811 338.177 32.0527L324.798 23.7267C315.781 18.1168 304.954 22.2393 300.559 32.9257L170.9 353.548C166.569 364.251 170.367 377.476 179.399 383.102L289.41 451.585C298.442 457.195 309.269 453.088 313.648 442.386L443.323 121.763C447.654 111.061 443.841 97.836 434.824 92.226ZM311.822 442.353C310.638 445.469 308.592 448.183 305.924 450.178C303.675 451.819 300.95 452.677 298.168 452.62C295.555 452.529 293.015 451.736 290.815 450.324L180.789 381.841C172.176 376.473 168.524 363.815 172.71 353.597L302.385 32.9742C305.003 26.5074 310.238 22.5788 316.039 22.692C318.657 22.7794 321.203 23.5725 323.408 24.9877L336.093 32.8772C333.701 39.8936 336.206 47.9771 342.039 51.6147L405.059 90.8518C406.815 91.9677 408.845 92.5775 410.925 92.614C413.152 92.6236 415.343 92.0514 417.281 90.9541C419.22 89.8568 420.839 88.2724 421.977 86.3574L433.418 93.4709C442.031 98.8383 445.683 111.513 441.497 121.731L311.822 442.353Z" fill="#BCBEC0"/>
</g>
<path d="M302.304 409.955L302.95 408.338L301.431 407.401L303.193 403.036C303.63 403.062 304.063 402.943 304.425 402.697C304.787 402.451 305.058 402.093 305.196 401.678C305.438 401.074 305.47 400.407 305.289 399.783C305.107 399.159 304.722 398.614 304.195 398.234C303.946 398.08 303.666 397.986 303.375 397.957C303.085 397.929 302.791 397.968 302.518 398.071C302.245 398.174 301.999 398.339 301.799 398.552C301.6 398.765 301.452 399.022 301.367 399.301C301.187 399.758 301.123 400.252 301.179 400.74C301.235 401.228 301.411 401.694 301.69 402.098L299.929 406.447L298.41 405.509L297.78 407.126C292.205 405.202 286.226 408.161 283.64 414.547C280.683 421.854 283.285 430.875 289.442 434.707C295.598 438.538 302.999 435.741 305.956 428.434C307.187 425.328 307.497 421.934 306.849 418.657C306.202 415.379 304.624 412.358 302.304 409.955ZM302.708 428.418C302.618 428.727 302.466 429.015 302.263 429.265C302.059 429.515 301.807 429.722 301.523 429.872C301.238 430.023 300.926 430.115 300.605 430.143C300.284 430.171 299.96 430.134 299.654 430.034C294.798 428.217 290.341 425.471 286.533 421.951C285.992 421.409 285.622 420.721 285.467 419.972C285.312 419.222 285.379 418.443 285.66 417.731L286.872 414.724C286.956 414.444 287.11 414.191 287.321 413.988C287.531 413.785 287.79 413.64 288.073 413.567C288.356 413.494 288.653 413.495 288.935 413.57C289.217 413.646 289.475 413.793 289.684 413.997C293.482 417.543 297.933 420.316 302.789 422.161C303.369 422.438 303.819 422.931 304.043 423.535C304.266 424.139 304.245 424.806 303.985 425.395L302.708 428.418ZM299.234 423.034C299.057 422.927 298.859 422.861 298.653 422.842C298.447 422.822 298.24 422.851 298.046 422.924C297.853 422.997 297.679 423.114 297.538 423.264C297.396 423.415 297.291 423.596 297.23 423.794C297.059 424.224 297.036 424.7 297.165 425.145C297.294 425.59 297.567 425.979 297.941 426.251C298.118 426.356 298.317 426.419 298.522 426.437C298.727 426.454 298.933 426.425 299.125 426.352C299.318 426.279 299.491 426.164 299.633 426.015C299.775 425.866 299.881 425.687 299.945 425.492C300.122 425.062 300.148 424.585 300.019 424.139C299.889 423.692 299.613 423.303 299.234 423.034ZM291.154 418.006C290.978 417.899 290.779 417.833 290.573 417.814C290.368 417.795 290.16 417.823 289.967 417.896C289.774 417.969 289.6 418.086 289.458 418.237C289.317 418.387 289.212 418.568 289.151 418.766C288.972 419.193 288.945 419.668 289.074 420.113C289.204 420.557 289.482 420.943 289.862 421.207C290.038 421.315 290.237 421.381 290.443 421.4C290.649 421.419 290.856 421.391 291.049 421.318C291.242 421.244 291.416 421.128 291.558 420.977C291.699 420.826 291.805 420.645 291.865 420.447C292.055 420.012 292.088 419.524 291.958 419.067C291.828 418.61 291.544 418.213 291.154 417.942V418.006Z" fill="url(#paint10_linear_4107_12346)"/>
<path d="M203.363 339.564L43.0017 247.138C34.2435 242.094 27.1659 228.53 27.1659 216.873V181.306C27.1659 175.389 21.381 175.26 24.322 173.126C24.5643 172.964 32.4014 168.615 32.6761 168.469C35.4393 166.853 39.1397 167.047 43.0017 169.326L203.363 261.753C212.105 266.813 219.199 280.361 219.199 292.033V327.601C219.199 333.987 217.082 338.481 213.721 340.421L205.512 345.077C202.781 346.484 207.16 341.763 203.363 339.564Z" fill="url(#paint11_linear_4107_12346)"/>
<path d="M195.429 344.074L35.0682 251.648C26.3262 246.588 19.2324 233.04 19.2324 221.367V185.8C19.2324 174.127 26.3262 168.76 35.0682 173.82L195.429 266.247C204.188 271.291 211.265 284.855 211.265 296.511V332.079C211.298 343.767 204.188 349.118 195.429 344.074Z" fill="url(#paint12_linear_4107_12346)"/>
<path style="mix-blend-mode:color-dodge" d="M197.918 264.598L37.5564 172.204C33.1127 169.634 29.1052 169.763 26.2451 172.043C28.9381 171.715 31.6605 172.344 33.9367 173.821L194.298 266.247C203.056 271.291 210.15 284.856 210.15 296.512V332.079C210.15 337.818 208.421 342.022 205.642 344.221C210.489 343.412 213.721 338.4 213.721 330.463V294.895C213.77 283.207 206.676 269.642 197.918 264.598Z" fill="url(#paint13_radial_4107_12346)"/>
<path d="M88.9424 224.148V227.98L191.051 286.44V282.608L88.9424 224.148Z" fill="white"/>
<path d="M129.76 279.18L88.9424 255.997V259.829L129.76 283.012V279.18Z" fill="white"/>
<path d="M152.285 276.271L88.9424 240.073V243.905L152.285 280.103V276.271Z" fill="white"/>
<path d="M114.716 262.529L88.9424 248.043V251.858L114.716 266.36V262.529Z" fill="white"/>
<path d="M118.48 264.711V268.542L170.642 298.532V294.701L118.48 264.711Z" fill="white"/>
<path d="M133.54 281.363V285.195L162.788 302.089V298.258L133.54 281.363Z" fill="white"/>
<path d="M156.05 282.285L191.05 302.364V298.532L156.05 278.453V282.285Z" fill="white"/>
<path d="M174.406 300.715L191.05 310.335V306.503L174.406 296.884V300.715Z" fill="white"/>
<path d="M88.9424 235.934L191.051 294.41V290.578L88.9424 232.102V235.934Z" fill="white"/>
<path d="M166.553 304.272L191.05 318.289V314.457L166.553 300.44V304.272Z" fill="white"/>
<path d="M88.9424 267.799L191.051 326.259V322.427L88.9424 263.968V267.799Z" fill="white"/>
<path d="M70.7144 242.012C68.1549 239.761 65.9727 237.114 64.2509 234.171C63.1682 232.361 63.2005 230.405 64.2509 229.79C65.7183 228.913 66.8848 227.611 67.5958 226.056C68.7431 226.379 70.165 225.959 70.165 224.439C70.1817 222.878 69.604 221.369 68.5491 220.219C68.2744 213.348 65.9314 206.3 58.0297 201.741C50.1279 197.181 47.801 201.53 47.5263 208.062C46.573 207.852 45.9104 208.773 45.9104 210.39C46.1806 212.196 47.0929 213.843 48.4797 215.03C49.3088 217.674 50.4307 220.217 51.8246 222.612C52.875 224.439 52.9073 226.444 51.8246 227.009C49.7877 227.938 47.4694 228.037 45.3611 227.284C42.0485 226.282 39.5762 228.287 39.5762 232.361V239.442C39.6168 240.191 39.8342 240.92 40.2105 241.569C40.5869 242.218 41.1115 242.769 41.7415 243.176L74.5603 262.14C75.756 262.819 76.7256 262.27 76.7256 260.895V253.83C76.5757 251.556 75.9657 249.336 74.9324 247.304C73.8991 245.273 72.4641 243.472 70.7144 242.012Z" fill="white"/>
<path d="M346.774 172.43L187.754 80.6183C179.012 75.5742 171.918 62.0101 171.918 50.3538V14.7865C171.918 8.86939 166.133 8.74006 169.074 6.60602C169.316 6.44435 177.153 2.09545 177.428 1.94995C180.207 0.333251 183.811 0.527252 187.754 2.80679L346.774 94.6027C355.516 99.6629 362.61 113.211 362.61 124.883V160.451C362.61 166.917 360.493 171.331 357.132 173.271L348.923 177.927C346.192 179.334 350.571 174.629 346.774 172.43Z" fill="url(#paint14_linear_4107_12346)"/>
<path d="M338.84 176.941L179.836 85.1284C171.078 80.0682 164 66.5203 164 54.8478V19.2805C164 7.60796 171.078 2.24053 179.836 7.30079L338.84 99.1128C347.598 104.157 354.675 117.721 354.675 129.377V164.945C354.675 176.633 347.598 181.985 338.84 176.941Z" fill="url(#paint15_linear_4107_12346)"/>
<path style="mix-blend-mode:color-dodge" d="M341.328 97.4645L182.324 5.68479C177.88 3.11425 173.857 3.24359 171.013 5.52312C173.711 5.19567 176.438 5.82495 178.72 7.30149L337.724 99.1135C346.483 104.158 353.576 117.706 353.576 129.378V164.945C353.576 170.685 351.847 174.888 349.068 177.087C353.916 176.278 357.148 171.267 357.148 163.329V127.761C357.18 116.056 350.086 102.509 341.328 97.4645Z" fill="url(#paint16_radial_4107_12346)"/>
<path d="M233.693 57.6289V61.4605L334.461 119.306V115.474L233.693 57.6289Z" fill="white"/>
<path d="M274.527 112.661L233.693 89.4778V93.3093L274.527 116.493V112.661Z" fill="white"/>
<path d="M297.036 109.751L233.693 73.5537V77.3853L297.036 113.583V109.751Z" fill="white"/>
<path d="M259.467 96.0093L233.693 81.5237V85.3552L259.467 99.8408V96.0093Z" fill="white"/>
<path d="M263.248 98.1914V102.023L314.052 131.398V127.567L263.248 98.1914Z" fill="white"/>
<path d="M278.292 114.844V118.675L307.54 135.57V131.738L278.292 114.844Z" fill="white"/>
<path d="M300.817 115.765L334.46 135.23V131.399L300.817 111.934V115.765Z" fill="white"/>
<path d="M317.816 133.582L334.46 143.201V139.369L317.816 129.75V133.582Z" fill="white"/>
<path d="M233.693 69.415L334.461 127.26V123.445L233.693 65.5996V69.415Z" fill="white"/>
<path d="M311.321 137.752L334.461 151.155V147.323L311.321 133.921V137.752Z" fill="white"/>
<path d="M233.693 101.279L334.461 159.125V155.293L233.693 97.4316V101.279Z" fill="white"/>
<path d="M215.499 75.4929C212.907 73.2515 210.696 70.6033 208.954 67.6519C207.872 65.8412 207.904 63.885 208.954 63.2707C210.421 62.3976 211.583 61.0936 212.283 59.5361C213.43 59.8594 214.852 59.4391 214.852 57.9194C214.863 56.3597 214.286 54.8533 213.236 53.6998C212.946 46.8289 210.603 39.7801 202.717 35.221C194.831 30.6619 192.472 35.0109 192.198 41.5423C191.244 41.3321 190.582 42.2536 190.582 43.8703C190.845 45.6747 191.752 47.3228 193.135 48.5102C193.971 51.1518 195.093 53.6942 196.48 56.0925C197.53 57.9194 197.562 59.9241 196.48 60.49C194.419 61.4369 192.068 61.5356 189.935 60.7648C186.623 59.7624 184.15 61.7671 184.15 65.8412V72.9223C184.191 73.6716 184.408 74.4007 184.785 75.0498C185.161 75.6989 185.686 76.2496 186.316 76.6569L219.134 95.6207C220.33 96.2997 221.3 95.7501 221.3 94.3759V87.3109C221.177 85.0519 220.6 82.8408 219.604 80.8102C218.607 78.7795 217.211 76.971 215.499 75.4929Z" fill="white"/>
<path style="mix-blend-mode:color-dodge" d="M359.83 105.063C362.836 112.402 361.899 119.726 357.73 121.44C353.561 123.153 347.759 118.594 344.802 111.271C341.845 103.947 342.734 96.6073 346.903 94.8936C351.072 93.1799 356.808 97.739 359.83 105.063Z" fill="url(#paint17_radial_4107_12346)"/>
<path style="mix-blend-mode:screen" d="M314.181 371.058C314.181 389.698 306.344 438.523 296.665 438.523C286.986 438.523 279.165 389.65 279.165 371.058C279.165 354.648 287.002 350.688 296.665 350.688C306.328 350.688 314.181 354.6 314.181 371.058Z" fill="url(#paint18_linear_4107_12346)"/>
<path style="mix-blend-mode:screen" d="M313.244 370.783C313.244 388.987 305.827 437.342 296.664 437.342C287.502 437.342 280.102 388.987 280.102 370.783C280.102 354.761 287.519 350.897 296.664 350.897C305.81 350.897 313.244 354.761 313.244 370.783Z" fill="url(#paint19_linear_4107_12346)"/>
<path style="mix-blend-mode:screen" d="M312.307 370.557C312.307 388.34 305.31 436.194 296.665 436.194C288.02 436.194 281.023 388.324 281.023 370.557C281.023 354.923 288.036 351.156 296.665 351.156C305.294 351.156 312.307 354.891 312.307 370.557Z" fill="url(#paint20_linear_4107_12346)"/>
<path style="mix-blend-mode:screen" d="M311.37 370.329C311.37 387.644 304.793 434.997 296.666 434.997C288.538 434.997 281.961 387.579 281.961 370.329C281.961 355.084 288.554 351.414 296.666 351.414C304.777 351.414 311.37 355.084 311.37 370.329Z" fill="url(#paint21_linear_4107_12346)"/>
<path style="mix-blend-mode:screen" d="M310.432 370.103C310.432 386.981 304.276 433.93 296.665 433.93C289.054 433.93 282.897 387.046 282.897 370.103C282.897 355.246 289.07 351.673 296.665 351.673C304.26 351.673 310.432 355.246 310.432 370.103Z" fill="url(#paint22_linear_4107_12346)"/>
<path style="mix-blend-mode:screen" d="M309.495 369.877C309.495 386.303 303.759 432.782 296.665 432.782C289.571 432.782 283.835 386.303 283.835 369.877C283.835 355.407 289.587 351.932 296.665 351.932C303.743 351.932 309.495 355.407 309.495 369.877Z" fill="url(#paint23_linear_4107_12346)"/>
<path style="mix-blend-mode:screen" d="M308.574 369.651C308.574 385.64 303.241 431.651 296.664 431.651C290.088 431.651 284.771 385.64 284.771 369.651C284.771 355.569 290.104 352.19 296.664 352.19C303.225 352.19 308.574 355.569 308.574 369.651Z" fill="url(#paint24_linear_4107_12346)"/>
<path style="mix-blend-mode:screen" d="M307.637 369.441C307.637 384.977 302.789 430.536 296.665 430.536C290.541 430.536 285.709 384.977 285.709 369.441C285.709 355.747 290.557 352.449 296.665 352.449C302.773 352.449 307.637 355.731 307.637 369.441Z" fill="url(#paint25_linear_4107_12346)"/>
<path style="mix-blend-mode:screen" d="M306.635 369.198C306.635 384.298 302.143 429.387 296.601 429.387C291.058 429.387 286.582 384.298 286.582 369.198C286.582 355.909 291.058 352.691 296.601 352.691C302.143 352.691 306.635 355.909 306.635 369.198Z" fill="url(#paint26_linear_4107_12346)"/>
<path style="mix-blend-mode:screen" d="M305.762 368.972C305.762 383.635 301.69 428.24 296.665 428.24C291.639 428.24 287.567 383.635 287.567 368.972C287.567 356.038 291.639 352.95 296.665 352.95C301.69 352.95 305.762 356.071 305.762 368.972Z" fill="url(#paint27_linear_4107_12346)"/>
<path style="mix-blend-mode:screen" d="M304.825 368.746C304.825 382.956 301.173 427.108 296.665 427.108C292.157 427.108 288.505 382.956 288.505 368.746C288.505 356.232 292.157 353.209 296.665 353.209C301.173 353.209 304.825 356.232 304.825 368.746Z" fill="url(#paint28_linear_4107_12346)"/>
<path style="mix-blend-mode:screen" d="M303.888 368.519C303.888 382.293 300.656 425.977 296.664 425.977C292.673 425.977 289.441 382.326 289.441 368.519C289.441 356.394 292.673 353.468 296.664 353.468C300.656 353.468 303.888 356.394 303.888 368.519Z" fill="url(#paint29_linear_4107_12346)"/>
<path d="M310.756 345.578H282.736V349.523C282.736 349.523 282.736 349.604 282.736 349.636C282.736 354.147 289.006 357.801 296.746 357.801C304.486 357.801 310.756 354.147 310.756 349.636V349.523V345.578Z" fill="url(#paint30_linear_4107_12346)"/>
<path d="M260.421 252.893C258.158 262.82 246.847 296.803 239.204 295.073C231.561 293.343 230.042 256.741 232.74 246.718C235.083 238.068 241.951 233.622 249.594 235.32C251.488 235.708 253.283 236.479 254.867 237.588C256.452 238.696 257.792 240.117 258.807 241.764C259.821 243.41 260.488 245.247 260.765 247.161C261.043 249.076 260.926 251.026 260.421 252.893Z" fill="url(#paint31_linear_4107_12346)"/>
<path d="M296.746 353.791C304.484 353.791 310.756 350.136 310.756 345.627C310.756 341.118 304.484 337.463 296.746 337.463C289.009 337.463 282.736 341.118 282.736 345.627C282.736 350.136 289.009 353.791 296.746 353.791Z" fill="url(#paint32_linear_4107_12346)"/>
<path d="M359.103 243.242C359.103 277.726 331.148 349.943 296.665 349.943C262.182 349.943 234.243 277.693 234.243 243.242C234.243 212.864 262.182 205.556 296.665 205.556C331.148 205.556 359.103 212.864 359.103 243.242Z" fill="url(#paint33_linear_4107_12346)"/>
<path style="mix-blend-mode:multiply" d="M359.103 243.242C359.103 277.726 331.148 349.943 296.665 349.943C262.182 349.943 234.243 277.693 234.243 243.242C234.243 212.864 262.182 205.556 296.665 205.556C331.148 205.556 359.103 212.864 359.103 243.242Z" fill="url(#paint34_radial_4107_12346)"/>
<path opacity="0.07" d="M296.794 273.312C330.225 273.312 357.325 257.525 357.325 238.052C357.325 218.578 330.225 202.792 296.794 202.792C263.364 202.792 236.263 218.578 236.263 238.052C236.263 257.525 263.364 273.312 296.794 273.312Z" fill="url(#paint35_linear_4107_12346)"/>
<path opacity="0.15" d="M296.778 272.649C329.798 272.649 356.566 257.051 356.566 237.81C356.566 218.568 329.798 202.97 296.778 202.97C263.758 202.97 236.99 218.568 236.99 237.81C236.99 257.051 263.758 272.649 296.778 272.649Z" fill="url(#paint36_linear_4107_12346)"/>
<path opacity="0.22" d="M296.746 271.971C329.355 271.971 355.791 256.568 355.791 237.567C355.791 218.567 329.355 203.164 296.746 203.164C264.136 203.164 237.701 218.567 237.701 237.567C237.701 256.568 264.136 271.971 296.746 271.971Z" fill="url(#paint37_linear_4107_12346)"/>
<path opacity="0.29" d="M296.73 271.308C328.938 271.308 355.047 256.093 355.047 237.325C355.047 218.556 328.938 203.342 296.73 203.342C264.522 203.342 238.412 218.556 238.412 237.325C238.412 256.093 264.522 271.308 296.73 271.308Z" fill="url(#paint38_linear_4107_12346)"/>
<path opacity="0.36" d="M296.697 270.628C328.495 270.628 354.272 255.609 354.272 237.082C354.272 218.554 328.495 203.535 296.697 203.535C264.9 203.535 239.123 218.554 239.123 237.082C239.123 255.609 264.9 270.628 296.697 270.628Z" fill="url(#paint39_linear_4107_12346)"/>
<path opacity="0.44" d="M296.681 269.949C328.077 269.949 353.528 255.125 353.528 236.839C353.528 218.553 328.077 203.729 296.681 203.729C265.285 203.729 239.834 218.553 239.834 236.839C239.834 255.125 265.285 269.949 296.681 269.949Z" fill="url(#paint40_linear_4107_12346)"/>
<path opacity="0.51" d="M296.665 269.287C327.651 269.287 352.769 254.651 352.769 236.597C352.769 218.543 327.651 203.907 296.665 203.907C265.68 203.907 240.562 218.543 240.562 236.597C240.562 254.651 265.68 269.287 296.665 269.287Z" fill="url(#paint41_linear_4107_12346)"/>
<path opacity="0.58" d="M296.633 268.607C327.208 268.607 351.993 254.167 351.993 236.354C351.993 218.541 327.208 204.101 296.633 204.101C266.058 204.101 241.272 218.541 241.272 236.354C241.272 254.167 266.058 268.607 296.633 268.607Z" fill="url(#paint42_linear_4107_12346)"/>
<path opacity="0.65" d="M296.617 267.945C326.79 267.945 351.25 253.693 351.25 236.112C351.25 218.531 326.79 204.279 296.617 204.279C266.444 204.279 241.983 218.531 241.983 236.112C241.983 253.693 266.444 267.945 296.617 267.945Z" fill="url(#paint43_linear_4107_12346)"/>
<path opacity="0.73" d="M296.584 267.266C326.347 267.266 350.474 253.209 350.474 235.87C350.474 218.53 326.347 204.474 296.584 204.474C266.822 204.474 242.694 218.53 242.694 235.87C242.694 253.209 266.822 267.266 296.584 267.266Z" fill="url(#paint44_linear_4107_12346)"/>
<path opacity="0.8" d="M296.568 266.587C325.92 266.587 349.714 252.725 349.714 235.627C349.714 218.528 325.92 204.667 296.568 204.667C267.216 204.667 243.421 218.528 243.421 235.627C243.421 252.725 267.216 266.587 296.568 266.587Z" fill="url(#paint45_linear_4107_12346)"/>
<path style="mix-blend-mode:multiply" opacity="0.05" d="M303.645 259.053C332.239 259.053 355.419 245.546 355.419 228.885C355.419 212.224 332.239 198.718 303.645 198.718C275.052 198.718 251.872 212.224 251.872 228.885C251.872 245.546 275.052 259.053 303.645 259.053Z" fill="url(#paint46_linear_4107_12346)"/>
<path style="mix-blend-mode:multiply" opacity="0.09" d="M303.516 258.326C331.351 258.326 353.916 245.181 353.916 228.967C353.916 212.752 331.351 199.607 303.516 199.607C275.681 199.607 253.116 212.752 253.116 228.967C253.116 245.181 275.681 258.326 303.516 258.326Z" fill="url(#paint47_linear_4107_12346)"/>
<path style="mix-blend-mode:multiply" opacity="0.14" d="M303.403 257.63C330.48 257.63 352.429 244.84 352.429 229.063C352.429 213.286 330.48 200.496 303.403 200.496C276.327 200.496 254.377 213.286 254.377 229.063C254.377 244.84 276.327 257.63 303.403 257.63Z" fill="url(#paint48_linear_4107_12346)"/>
<path style="mix-blend-mode:multiply" opacity="0.18" d="M303.29 256.935C329.617 256.935 350.959 244.5 350.959 229.161C350.959 213.821 329.617 201.386 303.29 201.386C276.963 201.386 255.621 213.821 255.621 229.161C255.621 244.5 276.963 256.935 303.29 256.935Z" fill="url(#paint49_linear_4107_12346)"/>
<path style="mix-blend-mode:multiply" opacity="0.23" d="M303.161 256.207C328.729 256.207 349.456 244.134 349.456 229.241C349.456 214.348 328.729 202.274 303.161 202.274C277.592 202.274 256.865 214.348 256.865 229.241C256.865 244.134 277.592 256.207 303.161 256.207Z" fill="url(#paint50_linear_4107_12346)"/>
<path style="mix-blend-mode:multiply" opacity="0.27" d="M303.047 255.513C327.866 255.513 347.985 243.794 347.985 229.338C347.985 214.883 327.866 203.164 303.047 203.164C278.229 203.164 258.109 214.883 258.109 229.338C258.109 243.794 278.229 255.513 303.047 255.513Z" fill="url(#paint51_linear_4107_12346)"/>
<path style="mix-blend-mode:multiply" opacity="0.32" d="M302.918 254.801C326.978 254.801 346.482 243.437 346.482 229.419C346.482 215.401 326.978 204.037 302.918 204.037C278.858 204.037 259.354 215.401 259.354 229.419C259.354 243.437 278.858 254.801 302.918 254.801Z" fill="url(#paint52_linear_4107_12346)"/>
<path style="mix-blend-mode:multiply" opacity="0.36" d="M302.805 254.106C326.107 254.106 344.996 243.096 344.996 229.516C344.996 215.935 326.107 204.926 302.805 204.926C279.504 204.926 260.614 215.935 260.614 229.516C260.614 243.096 279.504 254.106 302.805 254.106Z" fill="url(#paint53_linear_4107_12346)"/>
<path style="mix-blend-mode:multiply" opacity="0.41" d="M302.692 253.394C325.244 253.394 343.526 242.747 343.526 229.613C343.526 216.479 325.244 205.831 302.692 205.831C280.14 205.831 261.858 216.479 261.858 229.613C261.858 242.747 280.14 253.394 302.692 253.394Z" fill="url(#paint54_linear_4107_12346)"/>
<path style="mix-blend-mode:multiply" opacity="0.45" d="M302.563 252.683C324.356 252.683 342.023 242.39 342.023 229.694C342.023 216.997 324.356 206.704 302.563 206.704C280.769 206.704 263.103 216.997 263.103 229.694C263.103 242.39 280.769 252.683 302.563 252.683Z" fill="url(#paint55_linear_4107_12346)"/>
<path style="mix-blend-mode:multiply" opacity="0.5" d="M302.449 251.988C323.493 251.988 340.552 242.05 340.552 229.791C340.552 217.532 323.493 207.594 302.449 207.594C281.406 207.594 264.347 217.532 264.347 229.791C264.347 242.05 281.406 251.988 302.449 251.988Z" fill="url(#paint56_linear_4107_12346)"/>
<path d="M369.197 192.129C376.108 152.223 349.376 114.267 309.489 107.352C269.603 100.438 231.666 127.183 224.755 167.089C217.844 206.995 244.576 244.951 284.462 251.866C324.349 258.78 362.286 232.035 369.197 192.129Z" fill="url(#paint57_radial_4107_12346)"/>
<path d="M229.621 186.124C244.977 204.715 266.554 217.1 290.346 220.98C291.853 221.229 293.396 221.146 294.868 220.738C296.34 220.33 297.705 219.606 298.869 218.617C300.033 217.628 300.968 216.397 301.609 215.01C302.249 213.622 302.58 212.112 302.579 210.584V191.459C302.58 187.303 301.248 183.257 298.778 179.916C296.309 176.574 292.832 174.115 288.86 172.899C271.65 167.684 256.021 158.235 243.405 145.415C242.71 144.706 241.859 144.17 240.92 143.85C239.98 143.53 238.978 143.435 237.996 143.574C237.013 143.712 236.076 144.08 235.262 144.647C234.447 145.214 233.777 145.964 233.305 146.838C229.14 154.71 226.482 163.291 225.468 172.139C225.192 174.63 225.417 177.15 226.13 179.552C226.843 181.954 228.03 184.189 229.621 186.124Z" fill="url(#paint58_linear_4107_12346)"/>
<path d="M247.034 180.701C249.153 179.462 249.129 175.477 246.981 171.8C244.832 168.123 241.373 166.147 239.254 167.386C237.136 168.625 237.16 172.611 239.308 176.287C241.456 179.964 244.915 181.94 247.034 180.701Z" fill="#2AF6FF"/>
<path d="M280.086 195.404C280.086 198.863 277.63 200.254 274.608 198.524C273.022 197.488 271.702 196.094 270.753 194.454C269.804 192.814 269.254 190.974 269.146 189.082C269.146 185.623 271.603 184.232 274.608 185.962C276.198 186.995 277.523 188.388 278.474 190.028C279.426 191.669 279.978 193.51 280.086 195.404Z" fill="#2AF6FF"/>
<path d="M340.23 299.761C349.654 299.761 357.294 292.117 357.294 282.688C357.294 273.26 349.654 265.616 340.23 265.616C330.806 265.616 323.166 273.26 323.166 282.688C323.166 292.117 330.806 299.761 340.23 299.761Z" fill="url(#paint59_radial_4107_12346)"/>
<path d="M355.468 290.222C353.302 303.059 335.285 331.254 327.658 329.556C320.031 327.859 326.834 293.116 329.032 283.19C330.971 274.459 338.242 270.111 345.885 271.873C353.529 273.635 356.954 281.444 355.468 290.222Z" fill="url(#paint60_linear_4107_12346)"/>
<path style="mix-blend-mode:multiply" d="M355.468 290.222C353.302 303.059 335.285 331.254 327.658 329.556C320.031 327.859 326.834 293.116 329.032 283.19C330.971 274.459 338.242 270.111 345.885 271.873C353.529 273.635 356.954 281.444 355.468 290.222Z" fill="url(#paint61_radial_4107_12346)"/>
<path style="mix-blend-mode:color-dodge" d="M342.815 287.103C342.072 297.239 330.26 325.79 327.82 325.596C325.38 325.402 329.435 299.729 330.825 288.768C331.956 279.892 334.671 275.382 336.998 274.622C343.639 272.439 343.478 278.178 342.815 287.103Z" fill="url(#paint62_radial_4107_12346)"/>
<path style="mix-blend-mode:color-dodge" d="M353.884 291.597C350.765 306.616 335.301 326.566 332.877 326.097C330.453 325.629 344.189 305.517 346.871 294.847C349.052 286.165 346.968 277.338 349.376 276.853C356.259 275.463 355.71 282.835 353.884 291.597Z" fill="url(#paint63_radial_4107_12346)"/>
<path d="M318.657 116.654H274.802V119.888V120.066C274.802 127.114 284.61 132.837 296.729 132.837C308.849 132.837 318.657 127.114 318.657 120.066V119.888V116.654Z" fill="url(#paint64_linear_4107_12346)"/>
<path d="M296.729 129.507C308.84 129.507 318.657 123.788 318.657 116.735C318.657 109.681 308.84 103.963 296.729 103.963C284.619 103.963 274.802 109.681 274.802 116.735C274.802 123.788 284.619 129.507 296.729 129.507Z" fill="url(#paint65_linear_4107_12346)"/>
<path d="M300.01 86.5195H293.449V115.41C293.449 116.461 294.92 117.318 296.681 117.318C298.442 117.318 299.913 116.461 299.913 115.41L300.01 86.5195Z" fill="url(#paint66_linear_4107_12346)"/>
<path d="M306.474 87.3115C306.474 89.23 305.905 91.1054 304.84 92.7006C303.774 94.2958 302.26 95.5391 300.489 96.2733C298.717 97.0075 296.768 97.1996 294.887 96.8253C293.006 96.451 291.279 95.5271 289.923 94.1705C288.567 92.8139 287.643 91.0855 287.269 89.2039C286.895 87.3223 287.087 85.3719 287.821 83.5994C288.555 81.8269 289.798 80.312 291.392 79.2461C292.986 78.1802 294.861 77.6113 296.778 77.6113C299.35 77.6113 301.816 78.6333 303.634 80.4524C305.452 82.2716 306.474 84.7388 306.474 87.3115Z" fill="url(#paint67_radial_4107_12346)"/>
<path style="mix-blend-mode:color-dodge" d="M327.698 166.252C331.843 140.928 314.684 117.037 289.373 112.89C264.061 108.743 240.182 125.911 236.037 151.235C231.892 176.559 249.051 200.449 274.363 204.596C299.674 208.743 323.553 191.576 327.698 166.252Z" fill="url(#paint68_radial_4107_12346)"/>
<path style="mix-blend-mode:color-dodge" d="M262.919 178.329C265.54 167.288 258.718 156.211 247.683 153.589C236.647 150.967 225.576 157.792 222.955 168.833C220.334 179.874 227.155 190.951 238.191 193.573C249.227 196.196 260.298 189.371 262.919 178.329Z" fill="url(#paint69_radial_4107_12346)"/>
<path style="mix-blend-mode:color-dodge" d="M274.931 212.993C286.273 212.993 295.469 203.793 295.469 192.445C295.469 181.096 286.273 171.896 274.931 171.896C263.588 171.896 254.393 181.096 254.393 192.445C254.393 203.793 263.588 212.993 274.931 212.993Z" fill="url(#paint70_radial_4107_12346)"/>
<path style="mix-blend-mode:color-dodge" d="M264.186 269.707C272.524 303.156 289.765 341.747 285.629 343.574C278.406 346.807 250.079 308.992 241.693 275.511C234.356 246.038 237.831 211.393 245.441 209.501C253.052 207.61 256.866 240.251 264.186 269.707Z" fill="url(#paint71_radial_4107_12346)"/>
<path d="M246.136 222.062L240.868 212.977C239.834 211.166 240.868 209.743 242.306 211.182L249.513 218.279C251.145 220.027 253.26 221.248 255.589 221.788L262.796 223.016C264.185 223.243 265.268 225.862 264.234 226.46L258.966 229.467C255.427 231.488 249.675 228.173 246.136 222.062Z" fill="url(#paint72_linear_4107_12346)"/>
<path d="M225.953 239.442L199.113 178.574V144.882C199.113 134.842 192.019 122.604 183.277 117.559L24.2732 25.5372C19.8941 22.999 15.9352 22.7565 13.075 24.3894C12.8165 24.5349 5.15717 28.8353 4.91478 29.0131C2.49094 30.8077 8.43742 29.9993 8.43742 34.5584V76.0589C8.43742 86.0986 15.5312 98.337 24.2732 103.397L178.349 192.574L218.374 243.807L225.953 239.442Z" fill="url(#paint73_linear_4107_12346)"/>
<path d="M218.375 243.807L191.535 182.923V149.247C191.535 139.207 184.441 126.969 175.683 121.925L16.6952 29.9348C7.93702 24.8908 0.859375 28.9325 0.859375 38.9722L0.859375 80.4727C0.859375 90.5124 7.93702 102.751 16.6952 107.811L170.771 196.988L218.375 243.807Z" fill="url(#paint74_linear_4107_12346)"/>
<path style="mix-blend-mode:color-dodge" d="M15.8868 30.9693L174.875 122.992C183.633 128.052 190.726 140.29 190.726 150.33V184.006L213.608 235.934L220.798 242.999L193.958 182.114V148.438C193.958 138.399 186.864 126.16 178.106 121.116L19.1186 29.0777C13.8831 26.0545 9.24543 26.3132 6.36914 29.0777C8.00112 28.7354 9.68546 28.7264 11.321 29.0515C12.9565 29.3765 14.5095 30.0288 15.8868 30.9693Z" fill="url(#paint75_radial_4107_12346)"/>
<path d="M37.443 66.4556V63.8851L34.8899 62.4139V55.2843C36.0372 55.3813 36.8452 54.5406 36.8452 53.0209C36.7822 51.9026 36.4569 50.8148 35.8954 49.8458C35.3339 48.8767 34.5521 48.0537 33.6134 47.4433C31.8197 46.4248 30.3816 47.2493 30.3816 49.2864C30.4758 50.9796 31.1688 52.5841 32.3368 53.8131V60.9266L29.7837 59.4554V62.0421C21.2033 59.1159 14.7559 64.1114 14.7559 74.5553C14.7559 86.5188 23.1908 101.085 33.6134 107.099C44.0359 113.113 52.4547 108.296 52.4547 96.3483C52.4709 85.8721 46.0234 73.4398 37.443 66.4556ZM44.86 99.032C36.8486 95.9594 29.3678 91.6498 22.6899 86.2601C21.6682 85.4274 20.8315 84.3905 20.2332 83.2157C19.635 82.0409 19.2884 80.7542 19.2157 79.4377V74.5876C19.2157 72.5344 20.8316 71.9201 22.593 73.3104C29.2627 78.7074 36.7385 83.0227 44.7468 86.0985C45.7208 86.5841 46.5474 87.3212 47.1412 88.2336C47.7349 89.146 48.0742 90.2005 48.1241 91.2881V96.4615C48.0917 98.6117 46.7021 99.7111 44.86 99.032ZM26.7943 79.8904C25.5339 79.1467 24.4997 79.7449 24.4997 81.1837C24.5466 81.9773 24.7786 82.7489 25.1771 83.4367C25.5755 84.1245 26.1294 84.7094 26.7943 85.1446C28.0547 85.8721 29.0727 85.2901 29.0727 83.8351C29.0302 83.0445 28.8016 82.2752 28.4057 81.5897C28.0098 80.9042 27.4577 80.322 26.7943 79.8904ZM40.4486 87.7798C39.1882 87.0362 38.1701 87.6343 38.1701 89.0732C38.214 89.8657 38.443 90.6368 38.8387 91.3247C39.2344 92.0126 39.7857 92.598 40.4486 93.0341C41.709 93.7616 42.7432 93.1796 42.7432 91.7246C42.6975 90.9329 42.466 90.1631 42.0673 89.4777C41.6686 88.7923 41.114 88.2106 40.4486 87.7798Z" fill="white"/>
<path d="M64.9941 75.6553V79.4868L170.043 139.66V135.829L64.9941 75.6553Z" fill="white"/>
<path d="M108.93 132.369L64.9941 107.504V111.335L108.93 136.2V132.369Z" fill="white"/>
<path d="M131.44 129.458L64.9941 91.5791V95.4107L131.44 133.29V129.458Z" fill="white"/>
<path d="M93.8702 115.717L64.9941 99.5498V103.381L93.8702 119.548V115.717Z" fill="white"/>
<path d="M97.6514 117.899V121.731L149.619 151.753V147.921L97.6514 117.899Z" fill="white"/>
<path d="M112.695 134.551V138.382L141.943 155.277V151.445L112.695 134.551Z" fill="white"/>
<path d="M135.221 135.473L170.043 155.585V151.753L135.221 131.642V135.473Z" fill="white"/>
<path d="M153.399 153.935L170.043 163.554V159.723L153.399 150.104V153.935Z" fill="white"/>
<path d="M64.9941 87.4566L170.043 147.614V143.798L64.9941 83.625V87.4566Z" fill="white"/>
<path d="M145.725 157.459L170.044 171.509V167.677L145.725 153.628V157.459Z" fill="white"/>
<path d="M64.9941 119.306L170.043 179.48V175.632L64.9941 115.475V119.306Z" fill="white"/>
<defs>
<linearGradient id="paint0_linear_4107_12346" x1="259.551" y1="13.5249" x2="362.143" y2="278.033" gradientUnits="userSpaceOnUse">
<stop offset="0.06" stop-color="#200041"/>
<stop offset="0.26" stop-color="#210243"/>
<stop offset="0.36" stop-color="#25084B"/>
<stop offset="0.43" stop-color="#2C1358"/>
<stop offset="0.47" stop-color="#311B61"/>
<stop offset="0.48" stop-color="#351F65"/>
<stop offset="0.5" stop-color="#422C73"/>
<stop offset="0.51" stop-color="#584188"/>
<stop offset="0.52" stop-color="#765FA7"/>
<stop offset="0.53" stop-color="#8770B8"/>
<stop offset="0.54" stop-color="#7E67AE"/>
<stop offset="0.56" stop-color="#5C468D"/>
<stop offset="0.59" stop-color="#442E75"/>
<stop offset="0.61" stop-color="#362066"/>
<stop offset="0.63" stop-color="#311B61"/>
<stop offset="0.67" stop-color="#2A1155"/>
<stop offset="0.75" stop-color="#230446"/>
<stop offset="0.81" stop-color="#200041"/>
<stop offset="1" stop-color="#200041"/>
</linearGradient>
<radialGradient id="paint1_radial_4107_12346" cx="0" cy="0" r="1" gradientUnits="userSpaceOnUse" gradientTransform="translate(505.859 128.942) rotate(1.0517) scale(351.496 295.687)">
<stop stop-color="#711F56"/>
<stop offset="0.16" stop-color="#6C1E52"/>
<stop offset="0.36" stop-color="#5C1946"/>
<stop offset="0.58" stop-color="#431233"/>
<stop offset="0.82" stop-color="#200918"/>
<stop offset="1"/>
</radialGradient>
<radialGradient id="paint2_radial_4107_12346" cx="0" cy="0" r="1" gradientUnits="userSpaceOnUse" gradientTransform="translate(455.592 106.883) rotate(1.0517) scale(207.079 174.199)">
<stop stop-color="#AF8AFC"/>
<stop offset="1" stop-color="#10054D"/>
</radialGradient>
<linearGradient id="paint3_linear_4107_12346" x1="406.941" y1="267.947" x2="13.1117" y2="-41.8421" gradientUnits="userSpaceOnUse">
<stop offset="0.19" stop-color="#3D065F"/>
<stop offset="0.93" stop-color="#3D065F"/>
</linearGradient>
<linearGradient id="paint4_linear_4107_12346" x1="339.202" y1="453.1" x2="179.086" y2="-39.9136" gradientUnits="userSpaceOnUse">
<stop stop-color="#311B61"/>
<stop offset="0.2" stop-color="#290F52"/>
<stop offset="0.49" stop-color="#200041"/>
<stop offset="1" stop-color="#0F001F"/>
</linearGradient>
<linearGradient id="paint5_linear_4107_12346" x1="213.49" y1="234.278" x2="371.343" y2="298.428" gradientUnits="userSpaceOnUse">
<stop stop-color="#311B61"/>
<stop offset="0.2" stop-color="#290F52"/>
<stop offset="0.49" stop-color="#200041"/>
<stop offset="1" stop-color="#0F001F"/>
</linearGradient>
<linearGradient id="paint6_linear_4107_12346" x1="265.31" y1="55.6795" x2="417.797" y2="483.682" gradientUnits="userSpaceOnUse">
<stop offset="0.01" stop-color="#9F19AB"/>
<stop offset="0.43" stop-color="#5F27BD"/>
<stop offset="0.9" stop-color="#3D065F"/>
</linearGradient>
<linearGradient id="paint7_linear_4107_12346" x1="443.205" y1="100.318" x2="452.071" y2="123.605" gradientUnits="userSpaceOnUse">
<stop stop-color="#311B61"/>
<stop offset="0.2" stop-color="#290F52"/>
<stop offset="0.49" stop-color="#200041"/>
<stop offset="1" stop-color="#0F001F"/>
</linearGradient>
<linearGradient id="paint8_linear_4107_12346" x1="442.626" y1="188.52" x2="423.833" y2="179.907" gradientUnits="userSpaceOnUse">
<stop stop-color="#3D065F"/>
<stop offset="1" stop-color="#5F27BD"/>
</linearGradient>
<radialGradient id="paint9_radial_4107_12346" cx="0" cy="0" r="1" gradientUnits="userSpaceOnUse" gradientTransform="translate(434.577 180.295) rotate(1.0517) scale(13.2298 11.1292)">
<stop stop-color="#711F56"/>
<stop offset="0.16" stop-color="#6C1E52"/>
<stop offset="0.36" stop-color="#5C1946"/>
<stop offset="0.58" stop-color="#431233"/>
<stop offset="0.82" stop-color="#200918"/>
<stop offset="1"/>
</radialGradient>
<linearGradient id="paint10_linear_4107_12346" x1="344.01" y1="489.933" x2="266.394" y2="370.866" gradientUnits="userSpaceOnUse">
<stop offset="0.04" stop-color="#138BBD"/>
<stop offset="0.23" stop-color="#169AC7"/>
<stop offset="0.59" stop-color="#1FC3DF"/>
<stop offset="1" stop-color="#2AF6FF"/>
</linearGradient>
<linearGradient id="paint11_linear_4107_12346" x1="44.6661" y1="158.155" x2="198.607" y2="346.716" gradientUnits="userSpaceOnUse">
<stop offset="0.34" stop-color="#FFB260"/>
<stop offset="0.81" stop-color="#FFF3C6"/>
<stop offset="0.91" stop-color="#FFA98C"/>
</linearGradient>
<linearGradient id="paint12_linear_4107_12346" x1="-178.959" y1="188.384" x2="273.923" y2="-14.3187" gradientUnits="userSpaceOnUse">
<stop offset="0.04" stop-color="#FF6C01"/>
<stop offset="0.32" stop-color="#FF813E"/>
<stop offset="0.86" stop-color="#FFD16F"/>
<stop offset="1" stop-color="#FFE276"/>
</linearGradient>
<radialGradient id="paint13_radial_4107_12346" cx="0" cy="0" r="1" gradientUnits="userSpaceOnUse" gradientTransform="translate(234.97 250.937) scale(91.7666 91.8121)">
<stop stop-color="white"/>
<stop offset="1"/>
</radialGradient>
<linearGradient id="paint14_linear_4107_12346" x1="189.159" y1="-8.15439" x2="342.292" y2="179.405" gradientUnits="userSpaceOnUse">
<stop offset="0.17" stop-color="#DC48C1"/>
<stop offset="0.43" stop-color="#DF4AC2"/>
<stop offset="0.6" stop-color="#E851C5"/>
<stop offset="0.75" stop-color="#F75DCB"/>
<stop offset="0.81" stop-color="#FF63CE"/>
<stop offset="0.91" stop-color="#9F19AB"/>
</linearGradient>
<linearGradient id="paint15_linear_4107_12346" x1="-31.7747" y1="22.7502" x2="418.165" y2="-178.636" gradientUnits="userSpaceOnUse">
<stop offset="0.04" stop-color="#9F19AB"/>
<stop offset="0.24" stop-color="#B628B9"/>
<stop offset="0.65" stop-color="#D744BF"/>
<stop offset="1" stop-color="#FF63CE"/>
</linearGradient>
<radialGradient id="paint16_radial_4107_12346" cx="0" cy="0" r="1" gradientUnits="userSpaceOnUse" gradientTransform="translate(378.235 84.1268) scale(91.4273 91.4726)">
<stop stop-color="white"/>
<stop offset="1"/>
</radialGradient>
<radialGradient id="paint17_radial_4107_12346" cx="0" cy="0" r="1" gradientUnits="userSpaceOnUse" gradientTransform="translate(354.28 105.86) rotate(-21.8112) scale(8.14462 14.2482)">
<stop stop-color="#C211A1"/>
<stop offset="0.01" stop-color="#BD119D"/>
<stop offset="0.15" stop-color="#8B0C73"/>
<stop offset="0.29" stop-color="#600850"/>
<stop offset="0.42" stop-color="#3E0533"/>
<stop offset="0.56" stop-color="#23031D"/>
<stop offset="0.7" stop-color="#0F010D"/>
<stop offset="0.85" stop-color="#040003"/>
<stop offset="1"/>
</radialGradient>
<linearGradient id="paint18_linear_4107_12346" x1="296.665" y1="362.053" x2="296.665" y2="422.792" gradientUnits="userSpaceOnUse">
<stop stop-color="#113A39"/>
<stop offset="0.22" stop-color="#0A2222"/>
<stop offset="0.47" stop-color="#040F0F"/>
<stop offset="0.73" stop-color="#010404"/>
<stop offset="1"/>
</linearGradient>
<linearGradient id="paint19_linear_4107_12346" x1="296.664" y1="362.133" x2="296.664" y2="421.903" gradientUnits="userSpaceOnUse">
<stop stop-color="#164A48"/>
<stop offset="0.06" stop-color="#134140"/>
<stop offset="0.3" stop-color="#0B2524"/>
<stop offset="0.54" stop-color="#051010"/>
<stop offset="0.77" stop-color="#010404"/>
<stop offset="1"/>
</linearGradient>
<linearGradient id="paint20_linear_4107_12346" x1="296.665" y1="362.214" x2="296.665" y2="421.014" gradientUnits="userSpaceOnUse">
<stop stop-color="#1A5A58"/>
<stop offset="0.13" stop-color="#144645"/>
<stop offset="0.36" stop-color="#0B2827"/>
<stop offset="0.58" stop-color="#051211"/>
<stop offset="0.8" stop-color="#010404"/>
<stop offset="1"/>
</linearGradient>
<linearGradient id="paint21_linear_4107_12346" x1="296.666" y1="362.278" x2="296.666" y2="420.124" gradientUnits="userSpaceOnUse">
<stop stop-color="#1F6967"/>
<stop offset="0.17" stop-color="#164C4A"/>
<stop offset="0.4" stop-color="#0D2B2A"/>
<stop offset="0.62" stop-color="#061313"/>
<stop offset="0.83" stop-color="#010505"/>
<stop offset="1"/>
</linearGradient>
<linearGradient id="paint22_linear_4107_12346" x1="296.665" y1="362.359" x2="296.665" y2="419.235" gradientUnits="userSpaceOnUse">
<stop stop-color="#237976"/>
<stop offset="0.21" stop-color="#185250"/>
<stop offset="0.44" stop-color="#0E2F2E"/>
<stop offset="0.65" stop-color="#061514"/>
<stop offset="0.85" stop-color="#020505"/>
<stop offset="1"/>
</linearGradient>
<linearGradient id="paint23_linear_4107_12346" x1="296.665" y1="362.44" x2="296.665" y2="418.345" gradientUnits="userSpaceOnUse">
<stop stop-color="#288985"/>
<stop offset="0.23" stop-color="#1A5A58"/>
<stop offset="0.46" stop-color="#0F3332"/>
<stop offset="0.68" stop-color="#071717"/>
<stop offset="0.86" stop-color="#020606"/>
<stop offset="1"/>
</linearGradient>
<linearGradient id="paint24_linear_4107_12346" x1="296.664" y1="362.521" x2="296.664" y2="417.473" gradientUnits="userSpaceOnUse">
<stop stop-color="#2C9995"/>
<stop offset="0.25" stop-color="#1D6462"/>
<stop offset="0.48" stop-color="#103938"/>
<stop offset="0.7" stop-color="#071A19"/>
<stop offset="0.88" stop-color="#020707"/>
<stop offset="1"/>
</linearGradient>
<linearGradient id="paint25_linear_4107_12346" x1="296.665" y1="362.586" x2="296.665" y2="416.583" gradientUnits="userSpaceOnUse">
<stop stop-color="#31A9A4"/>
<stop offset="0.25" stop-color="#21716D"/>
<stop offset="0.49" stop-color="#13403E"/>
<stop offset="0.71" stop-color="#081D1C"/>
<stop offset="0.89" stop-color="#020808"/>
<stop offset="1"/>
</linearGradient>
<linearGradient id="paint26_linear_4107_12346" x1="296.665" y1="362.666" x2="296.665" y2="415.694" gradientUnits="userSpaceOnUse">
<stop stop-color="#35B9B3"/>
<stop offset="0.24" stop-color="#25807C"/>
<stop offset="0.49" stop-color="#154947"/>
<stop offset="0.72" stop-color="#0A2120"/>
<stop offset="0.89" stop-color="#030909"/>
<stop offset="1"/>
</linearGradient>
<linearGradient id="paint27_linear_4107_12346" x1="296.665" y1="362.748" x2="296.665" y2="414.805" gradientUnits="userSpaceOnUse">
<stop stop-color="#3AC8C2"/>
<stop offset="0.2" stop-color="#2B9591"/>
<stop offset="0.48" stop-color="#195653"/>
<stop offset="0.72" stop-color="#0B2726"/>
<stop offset="0.9" stop-color="#030B0A"/>
<stop offset="1"/>
</linearGradient>
<linearGradient id="paint28_linear_4107_12346" x1="296.665" y1="362.812" x2="296.665" y2="413.916" gradientUnits="userSpaceOnUse">
<stop stop-color="#3ED8D2"/>
<stop offset="0.14" stop-color="#33B3AE"/>
<stop offset="0.45" stop-color="#1E6764"/>
<stop offset="0.71" stop-color="#0E2F2E"/>
<stop offset="0.9" stop-color="#040D0D"/>
<stop offset="1"/>
</linearGradient>
<linearGradient id="paint29_linear_4107_12346" x1="296.664" y1="362.893" x2="296.664" y2="413.027" gradientUnits="userSpaceOnUse">
<stop stop-color="#43E8E1"/>
<stop offset="0.02" stop-color="#41E1DB"/>
<stop offset="0.39" stop-color="#26827E"/>
<stop offset="0.68" stop-color="#113C3A"/>
<stop offset="0.89" stop-color="#051110"/>
<stop offset="1"/>
</linearGradient>
<linearGradient id="paint30_linear_4107_12346" x1="282.882" y1="351.689" x2="310.449" y2="351.689" gradientUnits="userSpaceOnUse">
<stop offset="0.02" stop-color="#45108A"/>
<stop offset="0.29" stop-color="#3D065F"/>
<stop offset="1" stop-color="#10054D"/>
</linearGradient>
<linearGradient id="paint31_linear_4107_12346" x1="216.646" y1="261.785" x2="267.014" y2="267.971" gradientUnits="userSpaceOnUse">
<stop offset="0.01" stop-color="#C1A1D5"/>
<stop offset="0.05" stop-color="#C8ABDA"/>
<stop offset="0.11" stop-color="#DAC6E6"/>
<stop offset="0.2" stop-color="#F7F2F9"/>
<stop offset="0.22" stop-color="white"/>
<stop offset="0.25" stop-color="#F9F5FB"/>
<stop offset="0.3" stop-color="#E9DBF2"/>
<stop offset="0.36" stop-color="#D1B4E3"/>
<stop offset="0.43" stop-color="#B395D6"/>
<stop offset="0.49" stop-color="#9C7DCB"/>
<stop offset="0.56" stop-color="#8E6EC5"/>
<stop offset="0.61" stop-color="#8969C3"/>
<stop offset="0.76" stop-color="#9471C6"/>
<stop offset="1" stop-color="#B086CC"/>
</linearGradient>
<linearGradient id="paint32_linear_4107_12346" x1="285.661" y1="339.225" x2="307.853" y2="352.02" gradientUnits="userSpaceOnUse">
<stop offset="0.02" stop-color="#45108A"/>
<stop offset="0.29" stop-color="#3D065F"/>
<stop offset="1" stop-color="#10054D"/>
</linearGradient>
<linearGradient id="paint33_linear_4107_12346" x1="232.078" y1="286.65" x2="361.061" y2="267.139" gradientUnits="userSpaceOnUse">
<stop offset="0.01" stop-color="#C1A1D5"/>
<stop offset="0.04" stop-color="#C8ABDA"/>
<stop offset="0.1" stop-color="#DAC6E6"/>
<stop offset="0.18" stop-color="#F7F2F9"/>
<stop offset="0.2" stop-color="white"/>
<stop offset="0.23" stop-color="#F9F5FB"/>
<stop offset="0.29" stop-color="#E9DBF2"/>
<stop offset="0.36" stop-color="#D1B4E3"/>
<stop offset="0.43" stop-color="#B395D6"/>
<stop offset="0.49" stop-color="#9C7DCB"/>
<stop offset="0.56" stop-color="#8E6EC5"/>
<stop offset="0.61" stop-color="#8969C3"/>
<stop offset="0.76" stop-color="#9471C6"/>
<stop offset="1" stop-color="#B086CC"/>
</linearGradient>
<radialGradient id="paint34_radial_4107_12346" cx="0" cy="0" r="1" gradientUnits="userSpaceOnUse" gradientTransform="translate(290.67 273.102) scale(81.9581 81.9987)">
<stop offset="0.38" stop-color="white"/>
<stop offset="0.47" stop-color="#F4F2F9"/>
<stop offset="0.63" stop-color="#D8D0E8"/>
<stop offset="0.85" stop-color="#AA99CC"/>
<stop offset="1" stop-color="#8770B8"/>
</radialGradient>
<linearGradient id="paint35_linear_4107_12346" x1="248.899" y1="210.374" x2="344.729" y2="265.672" gradientUnits="userSpaceOnUse">
<stop stop-color="white"/>
<stop offset="0.31" stop-color="#E9DDF1"/>
<stop offset="0.98" stop-color="#B188CD"/>
<stop offset="1" stop-color="#B086CC"/>
</linearGradient>
<linearGradient id="paint36_linear_4107_12346" x1="249.449" y1="210.471" x2="344.115" y2="265.107" gradientUnits="userSpaceOnUse">
<stop stop-color="white"/>
<stop offset="0.31" stop-color="#E9DDF1"/>
<stop offset="0.98" stop-color="#B188CD"/>
<stop offset="1" stop-color="#B086CC"/>
</linearGradient>
<linearGradient id="paint37_linear_4107_12346" x1="250.014" y1="210.569" x2="343.517" y2="264.526" gradientUnits="userSpaceOnUse">
<stop stop-color="white"/>
<stop offset="0.31" stop-color="#E9DDF1"/>
<stop offset="0.98" stop-color="#B188CD"/>
<stop offset="1" stop-color="#B086CC"/>
</linearGradient>
<linearGradient id="paint38_linear_4107_12346" x1="250.58" y1="210.665" x2="342.902" y2="263.944" gradientUnits="userSpaceOnUse">
<stop stop-color="white"/>
<stop offset="0.31" stop-color="#E9DDF1"/>
<stop offset="0.98" stop-color="#B188CD"/>
<stop offset="1" stop-color="#B086CC"/>
</linearGradient>
<linearGradient id="paint39_linear_4107_12346" x1="251.129" y1="210.762" x2="342.304" y2="263.362" gradientUnits="userSpaceOnUse">
<stop stop-color="white"/>
<stop offset="0.31" stop-color="#E9DDF1"/>
<stop offset="0.98" stop-color="#B188CD"/>
<stop offset="1" stop-color="#B086CC"/>
</linearGradient>
<linearGradient id="paint40_linear_4107_12346" x1="251.695" y1="210.859" x2="341.69" y2="262.781" gradientUnits="userSpaceOnUse">
<stop stop-color="white"/>
<stop offset="0.31" stop-color="#E9DDF1"/>
<stop offset="0.98" stop-color="#B188CD"/>
<stop offset="1" stop-color="#B086CC"/>
</linearGradient>
<linearGradient id="paint41_linear_4107_12346" x1="252.261" y1="210.94" x2="341.092" y2="262.2" gradientUnits="userSpaceOnUse">
<stop stop-color="white"/>
<stop offset="0.31" stop-color="#E9DDF1"/>
<stop offset="0.98" stop-color="#B188CD"/>
<stop offset="1" stop-color="#B086CC"/>
</linearGradient>
<linearGradient id="paint42_linear_4107_12346" x1="252.81" y1="211.037" x2="340.478" y2="261.634" gradientUnits="userSpaceOnUse">
<stop stop-color="white"/>
<stop offset="0.31" stop-color="#E9DDF1"/>
<stop offset="0.98" stop-color="#B188CD"/>
<stop offset="1" stop-color="#B086CC"/>
</linearGradient>
<linearGradient id="paint43_linear_4107_12346" x1="253.375" y1="211.134" x2="339.863" y2="261.053" gradientUnits="userSpaceOnUse">
<stop stop-color="white"/>
<stop offset="0.31" stop-color="#E9DDF1"/>
<stop offset="0.98" stop-color="#B188CD"/>
<stop offset="1" stop-color="#B086CC"/>
</linearGradient>
<linearGradient id="paint44_linear_4107_12346" x1="253.941" y1="211.231" x2="339.265" y2="260.472" gradientUnits="userSpaceOnUse">
<stop stop-color="white"/>
<stop offset="0.31" stop-color="#E9DDF1"/>
<stop offset="0.98" stop-color="#B188CD"/>
<stop offset="1" stop-color="#B086CC"/>
</linearGradient>
<linearGradient id="paint45_linear_4107_12346" x1="254.49" y1="211.328" x2="338.65" y2="259.89" gradientUnits="userSpaceOnUse">
<stop stop-color="white"/>
<stop offset="0.31" stop-color="#E9DDF1"/>
<stop offset="0.98" stop-color="#B188CD"/>
<stop offset="1" stop-color="#B086CC"/>
</linearGradient>
<linearGradient id="paint46_linear_4107_12346" x1="262.666" y1="205.217" x2="344.629" y2="252.519" gradientUnits="userSpaceOnUse">
<stop offset="0.19" stop-color="#3D065F"/>
<stop offset="0.93" stop-color="#3D065F"/>
</linearGradient>
<linearGradient id="paint47_linear_4107_12346" x1="263.636" y1="205.929" x2="343.432" y2="251.986" gradientUnits="userSpaceOnUse">
<stop offset="0.19" stop-color="#3D065F"/>
<stop offset="0.93" stop-color="#3D065F"/>
</linearGradient>
<linearGradient id="paint48_linear_4107_12346" x1="264.589" y1="206.64" x2="342.22" y2="251.453" gradientUnits="userSpaceOnUse">
<stop offset="0.19" stop-color="#3D065F"/>
<stop offset="0.93" stop-color="#3D065F"/>
</linearGradient>
<linearGradient id="paint49_linear_4107_12346" x1="265.559" y1="207.368" x2="341.024" y2="250.921" gradientUnits="userSpaceOnUse">
<stop offset="0.19" stop-color="#3D065F"/>
<stop offset="0.93" stop-color="#3D065F"/>
</linearGradient>
<linearGradient id="paint50_linear_4107_12346" x1="266.512" y1="208.078" x2="339.827" y2="250.372" gradientUnits="userSpaceOnUse">
<stop offset="0.19" stop-color="#3D065F"/>
<stop offset="0.93" stop-color="#3D065F"/>
</linearGradient>
<linearGradient id="paint51_linear_4107_12346" x1="267.482" y1="208.79" x2="338.631" y2="249.84" gradientUnits="userSpaceOnUse">
<stop offset="0.19" stop-color="#3D065F"/>
<stop offset="0.93" stop-color="#3D065F"/>
</linearGradient>
<linearGradient id="paint52_linear_4107_12346" x1="268.451" y1="209.518" x2="337.418" y2="249.307" gradientUnits="userSpaceOnUse">
<stop offset="0.19" stop-color="#3D065F"/>
<stop offset="0.93" stop-color="#3D065F"/>
</linearGradient>
<linearGradient id="paint53_linear_4107_12346" x1="269.405" y1="210.229" x2="336.222" y2="248.774" gradientUnits="userSpaceOnUse">
<stop offset="0.19" stop-color="#3D065F"/>
<stop offset="0.93" stop-color="#3D065F"/>
</linearGradient>
<linearGradient id="paint54_linear_4107_12346" x1="270.374" y1="210.94" x2="335.026" y2="248.242" gradientUnits="userSpaceOnUse">
<stop offset="0.19" stop-color="#3D065F"/>
<stop offset="0.93" stop-color="#3D065F"/>
</linearGradient>
<linearGradient id="paint55_linear_4107_12346" x1="271.344" y1="211.651" x2="333.813" y2="247.709" gradientUnits="userSpaceOnUse">
<stop offset="0.19" stop-color="#3D065F"/>
<stop offset="0.93" stop-color="#3D065F"/>
</linearGradient>
<linearGradient id="paint56_linear_4107_12346" x1="272.297" y1="212.379" x2="332.617" y2="247.177" gradientUnits="userSpaceOnUse">
<stop offset="0.19" stop-color="#3D065F"/>
<stop offset="0.93" stop-color="#3D065F"/>
</linearGradient>
<radialGradient id="paint57_radial_4107_12346" cx="0" cy="0" r="1" gradientUnits="userSpaceOnUse" gradientTransform="translate(277.968 158.973) scale(103.579 103.63)">
<stop offset="0.01" stop-color="white"/>
<stop offset="0.16" stop-color="#E6D7F0"/>
<stop offset="0.28" stop-color="#D7BDE7"/>
<stop offset="0.36" stop-color="#D1B4E3"/>
<stop offset="0.48" stop-color="#C4A4DC"/>
<stop offset="0.71" stop-color="#A17BC9"/>
<stop offset="0.72" stop-color="#9F79C8"/>
<stop offset="0.81" stop-color="#A37CC9"/>
<stop offset="0.9" stop-color="#AE84CC"/>
<stop offset="0.91" stop-color="#B086CC"/>
<stop offset="0.96" stop-color="#AD84CB"/>
<stop offset="0.99" stop-color="#A57DC9"/>
<stop offset="1" stop-color="#9F79C8"/>
</radialGradient>
<linearGradient id="paint58_linear_4107_12346" x1="225.307" y1="182.308" x2="302.579" y2="182.308" gradientUnits="userSpaceOnUse">
<stop offset="0.02" stop-color="#45108A"/>
<stop offset="0.29" stop-color="#3D065F"/>
<stop offset="1" stop-color="#10054D"/>
</linearGradient>
<radialGradient id="paint59_radial_4107_12346" cx="0" cy="0" r="1" gradientUnits="userSpaceOnUse" gradientTransform="translate(334.655 274.589) scale(25.0464 25.0588)">
<stop offset="0.04" stop-color="#6115A3"/>
<stop offset="0.1" stop-color="#5A139A"/>
<stop offset="0.52" stop-color="#2B0658"/>
<stop offset="1" stop-color="#10054D"/>
</radialGradient>
<linearGradient id="paint60_linear_4107_12346" x1="321.292" y1="298.791" x2="371.304" y2="304.944" gradientUnits="userSpaceOnUse">
<stop offset="0.01" stop-color="#C1A1D5"/>
<stop offset="0.05" stop-color="#C8ABDA"/>
<stop offset="0.11" stop-color="#DAC6E6"/>
<stop offset="0.2" stop-color="#F7F2F9"/>
<stop offset="0.22" stop-color="white"/>
<stop offset="0.25" stop-color="#F9F5FB"/>
<stop offset="0.3" stop-color="#E9DBF2"/>
<stop offset="0.36" stop-color="#D1B4E3"/>
<stop offset="0.43" stop-color="#B395D6"/>
<stop offset="0.49" stop-color="#9C7DCB"/>
<stop offset="0.56" stop-color="#8E6EC5"/>
<stop offset="0.61" stop-color="#8969C3"/>
<stop offset="0.76" stop-color="#9471C6"/>
<stop offset="1" stop-color="#B086CC"/>
</linearGradient>
<radialGradient id="paint61_radial_4107_12346" cx="0" cy="0" r="1" gradientUnits="userSpaceOnUse" gradientTransform="translate(326.479 292.583) scale(35.3072 35.3248)">
<stop offset="0.38" stop-color="white"/>
<stop offset="0.47" stop-color="#F4F2F9"/>
<stop offset="0.63" stop-color="#D8D0E8"/>
<stop offset="0.85" stop-color="#AA99CC"/>
<stop offset="1" stop-color="#8770B8"/>
</radialGradient>
<radialGradient id="paint62_radial_4107_12346" cx="0" cy="0" r="1" gradientUnits="userSpaceOnUse" gradientTransform="translate(330.233 244.166) rotate(-30.7121) scale(8.54651 19.3561)">
<stop stop-color="#972A74"/>
<stop offset="0.04" stop-color="#8A266A"/>
<stop offset="0.19" stop-color="#601B4A"/>
<stop offset="0.35" stop-color="#3D112F"/>
<stop offset="0.51" stop-color="#230A1B"/>
<stop offset="0.67" stop-color="#0F040C"/>
<stop offset="0.83" stop-color="#040103"/>
<stop offset="1"/>
</radialGradient>
<radialGradient id="paint63_radial_4107_12346" cx="0" cy="0" r="1" gradientUnits="userSpaceOnUse" gradientTransform="translate(374.367 232.261) rotate(-23.8164) scale(8.91208 20.1283)">
<stop stop-color="#481437"/>
<stop offset="0.07" stop-color="#3D112F"/>
<stop offset="0.3" stop-color="#220A1A"/>
<stop offset="0.52" stop-color="#0F040C"/>
<stop offset="0.76" stop-color="#040103"/>
<stop offset="1"/>
</radialGradient>
<linearGradient id="paint64_linear_4107_12346" x1="275.012" y1="124.738" x2="318.172" y2="124.738" gradientUnits="userSpaceOnUse">
<stop offset="0.01" stop-color="#C1A1D5"/>
<stop offset="0.05" stop-color="#C8ABDA"/>
<stop offset="0.11" stop-color="#DAC6E6"/>
<stop offset="0.2" stop-color="#F7F2F9"/>
<stop offset="0.22" stop-color="white"/>
<stop offset="0.25" stop-color="#F9F5FB"/>
<stop offset="0.3" stop-color="#E9DBF2"/>
<stop offset="0.36" stop-color="#D1B4E3"/>
<stop offset="0.43" stop-color="#B395D6"/>
<stop offset="0.49" stop-color="#9C7DCB"/>
<stop offset="0.56" stop-color="#8E6EC5"/>
<stop offset="0.61" stop-color="#8969C3"/>
<stop offset="0.76" stop-color="#9471C6"/>
<stop offset="1" stop-color="#B086CC"/>
</linearGradient>
<linearGradient id="paint65_linear_4107_12346" x1="279.375" y1="106.711" x2="314.093" y2="126.743" gradientUnits="userSpaceOnUse">
<stop offset="0.08" stop-color="white"/>
<stop offset="0.21" stop-color="#F9F5FB"/>
<stop offset="0.44" stop-color="#E8DBF0"/>
<stop offset="0.74" stop-color="#CCB1DE"/>
<stop offset="1" stop-color="#B086CC"/>
</linearGradient>
<linearGradient id="paint66_linear_4107_12346" x1="293.482" y1="101.894" x2="299.929" y2="101.894" gradientUnits="userSpaceOnUse">
<stop offset="0.01" stop-color="#C1A1D5"/>
<stop offset="0.05" stop-color="#C8ABDA"/>
<stop offset="0.11" stop-color="#DAC6E6"/>
<stop offset="0.2" stop-color="#F7F2F9"/>
<stop offset="0.22" stop-color="white"/>
<stop offset="0.25" stop-color="#F9F5FB"/>
<stop offset="0.3" stop-color="#E9DBF2"/>
<stop offset="0.36" stop-color="#D1B4E3"/>
<stop offset="0.43" stop-color="#B395D6"/>
<stop offset="0.49" stop-color="#9C7DCB"/>
<stop offset="0.56" stop-color="#8E6EC5"/>
<stop offset="0.61" stop-color="#8969C3"/>
<stop offset="0.76" stop-color="#9471C6"/>
<stop offset="1" stop-color="#B086CC"/>
</linearGradient>
<radialGradient id="paint67_radial_4107_12346" cx="0" cy="0" r="1" gradientUnits="userSpaceOnUse" gradientTransform="translate(294.403 85.4523) scale(13.0079 13.0144)">
<stop offset="0.01" stop-color="white"/>
<stop offset="0.16" stop-color="#E6D7F0"/>
<stop offset="0.28" stop-color="#D7BDE7"/>
<stop offset="0.36" stop-color="#D1B4E3"/>
<stop offset="0.48" stop-color="#C4A4DC"/>
<stop offset="0.71" stop-color="#A17BC9"/>
<stop offset="0.72" stop-color="#9F79C8"/>
<stop offset="0.81" stop-color="#A37CC9"/>
<stop offset="0.9" stop-color="#AE84CC"/>
<stop offset="0.91" stop-color="#B086CC"/>
<stop offset="0.96" stop-color="#AD84CB"/>
<stop offset="0.99" stop-color="#A57DC9"/>
<stop offset="1" stop-color="#9F79C8"/>
</radialGradient>
<radialGradient id="paint68_radial_4107_12346" cx="0" cy="0" r="1" gradientUnits="userSpaceOnUse" gradientTransform="translate(274.815 149.336) scale(53.7446 53.7713)">
<stop stop-color="#972A74"/>
<stop offset="0.04" stop-color="#8A266A"/>
<stop offset="0.19" stop-color="#601B4A"/>
<stop offset="0.35" stop-color="#3D112F"/>
<stop offset="0.51" stop-color="#230A1B"/>
<stop offset="0.67" stop-color="#0F040C"/>
<stop offset="0.83" stop-color="#040103"/>
<stop offset="1"/>
</radialGradient>
<radialGradient id="paint69_radial_4107_12346" cx="0" cy="0" r="1" gradientUnits="userSpaceOnUse" gradientTransform="translate(242.949 173.537) scale(20.538 20.5482)">
<stop stop-color="#43E8E1"/>
<stop offset="0.14" stop-color="#34B5B0"/>
<stop offset="0.3" stop-color="#257F7B"/>
<stop offset="0.46" stop-color="#17514F"/>
<stop offset="0.62" stop-color="#0D2E2D"/>
<stop offset="0.76" stop-color="#061514"/>
<stop offset="0.89" stop-color="#020505"/>
<stop offset="1"/>
</radialGradient>
<radialGradient id="paint70_radial_4107_12346" cx="0" cy="0" r="1" gradientUnits="userSpaceOnUse" gradientTransform="translate(274.931 192.445) scale(20.538 20.5482)">
<stop stop-color="#43E8E1"/>
<stop offset="0.14" stop-color="#34B5B0"/>
<stop offset="0.3" stop-color="#257F7B"/>
<stop offset="0.46" stop-color="#17514F"/>
<stop offset="0.62" stop-color="#0D2E2D"/>
<stop offset="0.76" stop-color="#061514"/>
<stop offset="0.89" stop-color="#020505"/>
<stop offset="1"/>
</radialGradient>
<radialGradient id="paint71_radial_4107_12346" cx="0" cy="0" r="1" gradientUnits="userSpaceOnUse" gradientTransform="translate(261.13 318.897) rotate(-15.2623) scale(14.9203 65.3902)">
<stop stop-color="#972A74"/>
<stop offset="0.02" stop-color="#8C276C"/>
<stop offset="0.11" stop-color="#671D4F"/>
<stop offset="0.21" stop-color="#471437"/>
<stop offset="0.32" stop-color="#2D0D23"/>
<stop offset="0.43" stop-color="#190713"/>
<stop offset="0.57" stop-color="#0B0308"/>
<stop offset="0.73" stop-color="#020102"/>
<stop offset="1"/>
</radialGradient>
<linearGradient id="paint72_linear_4107_12346" x1="276.406" y1="208.792" x2="288.994" y2="230.721" gradientUnits="userSpaceOnUse">
<stop offset="0.02" stop-color="#45108A"/>
<stop offset="0.29" stop-color="#3D065F"/>
<stop offset="1" stop-color="#10054D"/>
</linearGradient>
<linearGradient id="paint73_linear_4107_12346" x1="22.1725" y1="18.3915" x2="221.038" y2="242.578" gradientUnits="userSpaceOnUse">
<stop stop-color="#CF30E4"/>
<stop offset="0.24" stop-color="#CB52F7"/>
<stop offset="0.45" stop-color="#B244FC"/>
<stop offset="0.64" stop-color="#9849FC"/>
<stop offset="0.65" stop-color="#9C4FFF"/>
<stop offset="0.77" stop-color="#9746FE"/>
<stop offset="0.84" stop-color="#9745FF"/>
<stop offset="0.88" stop-color="#9A4BFF"/>
<stop offset="1" stop-color="#9C53FE"/>
</linearGradient>
<linearGradient id="paint74_linear_4107_12346" x1="-216.551" y1="41.8014" x2="402.662" y2="-53.8307" gradientUnits="userSpaceOnUse">
<stop offset="0.04" stop-color="#D562F2"/>
<stop offset="0.23" stop-color="#F855DD"/>
<stop offset="0.59" stop-color="#B377FF"/>
<stop offset="1" stop-color="#9360FF"/>
</linearGradient>
<radialGradient id="paint75_radial_4107_12346" cx="0" cy="0" r="1" gradientUnits="userSpaceOnUse" gradientTransform="translate(225.339 105.03) scale(109.299 109.353)">
<stop stop-color="white" stop-opacity="0.73"/>
<stop offset="1" stop-opacity="0.74"/>
</radialGradient>
</defs>
</svg>
