<svg width="122" height="26" viewBox="0 0 122 26" fill="none" xmlns="http://www.w3.org/2000/svg">
<g id="_Client logo" clip-path="url(#clip0_4107_12078)">
<path id="Vector" d="M43.0631 14.9752L42.336 17.031H42.2754C42.1542 16.5674 41.932 15.862 41.5684 15.0155L37.6701 5.24029H33.8525V20.8201H36.3774V11.2062C36.3774 10.6015 36.3774 9.91626 36.3572 9.06975C36.337 8.6465 36.2966 8.32402 36.2764 8.08215H36.337C36.4582 8.68681 36.5996 9.13022 36.7006 9.41239L41.3866 20.7798H43.1641L47.8098 9.31161C47.9108 9.0496 48.0118 8.52557 48.1128 8.08215H48.1734C48.1128 9.23099 48.0724 10.2589 48.0522 10.8837V20.7597H50.7386V5.19998H47.0625L43.0631 14.9752ZM53.2837 9.59378H55.9095V20.7597H53.2837V9.59378ZM54.6168 4.8775C54.1724 4.8775 53.8088 5.03874 53.5058 5.32091C53.2029 5.60309 53.0413 5.96588 53.0413 6.40929C53.0413 6.83254 53.2029 7.19533 53.5058 7.4775C53.8088 7.75967 54.1724 7.90076 54.6168 7.90076C55.0611 7.90076 55.4449 7.73952 55.7277 7.4775C56.0307 7.19533 56.1923 6.83254 56.1923 6.40929C56.1923 5.98603 56.0307 5.62324 55.7277 5.32091C55.4651 5.03874 55.0813 4.8775 54.6168 4.8775ZM65.2211 9.49301C64.7363 9.39223 64.2313 9.33177 63.7466 9.33177C62.5549 9.33177 61.4641 9.59378 60.5552 10.1178C59.6462 10.6418 58.9191 11.3674 58.4545 12.2744C57.9698 13.2015 57.7274 14.2698 57.7274 15.4992C57.7274 16.5674 57.9698 17.5147 58.4343 18.3814C58.8989 19.2279 59.5453 19.9132 60.4138 20.3767C61.2419 20.8403 62.2115 21.0822 63.3022 21.0822C64.5545 21.0822 65.6251 20.8201 66.4734 20.3364L66.4936 20.3163V17.8977L66.3926 17.9783C66.0088 18.2605 65.5645 18.5023 65.1201 18.6434C64.6555 18.8046 64.2313 18.8853 63.8678 18.8853C62.8174 18.8853 61.9893 18.5829 61.4035 17.9178C60.7976 17.2729 60.4946 16.386 60.4946 15.2775C60.4946 14.1287 60.7976 13.2217 61.4237 12.5566C62.0499 11.8915 62.878 11.5488 63.888 11.5488C64.7363 11.5488 65.6049 11.831 66.3926 12.3953L66.4936 12.476V9.91626L66.4734 9.89611C66.13 9.75502 65.7462 9.59378 65.2211 9.49301ZM73.8863 9.41239C73.2399 9.41239 72.634 9.61394 72.1088 10.0372C71.6645 10.4 71.3615 10.924 71.0989 11.5488H71.0787V9.59378H68.4529V20.7597H71.0787V15.0558C71.0787 14.0884 71.2807 13.2822 71.7251 12.6977C72.1694 12.093 72.735 11.7907 73.4217 11.7907C73.6641 11.7907 73.9065 11.8511 74.2095 11.8915C74.4923 11.9721 74.6943 12.0527 74.8356 12.1535L74.9366 12.2341V9.61394L74.876 9.59378C74.6943 9.47285 74.3307 9.41239 73.8863 9.41239ZM81.0366 9.35192C79.1986 9.35192 77.7241 9.89611 76.6939 10.9643C75.6436 12.0325 75.1386 13.5039 75.1386 15.3581C75.1386 17.0915 75.6638 18.5023 76.6737 19.5302C77.6837 20.538 79.0572 21.062 80.7741 21.062C82.5717 21.062 84.0058 20.5178 85.036 19.4294C86.0863 18.3411 86.5913 16.8899 86.5913 15.0961C86.5913 13.3225 86.1065 11.9116 85.1168 10.8837C84.1674 9.8558 82.7737 9.35192 81.0366 9.35192ZM83.1373 17.938C82.6525 18.5628 81.885 18.8651 80.9356 18.8651C79.9863 18.8651 79.2188 18.5628 78.6734 17.8977C78.128 17.2729 77.8654 16.3659 77.8654 15.217C77.8654 14.0279 78.1482 13.1209 78.6734 12.476C79.2188 11.831 79.9661 11.5085 80.9154 11.5085C81.8446 11.5085 82.5717 11.8108 83.0969 12.4356C83.6221 13.0604 83.9049 13.9674 83.9049 15.1566C83.8645 16.3659 83.6423 17.3132 83.1373 17.938ZM92.4489 14.2294C91.6207 13.8868 91.0956 13.6248 90.8532 13.4031C90.6512 13.2015 90.5502 12.9194 90.5502 12.5566C90.5502 12.2542 90.6714 11.9519 90.9744 11.7504C91.2774 11.5488 91.6207 11.448 92.1257 11.448C92.5701 11.448 93.0346 11.5287 93.479 11.6496C93.9234 11.7705 94.3274 11.9519 94.6505 12.1938L94.7515 12.2744V9.81549L94.6909 9.79533C94.388 9.6744 93.984 9.55347 93.4992 9.4527C93.0145 9.37208 92.5701 9.33177 92.2065 9.33177C90.9542 9.33177 89.9241 9.63409 89.1161 10.2992C88.3082 10.924 87.9244 11.7705 87.9244 12.7581C87.9244 13.2822 88.0052 13.7457 88.187 14.1287C88.3688 14.5116 88.6313 14.8744 88.9949 15.1767C89.3585 15.4589 89.8837 15.7814 90.6108 16.0837C91.2168 16.3457 91.6813 16.5473 91.9641 16.7085C92.2469 16.8698 92.4287 17.0511 92.5701 17.1922C92.6711 17.3535 92.7317 17.555 92.7317 17.817C92.7317 18.5628 92.1661 18.9256 91.0148 18.9256C90.5704 18.9256 90.1058 18.8449 89.5605 18.6636C89.0151 18.4822 88.5101 18.2201 88.086 17.9178L87.985 17.8372V20.3969L88.0456 20.417C88.4294 20.5984 88.8939 20.7194 89.4595 20.8605C90.025 20.9612 90.53 21.0418 90.9744 21.0418C92.3277 21.0418 93.4386 20.7395 94.2264 20.0744C95.0343 19.4294 95.4585 18.6031 95.4585 17.5349C95.4585 16.7891 95.2565 16.124 94.8121 15.6201C94.2264 15.1364 93.4992 14.6325 92.4489 14.2294ZM102.387 9.35192C100.549 9.35192 99.0741 9.89611 98.0439 10.9643C97.0138 12.0325 96.4886 13.5039 96.4886 15.3581C96.4886 17.0915 97.0138 18.5023 98.0237 19.5302C99.0337 20.538 100.407 21.062 102.124 21.062C103.922 21.062 105.356 20.5178 106.386 19.4294C107.436 18.3411 107.941 16.8899 107.941 15.0961C107.941 13.3225 107.456 11.9116 106.467 10.8837C105.517 9.8558 104.124 9.35192 102.387 9.35192ZM104.467 17.938C103.982 18.5628 103.215 18.8651 102.265 18.8651C101.296 18.8651 100.549 18.5628 100.003 17.8977C99.4578 17.2729 99.1952 16.3659 99.1952 15.217C99.1952 14.0279 99.478 13.1209 100.003 12.476C100.549 11.831 101.296 11.5085 102.245 11.5085C103.154 11.5085 103.902 11.8108 104.427 12.4356C104.952 13.0604 105.235 13.9674 105.235 15.1566C105.235 16.3659 104.972 17.3132 104.467 17.938ZM121.979 11.7504V9.59378H119.333V6.28836L119.253 6.30851L116.748 7.05425L116.687 7.0744V9.59378H112.728V8.18293C112.728 7.53797 112.89 7.03409 113.173 6.71161C113.456 6.38913 113.88 6.22789 114.405 6.22789C114.768 6.22789 115.152 6.30851 115.576 6.48991L115.677 6.55037V4.27285L115.617 4.2527C115.253 4.13177 114.768 4.05115 114.142 4.05115C113.355 4.05115 112.668 4.23254 112.042 4.53487C111.415 4.8775 110.951 5.34107 110.607 5.96588C110.264 6.57053 110.082 7.2558 110.082 8.04185V9.59378H108.244V11.7302H110.082V20.7597H112.728V11.7504H116.687V17.4946C116.687 19.8527 117.798 21.0418 120.02 21.0418C120.384 21.0418 120.767 20.9814 121.131 20.9209C121.515 20.8403 121.798 20.7395 121.959 20.6589L121.979 20.6387V18.4822L121.878 18.5628C121.717 18.6636 121.575 18.7442 121.333 18.8046C121.131 18.8651 120.949 18.8853 120.808 18.8853C120.283 18.8853 119.919 18.7643 119.657 18.462C119.414 18.1798 119.293 17.7163 119.293 17.031V11.7504H121.979Z" fill="#737373"/>
<path id="Vector_2" d="M0 0H12.3818V12.355H0V0Z" fill="#F25022"/>
<path id="Vector_3" d="M13.6748 0H26.0566V12.355H13.6748V0Z" fill="#7FBA00"/>
<path id="Vector_4" d="M0 13.645H12.3818V26.0001H0V13.645Z" fill="#00A4EF"/>
<path id="Vector_5" d="M13.6748 13.645H26.0566V26.0001H13.6748V13.645Z" fill="#FFB900"/>
</g>
<defs>
<clipPath id="clip0_4107_12078">
<rect width="122" height="26" fill="white"/>
</clipPath>
</defs>
</svg>
