<svg width="522" height="449" viewBox="0 0 522 449" fill="none" xmlns="http://www.w3.org/2000/svg">
<path d="M70.3594 191.761H72.766V196.58H70.3594V191.761ZM72.766 315.997H70.3594V306.041H72.766V315.997ZM72.766 296.085H70.3594V286.13H72.766V296.085ZM72.766 276.174H70.3594V266.219H72.766V276.174ZM72.766 256.263H70.3594V246.308H72.766V256.263ZM72.766 236.352H70.3594V226.397H72.766V236.352ZM72.766 216.441H70.3594V206.485H72.766V216.441ZM76.376 331.97H70.3594V325.947H72.766V329.561H76.376V331.97ZM210.671 331.97H201.079V329.561H210.671V331.97ZM191.488 331.97H181.886V329.561H191.478L191.488 331.97ZM172.299 331.97H162.712V329.561H172.299V331.97ZM153.115 331.97H143.524V329.561H153.115V331.97ZM133.932 331.97H124.34V329.561H133.932V331.97ZM114.748 331.97H105.151V329.561H114.758L114.748 331.97ZM95.5596 331.97H85.9678V329.561H95.5596V331.97ZM220.263 329.561H225.076V331.97H220.263V329.561Z" fill="#E5BFFD"/>
<path d="M245.14 269.723H235.911V267.309H245.14V269.723ZM226.285 269.723H216.658V267.309H226.285V269.723ZM207.026 269.723H197.4V267.309H207.026V269.723ZM187.773 269.723H178.142V267.309H187.773V269.723ZM168.515 269.723H158.888V267.309H168.515V269.723ZM149.262 269.723H141.236V265.706H143.643V267.309H149.262V269.723ZM143.643 256.069H141.236V246.432H143.643V256.069ZM143.643 236.79H141.236V227.153H143.643V236.79ZM143.643 217.516H141.236V207.874H143.643V217.516ZM143.643 198.237H141.236V188.6H143.643V198.237ZM143.643 178.963H141.236V169.321H143.643V178.963ZM143.643 159.684H141.236V150.047H143.643V159.684Z" fill="#E5BFFD"/>
<path d="M336.603 258.876H334.196V249.239H336.603V258.876ZM336.603 239.602H334.196V229.975H336.603V239.602ZM336.603 220.324H334.196V210.687H336.603V220.324ZM336.603 201.05H334.196V191.413H336.603V201.05ZM336.603 181.771H334.196V172.134H336.603V181.771ZM336.603 162.497H334.196V152.855H336.603V162.497Z" fill="#E5BFFD"/>
<path d="M484.637 360.891H475.005V358.482H484.637V360.891ZM465.379 360.891H455.752V358.482H465.379V360.891ZM446.125 360.891H436.474V358.482H446.106L446.125 360.891ZM426.867 360.891H417.241V358.482H426.867V360.891ZM407.634 360.891H397.982V358.482H407.634V360.891ZM490.276 354.465H487.869V344.823H490.276V354.465ZM490.276 335.186H487.869V325.549H490.276V335.186ZM490.276 315.912H487.869V306.265H490.276V315.912ZM490.276 296.633H487.869V286.991H490.276V296.633ZM490.276 277.359H487.869V267.712H490.276V277.359ZM490.276 258.08H487.869V248.438H490.276V258.08ZM490.276 238.801H487.869V229.159H490.276V238.801ZM486.263 223.544H476.611V221.135H486.238L486.263 223.544ZM467.005 223.544H457.358V221.135H466.985L467.005 223.544ZM447.751 223.544H440.909V218.318H443.316V221.13H447.727L447.751 223.544ZM443.341 208.686H440.934V199.039H443.341V208.686ZM443.341 189.407H440.934V179.765H443.341V189.407ZM443.341 170.133H440.934V160.486H443.341V170.133ZM443.341 150.854H440.934V141.212H443.341V150.854ZM443.341 131.575H440.934V121.958H443.341V131.575Z" fill="#E5BFFD"/>
<g style="mix-blend-mode:multiply">
<path d="M433.197 412.814H63.1447C62.211 412.814 61.4541 413.572 61.4541 414.506V427.513C61.4541 428.448 62.211 429.206 63.1447 429.206H433.197C434.131 429.206 434.888 428.448 434.888 427.513V414.506C434.888 413.572 434.131 412.814 433.197 412.814Z" fill="#F7F7F7"/>
</g>
<path d="M145.503 156.036C173.586 156.036 196.351 133.246 196.351 105.133C196.351 77.0202 173.586 54.2302 145.503 54.2302C117.421 54.2302 94.6553 77.0202 94.6553 105.133C94.6553 133.246 117.421 156.036 145.503 156.036Z" fill="#E5BFFD"/>
<path d="M145.503 156.036C154.641 156.028 163.607 153.541 171.445 148.838C166.248 138.559 160.59 127.095 150.809 124.646C147.597 123.65 136.314 125.756 136.314 125.756C124.147 130.734 119.518 143.178 118.22 148.037C126.363 153.261 135.832 156.037 145.503 156.036Z" fill="#3EA0CF"/>
<path d="M148.571 127.433C151.246 127.871 154.498 136.239 154.498 136.239C154.413 132.391 152.012 124.765 151.738 124.183C147.82 121.535 145.155 121.654 145.155 121.654L144.657 125.288L148.571 127.433ZM142.629 129.693C140.421 131.271 139.039 141.441 139.039 141.441C135.826 134.472 135.245 126.05 135.289 125.786C136.334 124.068 138.77 122.909 138.77 122.909L142.629 129.693Z" fill="#47B7ED"/>
<path d="M146.448 116.726C145.886 119.807 146.18 122.515 147.164 123.356C148.149 124.198 149.566 126.731 148.571 127.433C147.577 128.135 147.139 128.09 147.358 130.136C147.577 132.182 148.412 142.431 148.412 142.431C147.731 140.774 145.429 129.733 144.499 129.489C144.183 129.37 143.843 129.327 143.507 129.364C143.171 129.4 142.848 129.514 142.565 129.698C141.878 130.052 138.219 128.205 138.214 123.575C138.761 122.953 139.417 116.607 137.682 111.445L145.349 112.122L146.448 116.726Z" fill="#FFD0A2"/>
<path d="M156.224 90.8616C159.769 94.7244 160.808 100.2 157.094 102.31C153.379 104.421 152.992 104.302 153.051 103.495C153.111 102.689 156.224 90.8616 156.224 90.8616ZM125.698 88.7361C120.91 89.3683 119.602 91.7476 119.592 93.2161C119.582 94.6845 119.786 96.5512 119.786 96.5512C119.119 98.1292 118.389 103.241 119.03 104.516C119.671 105.79 123.933 110.076 126.986 109.912C130.039 109.747 135.882 107.995 135.882 107.995C135.882 107.995 136.428 100.668 136.379 100.115C136.329 99.5628 125.698 88.7361 125.698 88.7361Z" fill="#42302A"/>
<path d="M131.843 76.1622C128.611 77.9293 126.016 79.4077 125.27 82.8424C124.459 86.8477 125.123 91.0116 127.139 94.565C128.423 96.7169 129.47 99.0018 130.262 101.38L140.301 103.346L153.389 99.7618L156.899 91.5933C157.764 88.6066 158.326 84.1266 157.347 82.0061C158.137 84.4651 158.018 85.62 158.018 85.62C158.843 82.922 158.958 77.098 157.227 75.5698C155.497 74.0417 153.249 73.2452 149.127 72.9465C145.005 72.6479 134.986 71.6523 133.514 73.1556C132.671 73.9692 132.089 75.016 131.843 76.1622Z" fill="#523A33"/>
<path d="M153.294 82.051C154.254 84.739 156.944 88.9204 157.064 90.0155C157.183 91.1106 156.437 97.6315 156.601 100.185C156.765 102.739 156.909 105.571 156.372 106.806C155.835 108.04 152.628 114.685 152.394 115.641C152.291 116.075 152.077 116.475 151.774 116.802C151.471 117.129 151.088 117.372 150.664 117.508C149.912 117.807 149.108 117.951 148.299 117.929C147.491 117.908 146.695 117.722 145.96 117.383C144.26 116.487 139.168 112.794 136.871 111.514C134.573 110.235 134.136 108.234 133.982 106.497C133.827 104.76 133.131 105.611 133.057 106.293C132.982 106.975 130.789 107.841 128.114 106.049C125.628 104.366 125.101 99.08 127.522 98.0844C129.944 97.0889 132.167 99.3687 132.679 101.026C132.987 100.434 132.321 96.3323 132.321 96.3323C132.651 96.9191 132.812 97.5857 132.788 98.2587C133.062 96.6658 132.694 93.9479 132.694 93.9479C134.767 93.1614 139.327 89.5376 141.147 87.0288C140.331 88.7561 137.169 91.5984 137.169 91.5984C141.008 91.3296 147.213 87.4121 148.605 84.7639C147.566 87.5216 144.071 89.3186 144.071 89.3186C150.147 86.307 152.723 83.629 153.294 82.051Z" fill="#FFD0A2"/>
<path d="M145.383 98.7016C143.797 97.1136 140.709 95.6054 138.72 96.4715C136.314 97.5218 137.89 98.8459 135.483 98.0445C135.899 98.4264 136.395 98.7098 136.934 98.8735C137.474 99.0373 138.044 99.0772 138.601 98.9903L145.383 98.7016ZM150.664 97.6811C150.948 96.5711 152.36 94.3958 154.09 94.0224C155.821 93.6491 155.363 96.5113 157.029 95.1026C156.924 95.3989 156.741 95.6612 156.5 95.8619C156.258 96.0626 155.967 96.1941 155.657 96.2425L150.664 97.6811Z" fill="#1F1F1F"/>
<g style="mix-blend-mode:multiply">
<path d="M132.375 104.112C130.342 100.334 127.547 99.269 125.966 101.678C126.443 101.296 127.023 101.062 127.632 101.007C128.241 100.951 128.853 101.075 129.392 101.365C128.308 102.41 128.452 103.893 129.735 104.252C128.815 103.754 128.84 102.196 129.874 101.619C130.88 102.257 131.733 103.108 132.375 104.112Z" fill="#E0E0E0"/>
</g>
<path d="M143.102 109.18C143.191 109.255 144.767 109.991 145.205 109.762C146.382 108.83 147.799 108.25 149.292 108.09C151.803 107.816 152.534 108.09 152.455 108.642C152.286 109.139 152.005 109.591 151.634 109.961C151.778 110.389 152.415 111.385 151.54 112.052C150.665 112.719 148.248 112.883 146.199 111.724C145.017 111.077 143.966 110.214 143.102 109.18Z" fill="#DB7161"/>
<g style="mix-blend-mode:multiply">
<path d="M149.277 108.09C147.784 108.25 146.367 108.83 145.19 109.762C144.782 109.976 143.385 109.349 143.126 109.205C144.464 110.016 144.822 110.365 147.964 110.409C150.679 110.454 151.619 109.961 151.619 109.961C151.99 109.591 152.271 109.139 152.439 108.642C152.519 108.085 151.788 107.816 149.277 108.09Z" fill="#E6E6E6"/>
</g>
<path d="M147.397 110.379C148.646 110.225 149.158 109.628 150.023 109.538C150.888 109.449 151.017 109.986 151.36 110.036C150.794 110.663 150.311 111.161 147.397 110.379Z" fill="white"/>
<g style="mix-blend-mode:multiply">
<path d="M151.196 113.162C151.138 113.405 151 113.622 150.805 113.777C150.609 113.932 150.367 114.017 150.117 114.018C149.327 114.103 148.367 113.66 148.347 113.476C148.327 113.291 149.257 113.421 150.043 113.336C150.828 113.252 151.176 112.998 151.196 113.162Z" fill="#E6E6E6"/>
</g>
<g style="mix-blend-mode:multiply">
<path d="M151.803 102.858C151.565 102.579 151.306 102.315 151.042 102.052C150.779 101.807 150.533 101.544 150.307 101.265C149.955 100.663 149.792 99.9696 149.839 99.2741C149.854 98.6403 149.924 98.0091 150.048 97.3875C150.157 96.8349 150.257 96.3919 150.336 96.0534L150.461 95.5557L150.257 96.0534C150.082 96.4777 149.931 96.9115 149.804 97.3526C149.73 97.6264 149.65 97.9301 149.591 98.2536C149.517 98.5929 149.471 98.9374 149.451 99.284C149.428 99.6615 149.446 100.04 149.506 100.414C149.572 100.817 149.721 101.202 149.944 101.544C150.189 101.844 150.456 102.125 150.744 102.385C151.013 102.644 151.281 102.883 151.51 103.142C151.732 103.341 151.888 103.603 151.957 103.893C151.955 104.023 151.911 104.149 151.833 104.252C151.756 104.365 151.671 104.473 151.58 104.575C151.275 104.906 150.932 105.2 150.56 105.451C150.456 105.522 150.346 105.584 150.232 105.636C150.191 105.655 150.147 105.668 150.103 105.675C150.147 105.679 150.192 105.679 150.237 105.675C150.364 105.645 150.488 105.6 150.605 105.541C151.009 105.345 151.384 105.094 151.719 104.794C151.77 104.894 151.797 105.004 151.797 105.115C151.797 105.227 151.77 105.337 151.719 105.437C151.902 105.188 151.982 104.877 151.942 104.57L152.067 104.421C152.118 104.354 152.163 104.283 152.201 104.207C152.246 104.115 152.272 104.015 152.276 103.913C152.252 103.516 152.084 103.141 151.803 102.858Z" fill="#D6D6D6"/>
</g>
<g style="mix-blend-mode:multiply">
<path d="M148.949 105.143C148.019 105.167 147.417 105.64 147.954 105.849C147.929 105.68 148.397 105.352 148.949 105.143Z" fill="#CCCCCC"/>
</g>
<g style="mix-blend-mode:multiply">
<path d="M146.552 104.993C146.596 105.339 146.767 105.656 147.032 105.882C147.296 106.109 147.636 106.228 147.984 106.218C146.581 106.367 146.233 106.029 146.552 104.993Z" fill="#E6E6E6"/>
</g>
<g style="mix-blend-mode:screen">
<path d="M151.131 103.137C149.774 102.694 147.412 103.689 148.73 103.789C150.047 103.888 150.38 104.112 150.286 104.605C150.192 105.098 152.504 103.585 151.131 103.137Z" fill="#363636"/>
</g>
<path d="M154.975 90.5232C153.677 90.9512 150.574 91.8373 150.574 91.8373C150.615 92.0994 150.678 92.3576 150.763 92.6088C150.593 92.3863 150.46 92.1375 150.37 91.8721C150.256 92.798 150.977 93.5745 151.534 93.4252C151.635 93.4288 151.737 93.4137 151.832 93.3804C152.499 93.236 155.81 90.9911 156.621 92.7183C156.616 91.9368 156.332 90.1 154.975 90.5232Z" fill="#523A33"/>
<path d="M150.664 97.6812C151.161 96.4268 153.066 94.595 154.145 94.6448C155.224 94.6946 155.741 95.9788 155.761 96.173C155.711 96.8798 152.578 100.185 150.664 97.6812Z" fill="white"/>
<g style="mix-blend-mode:multiply">
<path d="M142.574 95.4312C143.754 95.9716 144.78 96.8 145.558 97.8404C145.125 96.5711 145.239 95.5755 142.574 95.4312Z" fill="#E0E0E0"/>
</g>
<mask id="mask0_4114_614" style="mask-type:luminance" maskUnits="userSpaceOnUse" x="150" y="94" width="6" height="5">
<path d="M150.664 97.6812C151.161 96.4268 153.066 94.595 154.145 94.6448C155.224 94.6946 155.741 95.9788 155.761 96.173C155.711 96.8798 152.578 100.185 150.664 97.6812Z" fill="white"/>
</mask>
<g mask="url(#mask0_4114_614)">
<path d="M154.587 96.5263C154.717 97.721 154.13 98.7663 153.275 98.8609C152.419 98.9555 151.624 98.0595 151.494 96.8698C151.365 95.6801 151.952 94.6298 152.807 94.5352C153.662 94.4406 154.458 95.3316 154.587 96.5263Z" fill="#3EA0CF"/>
</g>
<g style="mix-blend-mode:screen">
<path d="M155.293 96.3571C155.356 96.5272 155.365 96.7128 155.318 96.8879C155.27 97.0631 155.169 97.2191 155.029 97.3342C154.889 97.4493 154.717 97.5176 154.536 97.5297C154.355 97.5418 154.175 97.4971 154.02 97.4018C153.866 97.3064 153.746 97.1652 153.675 96.9979C153.605 96.8306 153.589 96.6455 153.629 96.4685C153.669 96.2915 153.763 96.1314 153.898 96.0106C154.034 95.8898 154.203 95.8142 154.383 95.7946C154.578 95.751 154.783 95.7854 154.953 95.8905C155.123 95.9955 155.245 96.163 155.293 96.3571Z" fill="#828282"/>
</g>
<g style="mix-blend-mode:multiply">
<path d="M154.159 94.6448C153.065 94.595 151.141 96.4268 150.679 97.6812C151.802 95.9639 155.194 94.9833 155.79 96.1879C155.756 95.9788 155.253 94.6946 154.159 94.6448Z" fill="#E0E0E0"/>
</g>
<path d="M145.384 98.7014C141.371 95.9487 138.134 96.3867 137.463 98.9553C138.999 100.912 140.476 100.827 141.973 100.722C143.47 100.618 145.091 99.5128 145.384 98.7014Z" fill="white"/>
<mask id="mask1_4114_614" style="mask-type:luminance" maskUnits="userSpaceOnUse" x="137" y="96" width="9" height="5">
<path d="M145.338 98.2561C141.052 95.9542 137.881 96.7395 137.49 99.3647C139.228 101.143 140.687 100.899 142.164 100.633C143.641 100.368 145.134 99.0942 145.338 98.2561Z" fill="white"/>
</mask>
<g mask="url(#mask1_4114_614)">
<path d="M141.433 101.535C142.498 101.419 143.23 100.118 143.069 98.6281C142.908 97.1387 141.914 96.0251 140.849 96.1408C139.784 96.2565 139.052 97.5578 139.213 99.0472C139.374 100.537 140.368 101.65 141.433 101.535Z" fill="#3EA0CF"/>
</g>
<g style="mix-blend-mode:screen">
<path d="M144.095 98.6667C144.15 99.1644 143.668 99.6622 143.021 99.717C142.844 99.6935 142.676 99.6205 142.538 99.5063C142.4 99.3922 142.297 99.2414 142.24 99.0712C142.184 98.9011 142.176 98.7185 142.218 98.5442C142.261 98.3699 142.351 98.2111 142.479 98.0858C142.607 97.9605 142.768 97.8738 142.943 97.8356C143.118 97.7975 143.3 97.8093 143.469 97.8699C143.637 97.9305 143.785 98.0374 143.896 98.1782C144.007 98.3191 144.076 98.4884 144.095 98.6667Z" fill="#828282"/>
</g>
<g style="mix-blend-mode:multiply">
<path d="M137.463 98.9553C139.337 97.5416 141.63 97.3674 145.384 98.7014C141.371 95.9487 138.129 96.3867 137.463 98.9553Z" fill="#E0E0E0"/>
</g>
<path d="M145.493 92.1408C145.623 93.4549 146.195 94.6645 143.415 94.2514C140.635 93.8382 136.727 92.8526 136.105 95.5904C136.17 93.1015 137.359 91.7227 140.049 92.0811C141.782 92.2949 143.534 92.3299 145.275 92.1856C145.345 92.4891 145.378 92.8 145.374 93.1115C145.479 92.7994 145.52 92.4691 145.493 92.1408Z" fill="#523A33"/>
<g style="mix-blend-mode:screen">
<path d="M147.457 110.842C146.552 110.524 146.433 111.34 147.412 111.494C148.392 111.649 148.412 111.186 147.457 110.842Z" fill="#262626"/>
</g>
<g style="mix-blend-mode:multiply">
<path d="M150.888 110.474C151.062 110.343 151.22 110.193 151.36 110.026C151.186 110.001 151.057 109.832 150.838 109.698C150.925 109.947 150.942 110.215 150.888 110.474ZM149.004 109.867C148.501 110.124 147.957 110.292 147.397 110.365C147.99 110.535 148.595 110.658 149.207 110.733C148.029 110.564 148.367 110.2 149.004 109.867Z" fill="#E6E6E6"/>
</g>
<g style="mix-blend-mode:multiply">
<path d="M150.664 117.518C150.813 117.453 150.947 117.383 151.076 117.313C149.734 117.811 147.715 118.055 146.104 116.87C143.028 114.46 140.098 111.867 137.333 109.105C135.19 106.825 135.344 103.63 135.463 100.588C135.657 98.2735 134.682 93.4052 134.682 93.4052C135.571 93.0296 136.331 92.4036 136.87 91.6032C136.879 91.8122 136.838 92.0203 136.751 92.2105C137.999 92.1458 140.639 90.7769 141.286 90.3936C139.983 91.0223 138.585 91.4278 137.149 91.5933C137.149 91.5933 140.301 88.751 141.127 87.0237C139.317 89.5126 134.757 93.1563 132.674 93.9428C132.674 93.9428 133.041 96.6607 132.768 98.2535C132.792 97.5806 132.631 96.914 132.301 96.3271C132.301 96.3271 132.967 100.429 132.659 101.021C132.161 99.3636 129.924 97.0738 127.502 98.0793C125.081 99.0848 125.598 104.376 128.094 106.044C130.769 107.836 132.962 106.965 133.037 106.288C133.111 105.611 133.812 104.759 133.961 106.492C134.111 108.224 134.553 110.23 136.85 111.509C139.148 112.789 144.239 116.487 145.94 117.378C146.676 117.722 147.475 117.912 148.287 117.936C149.1 117.96 149.908 117.818 150.664 117.518Z" fill="#EDEDED"/>
</g>
<path d="M133.216 106.86C133.238 107.046 133.203 107.233 133.118 107.4C133.033 107.566 132.901 107.703 132.738 107.794C132.575 107.885 132.389 107.925 132.203 107.911C132.017 107.896 131.84 107.826 131.693 107.711C131.547 107.595 131.438 107.439 131.38 107.261C131.322 107.084 131.318 106.893 131.368 106.713C131.418 106.534 131.52 106.373 131.662 106.251C131.803 106.129 131.977 106.052 132.162 106.029C132.286 106.014 132.412 106.023 132.532 106.057C132.652 106.09 132.764 106.148 132.862 106.225C132.96 106.302 133.042 106.398 133.103 106.507C133.164 106.616 133.202 106.736 133.216 106.86Z" fill="#FFFFC8"/>
<g style="mix-blend-mode:multiply">
<path d="M94.8689 101.091C94.7645 102.43 94.665 103.769 94.665 105.133C94.6668 114.894 97.4735 124.449 102.75 132.657C108.027 140.865 115.551 147.381 124.425 151.426C124.539 150.087 124.624 148.738 124.624 147.364C124.623 137.606 121.817 128.054 116.541 119.849C111.265 111.644 103.741 105.132 94.8689 101.091Z" fill="#AC31F8"/>
</g>
<path d="M357.213 149.19C377.07 129.312 377.07 97.0819 357.213 77.2031C337.355 57.3243 305.16 57.3244 285.303 77.2031C265.445 97.0819 265.445 129.312 285.303 149.19C305.16 169.069 337.355 169.069 357.213 149.19Z" fill="#E5BFFD"/>
<path d="M330.417 163.273C339.42 161.622 347.805 157.553 354.677 151.501C349.592 146.591 343.348 143.048 336.528 141.202C336.528 141.202 327.249 143.487 326.215 143.691C325.181 143.895 322.237 141.058 312.75 141.954C304.182 142.765 297.833 148.016 293.357 155.732C304.274 162.943 317.554 165.646 330.417 163.273Z" fill="#BA3535"/>
<path d="M336.528 141.202C332.6 139.708 333.937 122.575 333.937 122.575L328.831 124.626L317.255 138.205C316.688 139.868 314.893 141.147 312.75 141.939C317.837 153.019 331.058 146.06 336.528 141.202Z" fill="#FFD0A2"/>
<path d="M309.767 99.1645C306.028 95.3764 309.444 85.1968 310.15 85.1719C310.665 85.218 311.144 85.456 311.493 85.839C311.025 84.4004 310.498 83.7831 311.229 83.8479C311.96 83.9126 321.786 86.0779 323.063 86.959C322.691 86.0132 322.482 85.4407 323.924 86.0928C325.366 86.7449 337.031 91.7177 338.239 95.5506C339.448 99.3835 339.308 100.842 339.308 100.842C340.333 99.2292 340.989 100.026 340.571 101.628C342.819 102.838 343.058 106.766 340.626 110.255C339.194 112.392 338.252 114.819 337.866 117.363C337.722 117.697 333.486 120.604 333.207 120.758C332.929 120.912 326.529 121.983 326.529 121.983L309.767 99.1645Z" fill="#F5B062"/>
<path d="M311.513 94.5801C308.44 100.529 306.54 104.426 306.665 106.646C306.789 108.866 307.952 113.117 307.221 115.79C306.49 118.463 306.152 121.878 307.286 125.024C308.42 128.17 309.877 132.526 309.931 135.054C309.986 137.583 314.262 138.479 317.972 138.768C321.681 139.057 323.158 137.155 324.719 135.701C326.281 134.248 330.532 133.367 331.944 130.261C333.356 127.155 333.023 123.66 333.466 123.581C333.908 123.501 337.588 125.875 339.776 120.34C341.964 114.805 337.847 110.633 333.675 116.124C333.461 116.622 331.795 117.229 332.029 116.019C332.263 114.81 332.785 113.749 331.775 113.222C330.766 112.694 330.632 111.146 331.054 109.847C331.477 108.548 332.899 101.882 332.899 101.882C331.905 102.574 327.668 98.8261 327.489 98.6569C326.962 98.5623 314.093 101.469 311.513 94.5801Z" fill="#FFD0A2"/>
<path d="M320.119 104.337C319.965 104.614 319.877 104.923 319.862 105.24C319.848 105.557 319.907 105.873 320.035 106.164C319.724 105.749 319.55 105.248 319.537 104.73C319.04 105.83 319.408 108.214 321.328 108.613C323.247 109.011 324.545 108.175 325.922 108.856C327.299 109.538 329.184 111.594 329.184 111.594C328.995 110.673 327.956 107.911 326.583 106.427C325.211 104.944 324.057 105.825 322.71 105.959C321.362 106.094 320.159 104.536 320.119 104.337ZM308.583 106.029C309.936 104.257 311.781 105.188 313.685 105.601C315.589 106.014 315.545 103.281 315.028 102.41C315.028 102.908 314.794 103.062 314.794 103.062C314.786 102.88 314.737 102.701 314.651 102.54C314.565 102.379 314.444 102.239 314.297 102.132C313.799 102.48 312.213 101.549 310.657 102.191C309.1 102.833 308.424 104.038 308.583 106.029Z" fill="#F5B062"/>
<path d="M309.916 123.013C314.804 126.846 326.822 124.009 329.676 122.441C327.767 127.175 320.577 131.998 316.206 132.033C311.835 132.068 313.267 127.199 309.916 123.013Z" fill="#6E2B2B"/>
<path d="M316.525 127.966C316.525 127.966 315.983 131.092 316.152 131.281C316.321 131.47 317.644 131.445 318.822 131.57C323.014 130.246 328.115 126.313 329.677 122.441C328.588 123.043 326.196 123.824 323.347 124.352L319.767 125.766C318.591 126.348 317.5 127.088 316.525 127.966Z" fill="#BA3535"/>
<path d="M309.916 123.013C311.84 125.502 316.335 129.813 329.676 122.441C326.812 124.034 314.804 126.846 309.916 123.013Z" fill="white"/>
<g style="mix-blend-mode:multiply">
<path d="M318.881 132.869C318.881 133.023 316.892 133.755 315.58 133.69C314.267 133.626 314.088 132.799 314.088 132.645C314.088 132.491 314.282 133.068 315.58 133.143C316.877 133.217 318.886 132.715 318.881 132.869Z" fill="#D9D9D9"/>
</g>
<path d="M320.02 129.355C315.649 131.261 316.276 128.857 316.634 128.11C316.992 127.364 313.596 127.916 312.954 129.823C313.531 131.167 314.336 132.053 316.206 132.033C319.463 132.008 324.271 129.325 327.309 126.005C326.683 124.915 324.162 127.548 320.02 129.355Z" fill="white"/>
<g style="mix-blend-mode:multiply">
<path d="M314.65 108.378C314.898 109.757 316.31 114.426 316.027 115.088C315.744 115.751 312.318 118.663 311.955 119.185C311.891 119.392 311.874 119.61 311.907 119.824C311.94 120.038 312.021 120.242 312.143 120.42C312.071 120.498 312.015 120.59 311.978 120.69C311.941 120.79 311.925 120.897 311.93 121.004C311.935 121.11 311.962 121.215 312.008 121.311C312.054 121.407 312.118 121.494 312.198 121.565C312.145 121.437 312.135 121.296 312.169 121.162C312.203 121.028 312.28 120.909 312.387 120.823C312.899 121.573 313.672 122.105 314.555 122.316C313.506 121.848 312.492 119.902 312.944 119.33C313.397 118.757 316.355 116.622 316.589 115.407C316.823 114.192 314.65 108.378 314.65 108.378Z" fill="#D9D9D9"/>
</g>
<g style="mix-blend-mode:screen">
<path d="M313.983 118.822C313.342 118.822 313.68 120.912 313.943 120.37C314.207 119.827 314.679 120.141 315.346 120.036C316.012 119.932 314.873 118.807 313.983 118.822Z" fill="#787878"/>
</g>
<g style="mix-blend-mode:multiply">
<path d="M317.071 122.082C315.957 121.813 315.455 121.047 315.4 121.475C315.346 121.903 316.106 122.64 317.071 122.082Z" fill="#BFBFBF"/>
</g>
<g style="mix-blend-mode:multiply">
<path d="M317.489 120.196C318.365 121.545 318.031 122.441 317.211 122.744C319.061 122.54 318.588 121.311 317.489 120.196Z" fill="#D9D9D9"/>
</g>
<path d="M321.173 111.121C320.986 111.015 320.839 110.849 320.758 110.649C320.677 110.449 320.665 110.228 320.726 110.021C321.322 109.852 325.494 110.18 326.832 113.107C324.895 112.6 323.002 111.936 321.173 111.121Z" fill="#2E2E2E"/>
<path d="M321.148 110.509C320.77 111.654 320.845 112.901 321.357 113.993C322.192 114.959 326.33 113.948 326.827 113.117C325.236 110.907 323.033 110.653 321.148 110.509Z" fill="white"/>
<mask id="mask2_4114_614" style="mask-type:luminance" maskUnits="userSpaceOnUse" x="320" y="110" width="7" height="5">
<path d="M321.148 110.509C320.77 111.654 320.845 112.901 321.357 113.993C322.192 114.959 326.33 113.948 326.827 113.117C325.236 110.907 323.033 110.653 321.148 110.509Z" fill="white"/>
</mask>
<g mask="url(#mask2_4114_614)">
<path d="M324.594 110.673C324.862 112.833 323.599 114.715 322.754 114.919C321.909 115.123 320.164 115.168 319.806 114.322C319.447 113.476 319.472 110.977 319.492 110.668C319.681 110.201 319.934 109.762 320.243 109.364C320.243 109.364 322.595 109.334 322.729 109.414C322.864 109.493 324.594 110.673 324.594 110.673Z" fill="#458AC7"/>
</g>
<g style="mix-blend-mode:screen">
<path d="M325.201 112.535C325.269 112.694 325.285 112.871 325.248 113.041C325.211 113.21 325.122 113.363 324.993 113.48C324.865 113.596 324.704 113.67 324.532 113.691C324.36 113.711 324.185 113.678 324.033 113.595C323.881 113.512 323.758 113.384 323.682 113.229C323.606 113.073 323.58 112.897 323.608 112.726C323.635 112.555 323.716 112.397 323.837 112.273C323.959 112.15 324.116 112.067 324.287 112.037C324.474 111.983 324.675 112.005 324.846 112.098C325.017 112.191 325.145 112.348 325.201 112.535Z" fill="#787878"/>
</g>
<g style="mix-blend-mode:multiply">
<path d="M321.149 110.509C320.991 110.974 320.912 111.461 320.915 111.952C322.407 111.873 325.152 111.913 326.832 113.127C325.236 110.907 323.033 110.653 321.149 110.509Z" fill="#E3E3E3"/>
</g>
<path d="M310.085 110.18C309.914 110.058 309.784 109.888 309.71 109.691C309.637 109.494 309.624 109.28 309.673 109.075C310.17 108.921 313.805 109.354 315.033 112.296C313.326 111.736 311.67 111.028 310.085 110.18Z" fill="#2E2E2E"/>
<path d="M310.045 109.553C309.745 110.712 309.839 111.938 310.314 113.038C311.06 114.033 314.615 113.112 315.033 112.301C313.6 110.071 311.666 109.762 310.045 109.553Z" fill="white"/>
<mask id="mask3_4114_614" style="mask-type:luminance" maskUnits="userSpaceOnUse" x="309" y="109" width="7" height="5">
<path d="M310.045 109.553C309.745 110.712 309.839 111.938 310.314 113.038C311.06 114.033 314.615 113.112 315.033 112.301C313.6 110.071 311.666 109.762 310.045 109.553Z" fill="white"/>
</mask>
<g mask="url(#mask3_4114_614)">
<path d="M313.028 109.817C313.312 111.978 312.273 113.799 311.537 114.003C310.801 114.208 309.299 114.188 308.966 113.331C308.633 112.475 308.598 109.996 308.608 109.688C308.756 109.236 308.963 108.806 309.224 108.408C309.947 108.408 310.669 108.445 311.387 108.518C311.512 108.598 313.028 109.817 313.028 109.817Z" fill="#458AC7"/>
</g>
<g style="mix-blend-mode:screen">
<path d="M313.611 111.689C313.65 111.826 313.648 111.972 313.603 112.107C313.558 112.243 313.474 112.362 313.36 112.448C313.247 112.535 313.11 112.585 312.967 112.592C312.824 112.599 312.683 112.562 312.562 112.487C312.44 112.412 312.344 112.302 312.287 112.172C312.229 112.041 312.212 111.896 312.239 111.755C312.265 111.615 312.333 111.486 312.434 111.385C312.535 111.284 312.665 111.217 312.805 111.191C312.978 111.15 313.159 111.18 313.31 111.273C313.461 111.367 313.569 111.516 313.611 111.689Z" fill="#787878"/>
</g>
<g style="mix-blend-mode:multiply">
<path d="M310.045 109.553C309.92 110.019 309.864 110.5 309.881 110.982C311.154 110.942 313.55 111.047 315.032 112.296C313.6 110.071 311.666 109.762 310.045 109.553ZM339.71 116.383C336.289 114.322 333.674 118.05 334.191 121.156C334.368 119.932 334.857 118.775 335.613 117.796C336.533 118.792 336.339 120.559 336.339 120.559C336.717 118.842 336.523 117.841 336.115 117.284C336.618 116.889 337.197 116.605 337.817 116.449C338.436 116.294 339.082 116.271 339.71 116.383Z" fill="#E3E3E3"/>
</g>
<g style="mix-blend-mode:multiply">
<path d="M340.571 101.648C340.989 100.046 340.332 99.2491 339.308 100.862C338.214 104.765 336.026 102.196 336.026 102.196C335.32 104.187 332.898 101.882 332.898 101.882C332.098 103.749 330.005 107.856 330.248 115.367C330.492 122.879 330.954 125.392 326.071 130.146C321.298 134.795 322.64 138.827 314.635 138.32C315.729 138.535 316.835 138.683 317.946 138.763C321.651 139.046 323.133 137.15 324.694 135.696C326.255 134.243 330.507 133.362 331.919 130.256C333.331 127.15 332.998 123.655 333.44 123.576C333.883 123.496 337.563 125.87 339.75 120.335C340.934 117.348 340.248 114.745 338.756 113.864C339.221 112.594 339.844 111.389 340.611 110.275C343.032 106.785 342.818 102.858 340.571 101.648Z" fill="#E3E3E3"/>
</g>
<path d="M469.945 111.04C489.802 91.1613 489.802 58.9315 469.945 39.0527C450.088 19.1739 417.892 19.1739 398.035 39.0527C378.178 58.9315 378.178 91.1613 398.035 111.04C417.892 130.919 450.088 130.919 469.945 111.04Z" fill="#E5BFFD"/>
<path d="M458 107.866C455.539 104.725 451.829 104.252 448.717 104.973C445.604 105.695 442.093 110.185 442.093 110.783C442.093 111.38 441.347 119.454 441.646 120.579C441.83 121.271 442.496 123.436 443.033 125.133H443.142C451.218 123.663 458.814 120.246 465.275 115.178C462.658 112.939 460.226 110.494 458 107.866ZM419.041 111.504C417.49 113.68 415.063 117.279 412.423 121.136C415.721 122.687 419.174 123.88 422.726 124.695C425.709 117.149 429.568 106.253 428.101 104.077C426.808 102.544 423.621 105.078 419.041 111.504Z" fill="#FF7878"/>
<path d="M443.138 103.754L430.791 105.874C430.791 105.874 433.944 103.933 431.164 103.883C430.418 104.381 428.101 104.092 428.101 104.092C426.211 108.881 418.042 118.946 414.755 121.141C414.474 121.352 414.219 121.594 413.994 121.863C423.175 125.809 433.317 126.947 443.142 125.133C444.919 124.803 446.676 124.379 448.408 123.864C446.917 119.384 446.479 111.793 448.732 104.949C446.623 104.476 443.138 103.754 443.138 103.754Z" fill="#FF6363"/>
<path d="M424.814 53.6325C420.135 57.2215 411.771 60.014 410.075 66.4951C408.38 72.9762 412.467 76.1669 415.654 79.3527C418.842 82.5385 416.649 87.5312 413.064 88.1285C409.479 88.7259 402.125 95.9038 409.583 102.783H464.777C466.269 102.086 465.274 100.986 464.18 99.3932C463.086 97.8004 466.87 94.9132 468.561 90.4332C470.252 85.9532 467.169 81.4732 461.6 80.6668C456.031 79.8604 458.616 74.0862 461.699 66.51C464.782 58.9339 453.097 34.1943 424.814 53.6325Z" fill="#AB663E"/>
<path d="M442.839 82.6682C440.223 93.3605 441.72 102.037 443.137 103.754C440.676 109.727 435.679 112.878 431.412 111.679C427.146 110.479 430.592 104.127 430.592 104.127C433.506 101.639 433.804 93.6741 433.357 91.3445C432.909 89.0149 442.839 82.6682 442.839 82.6682Z" fill="#FFD0A2"/>
<path d="M425.66 55.0813C423.497 60.0889 419.693 65.9976 419.911 69.0639C420.13 72.1302 420.806 73.7729 420.135 76.0925C419.464 78.4121 422.074 89.0347 427.156 92.9124C431.413 94.1071 442.839 88.3528 443.809 81.1001C445.529 84.0171 451.804 80.4281 451.879 75.4155C451.954 70.4029 445.529 70.6319 444.112 76.1672C444.003 76.4284 443.84 76.6634 443.634 76.8565C443.427 77.0496 443.182 77.1965 442.914 77.2872C443.809 74.9675 441.571 69.9599 437.837 67.6402C434.103 65.3206 424.839 61.2289 425.66 55.0813Z" fill="#FFD0A2"/>
<path d="M426.41 85.6996C425.103 84.9131 424.133 82.7826 424.879 82.7428C425.625 82.703 430.219 85.9983 433.541 83.1161C432.546 86.1476 429.956 89.1392 428.24 89.2487C426.525 89.3583 425.848 87.0834 426.41 85.6996Z" fill="#FFA294"/>
<path d="M424.879 82.743C424.133 82.7828 425.103 84.9133 426.41 85.6998C428.175 86.4066 431.785 85.411 433.541 83.1163C430.219 85.9984 425.625 82.7081 424.879 82.743Z" fill="#EB9588"/>
<g style="mix-blend-mode:screen">
<path d="M430.104 85.8639C428.821 86.3119 429.154 87.7704 430.159 87.0835C431.163 86.3966 431.004 85.5503 430.104 85.8639Z" fill="#505050"/>
</g>
<g style="mix-blend-mode:multiply">
<path d="M427.116 89.398C427.566 89.5964 428.06 89.6732 428.548 89.6208C429.037 89.5684 429.503 89.3886 429.901 89.0994C428.817 90.5977 427.564 90.4085 427.116 89.398Z" fill="#E6E6E6"/>
</g>
<path d="M421.303 67.2421C423.869 65.7985 426.907 67.1674 428.15 68.4865C426.161 64.4744 423.844 64.7482 421.303 67.2421ZM433.107 69.2382C436.966 68.8399 439.477 70.1839 440.452 71.5777C438.11 66.8687 435.618 68.1978 433.107 69.2382Z" fill="#AB663E"/>
<g style="mix-blend-mode:multiply">
<path d="M427.927 71.6274C427.852 72.8022 428.25 75.3906 428.051 75.9631C427.852 76.5355 425.361 78.7805 424.839 79.1041C424.545 79.2882 424.61 79.8159 424.988 80.3983C424.491 80.8961 424.988 81.3142 425.152 81.4635C425.103 81.4102 425.066 81.3474 425.042 81.279C425.018 81.2107 425.008 81.1382 425.014 81.066C425.019 80.9938 425.038 80.9234 425.072 80.8591C425.105 80.7948 425.151 80.7379 425.207 80.692C425.545 81.0938 425.952 81.4311 426.41 81.6875C425.416 80.692 425.112 79.6466 425.485 79.2683C425.858 78.89 428.25 77.0034 428.469 76.1323C428.687 75.2612 427.927 71.6274 427.927 71.6274Z" fill="#E6E6E6"/>
</g>
<g style="mix-blend-mode:screen">
<path d="M426.296 79.0046C425.361 79.0394 425.634 80.3784 426.022 80.1644C426.41 79.9503 426.619 80.1644 427.057 80.0399C427.494 79.9155 427.653 78.9548 426.296 79.0046Z" fill="#505050"/>
</g>
<g style="mix-blend-mode:multiply">
<path d="M428.414 81.7922C427.782 81.5582 427.573 80.8563 427.136 80.9858C426.698 81.1152 427.37 81.9415 428.414 81.7922Z" fill="#D1D1D1"/>
</g>
<g style="mix-blend-mode:multiply">
<path d="M428.707 80.3982C429.254 81.3241 429.294 82.1653 428.583 82.2599C429.712 82.23 429.602 81.1648 428.707 80.3982Z" fill="#E6E6E6"/>
</g>
<g style="mix-blend-mode:multiply">
<path d="M433.018 75.4155C432.867 75.5164 432.76 75.6714 432.72 75.8486C433.615 77.2473 438.04 76.2568 438.786 74.853C436.603 75.5499 433.018 75.4155 433.018 75.4155Z" fill="#ADADAD"/>
</g>
<path d="M433.371 72.3691C433.038 72.279 432.752 72.0654 432.57 71.7717C432.586 71.9429 432.641 72.1081 432.732 72.2542C432.823 72.4002 432.946 72.5231 433.092 72.613C433.187 72.613 433.371 72.3691 433.371 72.3691Z" fill="#171717"/>
<path d="M433.804 72.4637C432.273 71.9311 432.591 70.6518 432.591 70.6518C436.325 70.4826 438.558 73.6385 438.787 74.8381C437.223 73.8573 435.551 73.0606 433.804 72.4637Z" fill="#171717"/>
<path d="M433.491 71.6025C432.95 72.796 432.787 74.1266 433.024 75.4155C434.018 76.5554 437.618 76.3713 438.792 74.8381C438.095 73.3597 435.445 71.6225 433.491 71.6025Z" fill="white"/>
<mask id="mask4_4114_614" style="mask-type:luminance" maskUnits="userSpaceOnUse" x="432" y="71" width="7" height="6">
<path d="M433.491 71.6025C432.95 72.796 432.787 74.1266 433.024 75.4155C434.018 76.5554 437.618 76.3713 438.792 74.8381C438.095 73.3597 435.445 71.6225 433.491 71.6025Z" fill="white"/>
</mask>
<g mask="url(#mask4_4114_614)">
<path d="M435.977 71.717C437.007 73.9769 435.48 76.3911 434.485 76.5554C433.491 76.7197 432.357 76.3513 432.263 76.1472C432.168 75.9431 431.552 74.8928 431.552 74.2756C431.636 73.5989 431.786 72.9321 431.999 72.2845C432.281 71.9857 432.587 71.711 432.914 71.4631C432.914 71.4631 433.7 71.2192 433.755 71.2192H435.306L435.977 71.717Z" fill="#465C2C"/>
</g>
<g style="mix-blend-mode:screen">
<path d="M437.404 74.2208C437.404 74.6539 436.936 75.0073 436.36 75.0073C435.783 75.0073 435.315 74.6539 435.315 74.2208C435.315 73.7877 435.783 73.4343 436.36 73.4343C436.936 73.4343 437.404 73.7877 437.404 74.2208Z" fill="#505050"/>
</g>
<g style="mix-blend-mode:multiply">
<path d="M433.491 71.6025C433.177 72.2389 432.992 72.9306 432.944 73.6384C433.605 73.4194 435.858 72.8968 438.791 74.8381C438.095 73.3597 435.445 71.6225 433.491 71.6025ZM422.551 73.8077C422.42 73.919 422.331 74.0717 422.298 74.2408C423.064 75.6395 426.853 74.6489 427.494 73.2452C425.605 73.9421 422.551 73.8077 422.551 73.8077Z" fill="#ADADAD"/>
</g>
<path d="M422.835 70.761C422.537 70.658 422.292 70.444 422.148 70.1637C422.156 70.3283 422.201 70.4891 422.278 70.6346C422.355 70.78 422.464 70.9065 422.596 71.0049C422.676 71.0049 422.835 70.761 422.835 70.761ZM423.203 70.8556C422.844 70.7244 422.543 70.4708 422.353 70.1393C422.163 69.8079 422.096 69.4198 422.163 69.0437C425.361 68.8744 427.265 72.0303 427.474 73.23C426.155 72.2623 424.72 71.4646 423.203 70.8556Z" fill="#171717"/>
<path d="M422.934 69.9946C422.472 71.2092 422.333 72.5231 422.531 73.8076C423.366 74.9475 426.464 74.7633 427.474 73.2302C426.882 71.7518 424.609 70.0145 422.934 69.9946Z" fill="white"/>
<mask id="mask5_4114_614" style="mask-type:luminance" maskUnits="userSpaceOnUse" x="422" y="69" width="6" height="6">
<path d="M422.934 69.9946C422.472 71.2092 422.333 72.5231 422.531 73.8076C423.366 74.9475 426.464 74.7633 427.474 73.2302C426.882 71.7518 424.609 70.0145 422.934 69.9946Z" fill="white"/>
</mask>
<g mask="url(#mask5_4114_614)">
<path d="M425.037 70.1092C425.917 72.3691 424.624 74.7833 423.774 74.9476C422.923 75.1119 421.954 74.7435 421.874 74.5394C421.575 73.9514 421.37 73.3198 421.268 72.6678C421.339 71.9945 421.467 71.3284 421.65 70.6767C421.885 70.3784 422.147 70.1019 422.431 69.8504C422.431 69.8504 423.102 69.6064 423.152 69.6064H424.48L425.037 70.1092Z" fill="#465C2C"/>
</g>
<g style="mix-blend-mode:screen">
<path d="M426.29 72.613C426.315 72.7958 426.283 72.9816 426.199 73.1457C426.115 73.3098 425.983 73.4443 425.82 73.5313C425.658 73.6182 425.473 73.6536 425.29 73.6325C425.107 73.6114 424.935 73.535 424.796 73.4133C424.658 73.2917 424.56 73.1307 424.515 72.9518C424.471 72.7729 424.482 72.5847 424.547 72.4122C424.612 72.2397 424.728 72.0912 424.88 71.9866C425.031 71.8819 425.211 71.8261 425.395 71.8265C425.618 71.8142 425.836 71.8896 426.003 72.0367C426.171 72.1838 426.274 72.3907 426.29 72.613Z" fill="#505050"/>
</g>
<g style="mix-blend-mode:multiply">
<path d="M422.934 69.9946C422.664 70.6416 422.505 71.3302 422.467 72.0305C423.029 71.8115 424.953 71.2889 427.474 73.2302C426.882 71.7518 424.61 70.0145 422.934 69.9946Z" fill="#ADADAD"/>
</g>
<g style="mix-blend-mode:multiply">
<path d="M451.147 74.4098C448.403 72.2196 444.539 74.5592 444.539 79.5867C444.798 78.1351 445.492 76.7967 446.528 75.7488C447.358 76.4706 447.1 78.402 446.578 79.0441C447.053 78.5415 447.363 77.9041 447.463 77.2191C447.564 76.534 447.451 75.8346 447.14 75.2162C447.695 74.7706 448.348 74.4648 449.045 74.3245C449.743 74.1842 450.464 74.2134 451.147 74.4098Z" fill="#E6E6E6"/>
</g>
<g style="mix-blend-mode:multiply">
<path d="M443.809 81.1003C445.529 84.0172 451.805 80.4283 451.879 75.4156C451.954 70.403 445.529 70.632 444.112 76.1673C444.003 76.4285 443.84 76.6635 443.634 76.8566C443.427 77.0497 443.182 77.1966 442.914 77.2873C443.779 75.0572 441.735 70.3482 438.255 67.9241C441.193 83.9127 435.038 91.4092 427.156 92.9125C431.413 94.1072 442.839 88.3529 443.809 81.1003Z" fill="#E6E6E6"/>
</g>
<path d="M108.044 185.101C127.901 165.222 127.901 132.992 108.044 113.113C88.1862 93.2347 55.991 93.2347 36.1337 113.113C16.2763 132.992 16.2763 165.222 36.1337 185.101C55.991 204.98 88.1862 204.98 108.044 185.101Z" fill="#E5BFFD"/>
<path d="M67.9232 164.154C81.5498 164.154 92.5963 153.096 92.5963 139.455C92.5963 125.813 81.5498 114.755 67.9232 114.755C54.2965 114.755 43.25 125.813 43.25 139.455C43.25 153.096 54.2965 164.154 67.9232 164.154Z" fill="#1A1611"/>
<path d="M62.6324 170.78C63.9202 166.459 63.9202 164.438 63.9202 164.438L81.4431 172.069C79.7922 175.19 81.1248 176.181 81.1248 176.181L83.3724 179.974C83.3724 179.974 81.995 182.363 81.5375 182.726C81.0801 183.09 67.023 185.579 67.023 185.579L62.5479 175.743L62.6324 170.78Z" fill="#755535"/>
<g style="mix-blend-mode:multiply">
<path d="M63.7559 165.991C63.8462 165.478 63.901 164.959 63.92 164.438L81.4428 172.069C79.7919 175.19 81.1245 176.181 81.1245 176.181L81.4179 176.678C79.6477 176.813 77.5593 176.375 75.0632 174.732C71.2891 172.233 64.7752 169.904 63.7559 165.991Z" fill="#E8E8E8"/>
</g>
<path d="M81.9405 132.909C84.1433 136.717 86.53 141.192 86.6195 143.676C86.709 146.16 86.0726 149.973 87.3554 152.536C88.6383 155.1 88.9168 159.142 87.3554 164.11C85.7941 169.077 86.3013 172.532 83.9145 173.692C81.5278 174.852 78.4051 175.683 73.9946 172.796C69.584 169.909 61.464 167.201 62.6574 161.979C63.8508 156.757 62.7519 151.028 63.1149 150.799C65.6856 149.39 65.3226 148.066 64.7707 143.83C64.2188 139.594 66.1481 135.866 68.1669 137.04C70.1857 138.215 79.3449 139.206 81.9405 132.909Z" fill="#755535"/>
<path d="M94.307 177.4C93.6457 179.112 94.0336 186.33 94.7645 194.618C97.9884 193.016 101.032 191.073 103.844 188.824C99.5728 181.278 95.2767 174.906 94.307 177.4Z" fill="#607038"/>
<path d="M93.2772 195.335L92.3822 184.041L86.4601 176.574L86.2562 180.85L76.8086 182.089L62.7466 180.198L59.8576 174.548L57.7891 183.369L59.7283 198.451C70.9323 201.337 82.7891 200.243 93.2772 195.355V195.335Z" fill="#F2F2F2"/>
<path d="M94.3067 177.4C92.7843 176.747 91.1772 176.313 89.5332 176.111C89.5332 176.111 92.1039 188.152 92.1039 188.521C92.1039 188.69 92.3675 192.08 92.6459 195.639C94.7421 194.701 96.7723 193.622 98.7222 192.408C97.494 186.087 95.8631 180.616 94.3067 177.4Z" fill="#6E853E"/>
<path d="M90.3591 175.837C88.4348 175.145 86.0928 175.698 86.0928 175.698L86.4359 176.594C88.9221 183.453 90.7072 190.268 90.9409 196.356C92.9475 195.558 94.9007 194.632 96.7885 193.583C95.7194 187.167 91.0254 176.171 90.3591 175.837Z" fill="#998E53"/>
<g style="mix-blend-mode:multiply">
<path d="M81.8662 199.029L78.828 188.077L82.7512 184.528L87.6739 189.939C87.6739 189.939 88.569 187.664 87.848 183.563L79.5291 182.069L77.9628 181.94L76.7943 182.094L72.1898 181.462L66.2577 180.964L65.8848 180.591L62.7472 180.198L60.7234 176.215C60.3455 176.011 60.0571 175.937 59.9229 176.066C60.3853 180.616 67.4063 193.528 71.3097 198.904L76.2821 189.252C76.2821 189.252 78.3506 193.299 78.3506 193.528C78.3506 193.598 77.9529 196.102 77.4109 199.721C78.9076 199.561 80.3993 199.322 81.8662 199.029Z" fill="#E8E8E8"/>
</g>
<path d="M79.275 193.344C79.275 193.344 78.9021 195.893 78.375 199.581C80.2912 199.34 82.1921 198.989 84.0684 198.531C83.3773 195.624 82.7806 193.304 82.4076 192.174L81.7314 190.91L79.454 189.989L79.275 193.344Z" fill="#4A6EB0"/>
<path d="M82.8558 184.075C83.4425 187.177 82.4082 192.174 82.4082 192.174C81.374 191.139 79.8276 192.448 79.2756 193.344C77.4855 190.761 75.7949 186.415 75.7949 186.415L79.3452 180.89L82.8558 184.075Z" fill="#527AC4"/>
<g style="mix-blend-mode:multiply">
<path d="M79.2756 193.344C77.5502 190.855 75.9292 186.753 75.7949 186.445L75.8546 186.305L79.3353 180.89C77.8436 187.46 80.5734 190.138 82.3983 192.174C81.374 191.149 79.8276 192.448 79.2756 193.344Z" fill="#DEDEDE"/>
</g>
<path d="M79.3447 180.89C81.2691 183.488 88.4343 188.655 88.4343 188.655C88.7078 187.694 87.5741 177.56 86.4453 176.594C85.9929 176.211 81.1447 176.181 81.1447 176.181C81.7514 178.938 80.2398 180.915 79.3447 180.89Z" fill="#F2F2F2"/>
<path d="M64.1892 199.332C61.9765 193.513 59.5102 187.047 59.5102 187.047L56.9643 177.211C52.1411 179.347 46.3581 181.621 44.9112 182.861C44.4786 183.234 44.0509 186.684 43.6631 191.323C49.8336 195.471 56.8421 198.206 64.1892 199.332Z" fill="#6E853E"/>
<path d="M37.7305 186.554C41.2753 189.817 45.2649 192.559 49.5798 194.698C49.2615 189.66 48.451 185.121 47.1184 182.726C43.3941 180.695 40.2962 182.642 37.7305 186.554Z" fill="#607038"/>
<path d="M64.6765 195.206C60.6985 187.416 58.4112 179.277 59.8582 174.528C58.5741 174.975 57.4488 175.788 56.6211 176.868C55.1294 182.234 55.4327 191.433 56.7007 197.625C59.9381 198.65 63.2695 199.348 66.6455 199.711C66.069 198.175 65.4117 196.672 64.6765 195.206Z" fill="#998E53"/>
<path d="M59.858 174.528C60.5955 173.15 61.5302 171.887 62.6326 170.78C64.5619 176.664 73.925 181.626 79.3449 180.89C78.241 184.937 71.9957 195.873 71.9957 195.873C68.142 191.92 59.3757 179.466 59.858 174.528Z" fill="#F2F2F2"/>
<g style="mix-blend-mode:multiply">
<path d="M71.717 192.986C72.0218 192.986 72.2689 192.738 72.2689 192.433C72.2689 192.128 72.0218 191.881 71.717 191.881C71.4122 191.881 71.165 192.128 71.165 192.433C71.165 192.738 71.4122 192.986 71.717 192.986Z" fill="#DEDEDE"/>
</g>
<path d="M71.001 192.309C71 192.418 71.0315 192.526 71.0916 192.617C71.1516 192.709 71.2375 192.78 71.3383 192.823C71.439 192.865 71.5501 192.877 71.6575 192.856C71.7649 192.836 71.8637 192.783 71.9414 192.706C72.0191 192.629 72.0722 192.531 72.0939 192.423C72.1156 192.316 72.1049 192.205 72.0633 192.103C72.0217 192.002 71.951 191.916 71.8601 191.855C71.7692 191.794 71.6623 191.761 71.5529 191.761C71.4074 191.761 71.2678 191.819 71.1644 191.921C71.061 192.024 71.0023 192.163 71.001 192.309Z" fill="#C2DAF2"/>
<g style="mix-blend-mode:multiply">
<path d="M86.873 186.012C86.873 186.103 86.9002 186.193 86.951 186.269C87.0018 186.345 87.074 186.404 87.1585 186.439C87.243 186.474 87.336 186.484 87.4257 186.466C87.5154 186.448 87.5978 186.404 87.6625 186.339C87.7271 186.274 87.7712 186.192 87.789 186.102C87.8069 186.012 87.7977 185.919 87.7627 185.835C87.7277 185.75 87.6684 185.678 87.5924 185.627C87.5164 185.576 87.4269 185.549 87.3355 185.549C87.2128 185.549 87.0952 185.598 87.0085 185.684C86.9218 185.771 86.873 185.889 86.873 186.012Z" fill="#DEDEDE"/>
</g>
<path d="M87.2066 186.375C87.462 186.375 87.669 186.168 87.669 185.912C87.669 185.656 87.462 185.449 87.2066 185.449C86.9512 185.449 86.7441 185.656 86.7441 185.912C86.7441 186.168 86.9512 186.375 87.2066 186.375Z" fill="#C2DAF2"/>
<path d="M62.3843 157.887C62.8319 154.049 61.2705 147.673 57.5959 148.315C53.9213 148.957 53.2848 153.472 55.6915 156.06C58.0981 158.649 62.27 158.903 62.3843 157.887Z" fill="#755535"/>
<g style="mix-blend-mode:multiply">
<path d="M55.209 151.824C57.6306 147.18 61.6731 151.56 61.4195 156.737C60.6438 153.069 58.4609 154.96 58.6648 155.702C58.1328 154.403 59.5599 153.114 60.6538 154.298C60.1665 151.824 57.8593 148.186 55.209 151.824Z" fill="#E3E3E3"/>
</g>
<path d="M76.5403 144.218C76.5901 146.812 74.0193 147.703 70.8519 147.703C67.6845 147.703 66.4911 150.57 66.6253 150.192C67.2717 145.891 68.6491 145.353 76.5403 144.218Z" fill="#1A1611"/>
<g style="mix-blend-mode:screen">
<path d="M81.7514 156.693C82.9846 156.892 83.5216 157.843 81.294 158.121C79.0663 158.4 80.3094 156.464 81.7514 156.693Z" fill="#2B2B2B"/>
</g>
<g style="mix-blend-mode:multiply">
<path d="M78.46 159.988C78.8678 159.794 80.1258 159.754 79.8623 159.376C79.5987 158.997 78.9573 159.436 78.46 159.988ZM77.5551 158.495C76.5606 160.063 77.4208 160.396 78.0523 160.396C76.3617 160.536 76.2722 159.62 77.5551 158.495ZM80.4788 148.917C80.1109 151.327 79.9816 153.213 80.8021 154.055C81.6225 154.896 84.5662 156.663 84.2828 157.828C84.1549 158.253 83.8998 158.628 83.5518 158.903C83.8203 159.54 83.0546 159.814 83.0546 159.814C83.343 159.525 83.2435 159.316 83.154 159.221C82.6164 159.592 82.0264 159.881 81.4037 160.078C82.8258 159.356 84.0192 158.151 83.1938 157.091C82.3684 156.031 80.2998 154.965 80.0264 153.641C79.3849 150.61 80.4788 148.917 80.4788 148.917Z" fill="#DEDEDE"/>
</g>
<path d="M75.8993 149.649C76.2225 151.307 73.9451 151.74 72.9158 152.093C71.8865 152.447 71.3346 153.178 70.3252 152.944C70.9533 152.017 71.779 151.24 72.7428 150.671C73.7066 150.101 74.7846 149.752 75.8993 149.649Z" fill="#212121"/>
<path d="M75.6899 150.142C76.0131 151.799 75.7844 153.338 74.775 153.691C73.7656 154.044 70.8716 153.731 70.2998 152.944C72.433 150.973 73.7656 150.261 75.6899 150.142Z" fill="#F2F2F2"/>
<g style="mix-blend-mode:screen">
<path d="M73.7314 152.292C73.7314 152.476 74.0447 152.626 74.4276 152.626C74.8105 152.626 75.1287 152.476 75.1287 152.292C75.1287 152.108 74.8154 151.958 74.4276 151.958C74.0397 151.958 73.7314 152.108 73.7314 152.292Z" fill="#2B2B2B"/>
</g>
<g style="mix-blend-mode:multiply">
<path d="M75.6905 150.142C75.7909 150.633 75.8359 151.134 75.8248 151.635C74.9646 151.491 73.1993 151.521 70.3203 152.964C72.4336 150.973 73.7662 150.261 75.6905 150.142Z" fill="#DEDEDE"/>
</g>
<path d="M85.5101 147.698C85.7886 149.355 83.8096 149.788 82.9294 150.142C82.0493 150.495 81.5471 151.227 80.667 150.993C81.9698 148.902 83.8294 147.842 85.5101 147.698Z" fill="#212121"/>
<path d="M85.3265 148.191C85.6099 149.848 85.4061 151.386 84.5309 151.74C83.6558 152.093 81.1298 151.78 80.6475 150.993C82.4873 149.022 83.6508 148.31 85.3265 148.191Z" fill="#F2F2F2"/>
<g style="mix-blend-mode:screen">
<path d="M83.6064 150.431C83.6064 150.615 83.8799 150.764 84.2181 150.764C84.5562 150.764 84.8247 150.615 84.8247 150.431C84.8247 150.247 84.5512 150.092 84.2181 150.092C83.8849 150.092 83.6064 150.247 83.6064 150.431Z" fill="#2B2B2B"/>
</g>
<g style="mix-blend-mode:multiply">
<path d="M85.3265 148.191C85.4147 148.683 85.4547 149.184 85.4459 149.684C84.695 149.54 83.1585 149.57 80.6475 151.013C82.4873 149.022 83.6508 148.31 85.3265 148.191Z" fill="#DEDEDE"/>
</g>
<path d="M79.8867 143.452C80.1701 145.891 83.6956 144.91 84.5509 144.447C85.4061 143.984 86.1619 144.821 86.1619 144.821C86.0277 141.147 82.1044 142.616 79.8867 143.452Z" fill="#1A1611"/>
<path d="M84.4858 162.417C81.0847 164.622 73.9244 163.98 71.9951 162.875C74.4813 165.727 77.3454 168.849 82.3029 167.853C82.7853 165.633 84.4858 162.417 84.4858 162.417Z" fill="#853025"/>
<path d="M73.4873 164.508C74.355 164.433 75.2191 164.687 75.9089 165.22C77.0127 164.762 79.9962 166.001 79.7675 166.643C79.5885 167.141 78.3404 167.455 77.8083 167.564C76.1523 166.892 74.6736 165.846 73.4873 164.508Z" fill="#E04C4C"/>
<path d="M79.5283 165.265C77.3405 165.265 73.6808 163.662 72.4327 163.084C74.8344 164.05 81.3035 164.478 84.4858 162.417C84.4858 162.417 82.1886 165.265 79.5283 165.265ZM74.7548 165.722C78.4344 167.569 79.8714 167.062 79.6875 166.325C79.4786 165.494 81.5471 166.529 82.3029 167.818C79.046 168.505 76.6941 167.38 74.7548 165.722Z" fill="white"/>
<g style="mix-blend-mode:multiply">
<path d="M82.7412 168.251C80.7522 169.033 77.8732 168.575 77.4157 168.301C80.3096 169.769 82.3732 169.859 82.7412 168.251ZM75.8991 165.22C76.814 164.836 79.0119 165.623 79.6135 166.27C78.7135 165.668 76.7593 165.055 76.0881 165.274C76.207 165.527 76.26 165.807 76.2422 166.086C76.1079 165.588 75.1234 164.757 73.4775 164.513C74.3446 164.437 75.2086 164.689 75.8991 165.22Z" fill="#EBEBEB"/>
</g>
<g style="mix-blend-mode:screen">
<path d="M77.4151 165.493C78.2704 165.702 78.2256 166.22 77.3455 165.941C76.4654 165.663 76.7786 165.339 77.4151 165.493Z" fill="#3B3B3B"/>
</g>
<path d="M75.6001 146.264C75.9635 146.111 76.2719 145.851 76.4849 145.519C76.6979 145.186 76.8055 144.797 76.7935 144.403C77.072 145.712 75.6598 146.722 75.083 146.747C74.5062 146.772 75.6001 146.264 75.6001 146.264ZM80.9455 144.562C79.9112 144.263 79.6825 143.711 79.6825 143.711C79.7999 144.079 80.0417 144.396 80.3664 144.605C80.6912 144.815 81.0787 144.905 81.4626 144.861C81.6714 144.771 80.9455 144.562 80.9455 144.562Z" fill="#1A1611"/>
<path d="M85.4756 170.83C84.9237 172.084 84.1182 170.83 83.9193 170.078C83.7204 169.326 81.6121 169.874 80.6574 170.476C79.7027 171.079 79.1656 173.961 76.6794 172.467C74.1932 170.974 65.3473 166.19 65.7948 163.079C66.2224 160.147 65.2279 153.393 64.6114 149.505C64.2066 150.048 63.6781 150.487 63.0699 150.784C62.7069 151.033 63.8058 156.758 62.6124 161.964C61.4191 167.171 69.544 169.884 73.9496 172.781C78.3551 175.678 81.4828 174.837 83.8695 173.677C86.2563 172.517 85.7491 169.068 87.3105 164.095C86.5298 164.936 86.0276 169.575 85.4756 170.83Z" fill="#29231B"/>
<path d="M87.3304 164.115C88.0464 162.074 85.774 160.346 82.6911 160.78C81.3921 161.005 80.0674 161.042 78.7579 160.889C70.3048 159.595 66.8241 163.94 70.6827 169.675C71.1302 171.283 73.1391 170.929 73.1391 170.929C71.6474 167.415 69.9766 163.801 72.1446 162.547C74.3126 161.292 78.7132 163.044 81.6718 162.343C84.6303 161.641 86.6442 162.243 86.8381 165.155C86.9819 164.799 87.1463 164.452 87.3304 164.115Z" fill="#29231B"/>
<path d="M240.804 239.324H461.978C462.995 239.323 463.997 239.565 464.902 240.029C465.808 240.494 466.589 241.168 467.182 241.995C467.775 242.822 468.163 243.779 468.313 244.786C468.462 245.793 468.37 246.822 468.044 247.786L415.336 404.367H173.796L225.643 250.215C226.711 247.038 228.749 244.277 231.47 242.322C234.19 240.368 237.456 239.319 240.804 239.324Z" fill="#E8EBFF"/>
<path d="M181.523 398.802L230.924 251.987C231.623 249.917 232.951 248.119 234.724 246.844C236.496 245.569 238.622 244.882 240.805 244.879H461.978C462.113 244.876 462.247 244.907 462.367 244.97C462.487 245.032 462.589 245.124 462.664 245.237C462.746 245.345 462.8 245.472 462.821 245.605C462.841 245.739 462.829 245.876 462.784 246.004L411.369 398.822L181.523 398.802Z" fill="#9521E3"/>
<path d="M415.575 393.242H82.6469C81.6171 393.242 80.7822 394.077 80.7822 395.108V412.222C80.7822 413.253 81.6171 414.089 82.6469 414.089H415.575C416.605 414.089 417.44 413.253 417.44 412.222V395.108C417.44 394.077 416.605 393.242 415.575 393.242Z" fill="white"/>
<path d="M407.768 397.065H208.453C207.904 397.065 207.459 397.51 207.459 398.06V407.19C207.459 407.739 207.904 408.185 208.453 408.185H407.768C408.317 408.185 408.763 407.739 408.763 407.19V398.06C408.763 397.51 408.317 397.065 407.768 397.065Z" fill="#E8EBFF"/>
<g style="mix-blend-mode:multiply">
<path d="M405.068 403.491H346.17C345.758 403.491 345.424 403.825 345.424 404.238V411.082C345.424 411.494 345.758 411.829 346.17 411.829H405.068C405.48 411.829 405.814 411.494 405.814 411.082V404.238C405.814 403.825 405.48 403.491 405.068 403.491Z" fill="#EBEBEB"/>
</g>
<path d="M462.664 245.237L462.818 245.65C462.805 245.501 462.752 245.358 462.664 245.237ZM462.664 245.237C462.589 245.124 462.487 245.032 462.367 244.97C462.247 244.907 462.113 244.876 461.978 244.879H240.804C238.622 244.882 236.495 245.569 234.723 246.844C232.951 248.119 231.622 249.917 230.924 251.987L183.119 394.058L462.664 245.237Z" fill="#A125F7"/>
<path d="M246.936 288.854V305.764H251.929C254.483 305.764 256.264 304.505 257.272 301.985C257.823 300.602 258.098 298.956 258.098 297.046C258.098 294.409 257.682 292.387 256.85 290.981C256.03 289.563 254.389 288.854 251.929 288.854H246.936ZM252.843 284.354C254.448 284.378 255.784 284.565 256.85 284.917C258.667 285.514 260.137 286.61 261.262 288.204C262.165 289.493 262.78 290.887 263.108 292.387C263.436 293.887 263.6 295.317 263.6 296.677C263.6 300.122 262.909 303.04 261.526 305.43C259.651 308.653 256.757 310.264 252.843 310.264H241.68V284.354H252.843ZM272.284 291.104V302.653C272.284 303.743 272.413 304.563 272.671 305.114C273.128 306.087 274.024 306.573 275.36 306.573C277.071 306.573 278.243 305.882 278.876 304.499C279.204 303.749 279.368 302.759 279.368 301.528V291.104H284.448V310.264H279.579V307.557C279.532 307.616 279.415 307.792 279.227 308.085C279.04 308.378 278.817 308.635 278.559 308.858C277.774 309.561 277.012 310.042 276.274 310.3C275.548 310.557 274.692 310.686 273.708 310.686C270.872 310.686 268.962 309.667 267.977 307.628C267.427 306.503 267.151 304.844 267.151 302.653V291.104H272.284ZM299.864 300.948C299.548 301.147 299.225 301.311 298.897 301.44C298.581 301.557 298.141 301.669 297.579 301.774L296.454 301.985C295.399 302.173 294.643 302.401 294.186 302.671C293.413 303.128 293.026 303.837 293.026 304.798C293.026 305.653 293.261 306.274 293.729 306.661C294.21 307.036 294.79 307.223 295.47 307.223C296.548 307.223 297.538 306.907 298.44 306.274C299.354 305.641 299.829 304.487 299.864 302.811V300.948ZM296.823 298.61C297.749 298.493 298.411 298.346 298.809 298.171C299.524 297.866 299.882 297.391 299.882 296.747C299.882 295.962 299.606 295.423 299.055 295.13C298.516 294.825 297.72 294.673 296.665 294.673C295.481 294.673 294.643 294.966 294.151 295.552C293.8 295.985 293.565 296.571 293.448 297.309H288.614C288.72 295.634 289.188 294.257 290.02 293.178C291.345 291.491 293.618 290.647 296.841 290.647C298.938 290.647 300.802 291.063 302.43 291.895C304.059 292.727 304.874 294.298 304.874 296.606V305.395C304.874 306.005 304.886 306.743 304.909 307.61C304.944 308.266 305.044 308.712 305.208 308.946C305.372 309.18 305.618 309.374 305.946 309.526V310.264H300.497C300.345 309.878 300.239 309.514 300.18 309.175C300.122 308.835 300.075 308.448 300.04 308.014C299.348 308.764 298.552 309.403 297.649 309.93C296.571 310.552 295.352 310.862 293.993 310.862C292.259 310.862 290.823 310.37 289.686 309.385C288.561 308.389 287.999 306.983 287.999 305.167C287.999 302.811 288.907 301.106 290.723 300.052C291.72 299.477 293.184 299.067 295.118 298.821L296.823 298.61ZM314.454 310.264H309.444V284.354H314.454V310.264ZM324.509 288.819H319.429V284.196H324.509V288.819ZM319.429 291.104H324.509V310.264H319.429V291.104ZM327.409 294.848V291.28H330.081V285.936H335.038V291.28H338.149V294.848H335.038V304.973C335.038 305.759 335.137 306.251 335.337 306.45C335.536 306.637 336.145 306.731 337.165 306.731C337.317 306.731 337.475 306.731 337.639 306.731C337.815 306.719 337.985 306.708 338.149 306.696V310.44L335.776 310.528C333.409 310.61 331.792 310.2 330.925 309.298C330.362 308.723 330.081 307.839 330.081 306.643V294.848H327.409ZM342.139 313.938L342.772 313.973C343.264 313.997 343.733 313.979 344.179 313.921C344.624 313.862 344.999 313.727 345.304 313.516C345.596 313.317 345.866 312.901 346.112 312.268C346.37 311.635 346.475 311.249 346.429 311.108L339.397 291.104H344.97L349.153 305.237L353.108 291.104H358.434L351.86 309.948C350.595 313.581 349.593 315.831 348.854 316.698C348.116 317.577 346.639 318.016 344.425 318.016C343.979 318.016 343.622 318.01 343.352 317.999C343.083 317.999 342.679 317.981 342.139 317.946V313.938ZM377.577 300.473H384.151L380.917 290.278L377.577 300.473ZM377.911 284.354H384.028L393.204 310.264H387.333L385.663 304.938H376.118L374.325 310.264H368.665L377.911 284.354ZM401.466 310.264H396.087V284.354H401.466V310.264ZM254.952 338.52C254.952 333.997 256.165 330.51 258.591 328.061C260.7 325.928 263.384 324.862 266.641 324.862C271.001 324.862 274.188 326.292 276.204 329.151C277.317 330.757 277.915 332.368 277.997 333.985H272.583C272.231 332.743 271.78 331.805 271.229 331.173C270.245 330.048 268.786 329.485 266.852 329.485C264.884 329.485 263.331 330.282 262.194 331.876C261.057 333.458 260.489 335.702 260.489 338.608C260.489 341.514 261.087 343.694 262.282 345.147C263.489 346.589 265.018 347.309 266.87 347.309C268.768 347.309 270.216 346.688 271.212 345.446C271.762 344.778 272.22 343.776 272.583 342.44H277.944C277.475 345.264 276.274 347.561 274.341 349.331C272.419 351.1 269.952 351.985 266.94 351.985C263.214 351.985 260.284 350.79 258.151 348.399C256.018 345.997 254.952 342.704 254.952 338.52ZM292.253 331.612C293.436 331.612 294.509 331.817 295.47 332.227C296.442 332.637 297.239 333.264 297.86 334.108C298.387 334.823 298.71 335.561 298.827 336.323C298.944 337.073 299.003 338.303 299.003 340.014V351.264H293.887V339.61C293.887 338.579 293.712 337.747 293.36 337.114C292.903 336.223 292.036 335.778 290.759 335.778C289.434 335.778 288.427 336.223 287.735 337.114C287.055 337.993 286.716 339.253 286.716 340.893V351.264H281.723V325.442H286.716V334.6C287.442 333.487 288.28 332.714 289.229 332.28C290.19 331.835 291.198 331.612 292.253 331.612ZM314.261 341.948C313.944 342.147 313.622 342.311 313.294 342.44C312.977 342.557 312.538 342.669 311.975 342.774L310.85 342.985C309.796 343.173 309.04 343.401 308.583 343.671C307.809 344.128 307.423 344.837 307.423 345.798C307.423 346.653 307.657 347.274 308.126 347.661C308.606 348.036 309.186 348.223 309.866 348.223C310.944 348.223 311.934 347.907 312.837 347.274C313.751 346.641 314.225 345.487 314.261 343.811V341.948ZM311.22 339.61C312.145 339.493 312.807 339.346 313.206 339.171C313.921 338.866 314.278 338.391 314.278 337.747C314.278 336.962 314.003 336.423 313.452 336.13C312.913 335.825 312.116 335.673 311.061 335.673C309.878 335.673 309.04 335.966 308.548 336.552C308.196 336.985 307.962 337.571 307.845 338.309H303.011C303.116 336.634 303.585 335.257 304.417 334.178C305.741 332.491 308.014 331.647 311.237 331.647C313.335 331.647 315.198 332.063 316.827 332.895C318.456 333.727 319.27 335.298 319.27 337.606V346.395C319.27 347.005 319.282 347.743 319.305 348.61C319.341 349.266 319.44 349.712 319.604 349.946C319.768 350.18 320.014 350.374 320.343 350.526V351.264H314.893C314.741 350.878 314.636 350.514 314.577 350.175C314.518 349.835 314.471 349.448 314.436 349.014C313.745 349.764 312.948 350.403 312.046 350.93C310.968 351.552 309.749 351.862 308.389 351.862C306.655 351.862 305.22 351.37 304.083 350.385C302.958 349.389 302.395 347.983 302.395 346.167C302.395 343.811 303.304 342.106 305.12 341.052C306.116 340.477 307.581 340.067 309.514 339.821L311.22 339.61ZM321.766 335.848V332.28H324.438V326.936H329.395V332.28H332.507V335.848H329.395V345.973C329.395 346.759 329.495 347.251 329.694 347.45C329.893 347.637 330.503 347.731 331.522 347.731C331.675 347.731 331.833 347.731 331.997 347.731C332.173 347.719 332.343 347.708 332.507 347.696V351.44L330.134 351.528C327.766 351.61 326.149 351.2 325.282 350.298C324.72 349.723 324.438 348.839 324.438 347.643V335.848H321.766ZM346.077 331.682C348.596 331.682 350.565 332.591 351.983 334.407C353.413 336.223 354.128 338.567 354.128 341.438C354.128 344.415 353.425 346.882 352.018 348.839C350.612 350.796 348.649 351.774 346.13 351.774C344.548 351.774 343.276 351.458 342.315 350.825C341.741 350.45 341.12 349.794 340.452 348.856V351.264H335.548V325.389H340.54V334.6C341.173 333.71 341.87 333.03 342.632 332.561C343.534 331.975 344.682 331.682 346.077 331.682ZM344.794 347.643C346.083 347.643 347.085 347.122 347.8 346.079C348.514 345.036 348.872 343.665 348.872 341.966C348.872 340.606 348.696 339.481 348.345 338.591C347.677 336.903 346.446 336.059 344.653 336.059C342.837 336.059 341.589 336.885 340.909 338.538C340.557 339.417 340.382 340.553 340.382 341.948C340.382 343.589 340.745 344.948 341.471 346.026C342.198 347.104 343.305 347.643 344.794 347.643ZM366.327 347.731C367.792 347.731 368.917 347.21 369.702 346.167C370.487 345.124 370.88 343.641 370.88 341.719C370.88 339.798 370.487 338.321 369.702 337.29C368.917 336.247 367.792 335.725 366.327 335.725C364.862 335.725 363.731 336.247 362.934 337.29C362.149 338.321 361.757 339.798 361.757 341.719C361.757 343.641 362.149 345.124 362.934 346.167C363.731 347.21 364.862 347.731 366.327 347.731ZM376.136 341.719C376.136 344.532 375.327 346.94 373.71 348.944C372.093 350.936 369.637 351.932 366.345 351.932C363.052 351.932 360.596 350.936 358.979 348.944C357.362 346.94 356.554 344.532 356.554 341.719C356.554 338.954 357.362 336.557 358.979 334.53C360.596 332.503 363.052 331.489 366.345 331.489C369.637 331.489 372.093 332.503 373.71 334.53C375.327 336.557 376.136 338.954 376.136 341.719ZM377.77 335.848V332.28H380.442V326.936H385.399V332.28H388.511V335.848H385.399V345.973C385.399 346.759 385.499 347.251 385.698 347.45C385.897 347.637 386.507 347.731 387.526 347.731C387.679 347.731 387.837 347.731 388.001 347.731C388.177 347.719 388.346 347.708 388.511 347.696V351.44L386.137 351.528C383.77 351.61 382.153 351.2 381.286 350.298C380.723 349.723 380.442 348.839 380.442 347.643V335.848H377.77Z" fill="white"/>
<path d="M178.684 365.097C176.431 372.917 182.851 384.207 182.851 384.207L162.026 382.644C162.026 382.644 162.374 368.049 162.891 366.835C163.408 365.62 167.963 354.649 167.963 354.649L177.47 356.411L178.684 365.097ZM209.761 383.291C205.286 383.291 199.12 381.3 191 377.318L193.442 372.34C209.234 380.09 212.133 377.258 212.412 376.91C214.401 374.421 210.92 362.081 193.019 339.75L196.311 335.4C206.539 348.148 223.704 371.693 216.757 380.384C215.201 382.295 212.899 383.291 209.761 383.291ZM137.159 376.566C141.291 376.566 146.994 374.864 154.498 371.439L152.24 367.148C137.651 373.808 134.971 371.379 134.717 371.081C132.858 368.915 136.08 358.327 152.618 339.128L149.58 335.39C140.132 346.341 124.27 366.591 130.685 374.067C132.162 375.73 134.265 376.566 137.159 376.566Z" fill="#262A54"/>
<path d="M185.541 370.09C182.244 370.439 177.56 375.347 178.987 375.521C179.44 375.599 179.904 375.585 180.351 375.481C180.799 375.377 181.221 375.184 181.593 374.914C182.199 374.565 184.501 373.087 185.019 372.957C185.536 372.828 185.541 370.09 185.541 370.09Z" fill="#1D2040"/>
<g style="mix-blend-mode:multiply">
<path d="M181.593 374.913L182.14 374.585C181.834 373.709 181.694 372.784 181.727 371.857C179.634 373.405 178.082 375.411 178.987 375.521C179.44 375.599 179.904 375.585 180.351 375.481C180.799 375.376 181.221 375.184 181.593 374.913Z" fill="#D6D6D6"/>
</g>
<path d="M185.625 374.913C181.766 375.61 179.728 377.821 179.032 377.651C178.335 377.482 180.682 372.783 184.76 371.872C187.534 372.265 185.625 374.913 185.625 374.913Z" fill="#262A54"/>
<path d="M186.019 374.869C184.805 375.172 179.162 377.303 179.206 378.214C179.251 379.125 184.87 379.309 187.451 377.084C190.031 374.859 186.019 374.869 186.019 374.869Z" fill="#262A54"/>
<path d="M150.56 332.09C164.786 325.579 189.429 328.267 196.023 335.216C202.616 342.165 182.662 373.087 178.843 368.223C175.024 363.36 168.605 357.974 164.269 361.449C159.933 364.923 159.063 365.431 155.94 362.494C152.817 359.557 144.498 334.872 150.56 332.09Z" fill="#E3E7FF"/>
<g style="mix-blend-mode:multiply">
<path d="M186.406 351.896C183.716 361.016 182.154 367.357 176.958 363.534C173.804 361.242 170.011 359.997 166.113 359.975C166.113 359.975 166.113 360.184 166.143 360.518C170.31 359.423 175.566 364.002 178.868 368.223C182.686 373.087 202.646 342.165 196.047 335.216C191.726 330.661 179.638 327.958 167.824 328.456L167.242 328.531C189.966 332.438 189.096 342.772 186.406 351.896Z" fill="#EBEBEB"/>
</g>
<path d="M170.653 334.952C168.311 337.391 165.149 351.125 166.287 360.488C167.213 360.292 168.171 360.323 169.082 360.578C167.754 351.578 171.335 338.038 172.871 336.436L170.653 334.952Z" fill="#63C7E5"/>
<path d="M168.013 359.796C172.039 359.796 175.303 356.569 175.303 352.588C175.303 348.607 172.039 345.38 168.013 345.38C163.987 345.38 160.724 348.607 160.724 352.588C160.724 356.569 163.987 359.796 168.013 359.796Z" fill="#262A54"/>
<path d="M166.362 326.355C168.351 329.919 165.239 333.22 167.854 335.913C170.47 338.606 181.996 335.041 180.35 326.878C178.684 318.889 166.362 326.355 166.362 326.355Z" fill="#262A54"/>
<g style="mix-blend-mode:multiply">
<path d="M168.57 336.395C172.096 338.043 181.862 334.439 180.335 326.878C180.224 326.357 180.04 325.854 179.788 325.385L172.091 326.285C175.82 331.223 171.613 335.574 168.57 336.395Z" fill="#D1D1D1"/>
</g>
<path d="M166.103 291.874C147.039 293.368 142.31 317.928 144.324 322.015C147.447 328.357 182.761 330.626 191.443 325.056C199.423 319.929 196.644 289.44 166.103 291.874Z" fill="#E3E7FF"/>
<path d="M154.041 303.253C150.868 304.423 148.835 317.062 151.261 317.151C153.688 317.241 160.46 312.98 165.408 314.633C170.355 316.285 181.285 320.606 182.498 318.281C183.711 315.957 183.02 307.684 181.633 305.683C180.245 303.681 165.582 298.997 154.041 303.253Z" fill="#262A54"/>
<path d="M173.224 310.541C174.577 310.84 175.367 312.532 174.98 314.304L174.303 314.155C174.607 312.751 174.055 311.437 173.075 311.223C172.096 311.009 171.046 311.975 170.743 313.378L170.062 313.234C170.45 311.457 171.867 310.247 173.224 310.541ZM158.118 309.391C159.491 309.207 160.808 310.521 161.052 312.323L160.366 312.418C160.172 310.994 159.207 309.929 158.213 310.078C157.218 310.228 156.562 311.482 156.756 312.906L156.065 313C155.821 311.198 156.741 309.575 158.118 309.391Z" fill="#3EB9D9"/>
<g style="mix-blend-mode:screen">
<path d="M181.638 305.683C181.466 305.488 181.267 305.32 181.046 305.185C175.487 310.163 173.378 314.702 172.593 317.131L173.418 317.39C175.054 313.433 178.639 307.933 181.742 305.941C181.712 305.852 181.677 305.742 181.638 305.683ZM163.404 301.551C162.842 301.551 162.275 301.611 161.703 301.656C155.532 306.444 152.549 312.816 151.187 317.117C151.216 317.117 151.236 317.151 151.266 317.151C151.504 317.139 151.74 317.106 151.972 317.052C154.22 311.228 159.078 304.533 163.404 301.551ZM164.552 314.468C166.661 309.267 171.922 304.473 174.587 302.736C173.028 302.357 171.449 302.067 169.858 301.865C165.332 305.018 161.865 309.469 159.913 314.633C161.432 314.261 163.011 314.205 164.552 314.468Z" fill="#121212"/>
</g>
<g style="mix-blend-mode:multiply">
<path d="M178.405 328.038C184.049 327.66 188.892 326.704 191.438 325.051C198.553 320.482 197.096 295.772 175.063 292.198C189.767 300.337 188.414 322.473 178.405 328.038Z" fill="#EBEBEB"/>
</g>
<path d="M193.378 321.492C196.03 321.492 198.181 317.266 198.181 312.054C198.181 306.842 196.03 302.616 193.378 302.616C190.725 302.616 188.574 306.842 188.574 312.054C188.574 317.266 190.725 321.492 193.378 321.492Z" fill="#E8EBFF"/>
<path d="M194.725 321.158C197.378 321.158 199.529 317.082 199.529 312.054C199.529 307.026 197.378 302.95 194.725 302.95C192.072 302.95 189.922 307.026 189.922 312.054C189.922 317.082 192.072 321.158 194.725 321.158Z" fill="#262A54"/>
<path d="M193.378 321.492C196.03 321.492 198.181 317.266 198.181 312.054C198.181 306.842 196.03 302.616 193.378 302.616C190.725 302.616 188.574 306.842 188.574 312.054C188.574 317.266 190.725 321.492 193.378 321.492Z" fill="#E8EBFF"/>
<path d="M194.725 321.158C197.378 321.158 199.529 317.082 199.529 312.054C199.529 307.026 197.378 302.95 194.725 302.95C192.072 302.95 189.922 307.026 189.922 312.054C189.922 317.082 192.072 321.158 194.725 321.158Z" fill="#262A54"/>
<g style="mix-blend-mode:screen">
<path d="M167.491 293.437C160.709 290.63 147.537 300.904 155.866 301.083C164.194 301.262 177.56 297.609 167.491 293.437ZM160.376 330.268C151.699 331.034 147.537 342.862 151.962 349.636C156.388 356.411 157.283 344.255 160.55 341.209C165.477 336.61 171.136 329.312 160.376 330.268Z" fill="#545454"/>
</g>
<path d="M185.81 370.036C185.583 370.09 185.369 370.189 185.18 370.326C184.992 370.463 184.832 370.637 184.71 370.836C184.589 371.035 184.508 371.257 184.472 371.488C184.436 371.719 184.447 371.954 184.502 372.181C185.233 374.949 186.491 377.159 187.983 377.691C189.718 378.299 195.615 379.683 195.267 375.7C194.939 372.042 191.503 368.607 185.81 370.036Z" fill="#E3E7FF"/>
<g style="mix-blend-mode:multiply">
<path d="M195.257 375.695C195.156 374.643 194.801 373.632 194.222 372.748C195.58 376.367 190.359 378.801 185.411 374.739C186.112 376.232 186.997 377.362 187.972 377.726C189.707 378.313 195.605 379.692 195.257 375.695Z" fill="#EBEBEB"/>
</g>
<g style="mix-blend-mode:multiply">
<path d="M182.657 375.824C182.262 375.028 181.983 374.18 181.826 373.306C179.638 375.018 178.529 377.502 179.032 377.631C179.534 377.761 180.682 376.725 182.657 375.824Z" fill="#D6D6D6"/>
</g>
<g style="mix-blend-mode:multiply">
<path d="M179.206 378.214C179.236 378.851 182.011 379.11 184.552 378.453C183.824 377.761 183.217 376.952 182.757 376.059C180.972 376.82 179.181 377.696 179.206 378.214Z" fill="#D6D6D6"/>
</g>
<path d="M112.844 423.796C114.5 419.948 110.244 413.462 98.086 412.143C97.2828 412.052 96.4696 412.123 95.6939 412.35C94.9181 412.577 94.1953 412.957 93.5674 413.466C92.9395 413.976 92.419 414.605 92.0364 415.318C91.6537 416.031 91.4165 416.813 91.3385 417.618V417.762C91.2243 419.196 91.624 420.624 92.4659 421.79C93.3078 422.956 94.537 423.783 95.933 424.124C102.691 425.851 111.546 426.812 112.844 423.796Z" fill="#D1D5F5"/>
<g style="mix-blend-mode:multiply">
<path d="M95.9678 412.307C94.7354 412.598 93.6255 413.269 92.7949 414.225C91.9642 415.182 91.4547 416.376 91.3385 417.638V417.782C91.2243 419.216 91.624 420.644 92.4659 421.81C93.3078 422.975 94.537 423.803 95.933 424.144C102.7 425.846 111.556 426.807 112.839 423.79C104.57 425.04 94.5208 422.86 93.8297 419.758C93.1584 416.737 93.0589 413.656 95.9678 412.307Z" fill="#EBEBEB"/>
</g>
<path d="M168.427 399.609C173.665 399.026 177.438 394.302 176.855 389.059C176.273 383.816 171.554 380.038 166.317 380.622C161.079 381.205 157.306 385.929 157.888 391.172C158.471 396.415 163.19 400.193 168.427 399.609Z" fill="#262A54"/>
<g style="mix-blend-mode:multiply">
<path d="M171.941 381.728C170.073 380.718 167.921 380.368 165.83 380.732C166.484 380.918 167.116 381.175 167.714 381.499C169.466 382.442 170.878 383.912 171.751 385.7C172.625 387.489 172.916 389.507 172.584 391.47C172.252 393.433 171.313 395.242 169.9 396.643C168.487 398.044 166.67 398.966 164.706 399.28C166.962 399.93 169.379 399.725 171.493 398.704C173.608 397.683 175.272 395.917 176.168 393.744C177.063 391.572 177.127 389.145 176.347 386.928C175.568 384.711 173.999 382.86 171.941 381.728Z" fill="#D6D6D6"/>
</g>
<g style="mix-blend-mode:screen">
<path d="M167.964 388.119C167.602 388.804 167.044 389.366 166.363 389.733C165.681 390.1 164.906 390.256 164.136 390.181C163.366 390.106 162.635 389.803 162.037 389.312C161.439 388.82 161 388.162 160.777 387.42C160.553 386.679 160.555 385.887 160.782 385.147C161.008 384.406 161.45 383.749 162.05 383.261C162.65 382.772 163.382 382.472 164.153 382.401C164.923 382.329 165.697 382.488 166.377 382.858C167.284 383.345 167.961 384.173 168.258 385.16C168.556 386.147 168.45 387.211 167.964 388.119Z" fill="#212121"/>
</g>
<path d="M165.393 405.691C166.308 398.135 161.947 390.862 156.776 390.578C151.604 390.295 122.749 407.398 111.104 419.101C110.522 421.59 112.998 423.203 113.153 423.511C119.731 424.512 157.909 412.217 165.393 405.691Z" fill="#E3E7FF"/>
<path d="M136.478 404.476L154.111 395.735C155.276 395.188 156.609 395.12 157.824 395.545C159.039 395.971 160.039 396.856 160.609 398.011C161.179 399.167 161.274 400.5 160.873 401.724C160.473 402.949 159.609 403.967 158.466 404.561L140.829 413.282C140.248 413.591 139.611 413.779 138.956 413.837C138.3 413.895 137.64 413.82 137.014 413.618C136.388 413.415 135.809 413.089 135.311 412.659C134.813 412.228 134.406 411.702 134.115 411.112C133.824 410.521 133.654 409.878 133.616 409.22C133.577 408.563 133.671 407.905 133.891 407.284C134.112 406.663 134.454 406.093 134.899 405.608C135.343 405.122 135.88 404.731 136.478 404.457V404.476ZM158.158 403.979C158.655 403.733 159.099 403.391 159.465 402.974C159.83 402.556 160.11 402.071 160.288 401.545C160.466 401.019 160.539 400.463 160.502 399.91C160.466 399.356 160.321 398.814 160.075 398.316C159.829 397.819 159.488 397.374 159.071 397.008C158.654 396.642 158.169 396.362 157.644 396.184C157.119 396.006 156.564 395.933 156.01 395.97C155.457 396.006 154.916 396.152 154.419 396.398L136.782 405.119C135.882 405.67 135.221 406.539 134.929 407.554C134.636 408.569 134.735 409.656 135.204 410.602C135.673 411.548 136.479 412.284 137.463 412.665C138.447 413.046 139.538 413.044 140.521 412.66L158.158 403.979Z" fill="#262A54"/>
<g style="mix-blend-mode:multiply">
<path d="M112.178 422.496C112.645 423.024 113.088 423.372 113.172 423.492C119.736 424.487 157.924 412.212 165.412 405.671C165.689 403.255 165.445 400.807 164.696 398.493C159.878 410.355 120.934 420.38 112.178 422.496Z" fill="#EBEBEB"/>
</g>
<g style="mix-blend-mode:screen">
<path d="M158.943 402.281C160.907 399.22 156.909 394.501 150.754 399.937C146.124 404.019 153.573 399.638 154.234 401.067C154.896 402.495 157.297 404.835 158.943 402.281Z" fill="#545454"/>
</g>
<g style="mix-blend-mode:multiply">
<path d="M172.06 398.409C172.356 398.242 172.642 398.057 172.916 397.856C173.11 397.717 173.299 397.587 173.483 397.433C173.777 397.179 174.056 396.908 174.318 396.622C174.452 396.477 174.601 396.343 174.731 396.189C176.334 394.252 177.107 391.759 176.88 389.254C176.654 386.749 175.447 384.435 173.522 382.818C173.028 382.403 172.493 382.038 171.926 381.728C171.408 381.45 170.866 381.222 170.305 381.046C170.017 380.962 169.725 380.892 169.43 380.837C169.196 380.787 168.963 380.728 168.729 380.698C168.325 380.643 167.918 380.613 167.511 380.608H167.222C166.751 380.617 166.281 380.658 165.815 380.733C163.467 381.101 161.343 382.343 159.869 384.209C158.394 386.076 157.677 388.43 157.859 390.803C157.505 390.687 157.14 390.606 156.77 390.559C151.698 390.28 123.888 406.707 111.82 418.38C109.776 415.562 105.355 412.904 98.0807 412.137C96.7441 411.998 95.3986 412.302 94.2519 413.004L94.2022 413.038C93.6953 413.348 93.2363 413.731 92.8398 414.173C92.8398 414.173 92.8149 414.173 92.805 414.203C92.4336 414.64 92.1241 415.126 91.8851 415.647C91.8353 415.756 91.7956 415.861 91.7508 415.97C91.5277 416.509 91.3837 417.078 91.3232 417.658V417.802C91.211 419.236 91.6115 420.663 92.4531 421.828C93.2947 422.993 94.5227 423.821 95.9177 424.164C97.6083 424.592 99.4282 424.97 101.233 425.249C103.694 425.683 106.197 425.833 108.692 425.697C110.795 425.513 112.347 424.94 112.834 423.81C112.892 423.657 112.942 423.501 112.983 423.342C113.039 423.396 113.092 423.452 113.142 423.512C119.706 424.507 157.894 412.232 165.382 405.691C165.469 404.903 165.499 404.109 165.472 403.317C165.472 402.988 165.447 402.675 165.422 402.356C165.397 402.037 165.338 401.604 165.283 401.236C165.193 400.601 165.069 399.971 164.91 399.35C165.367 399.475 165.832 399.567 166.302 399.623C166.578 399.646 166.856 399.655 167.133 399.648C167.434 399.666 167.736 399.666 168.038 399.648C168.311 399.648 168.58 399.578 168.848 399.534C169.148 399.493 169.445 399.436 169.738 399.364C169.997 399.295 170.236 399.21 170.499 399.125C170.763 399.041 171.091 398.901 171.374 398.772C171.658 398.643 171.842 398.538 172.06 398.409Z" fill="#DBDBDB"/>
</g>
<path d="M148.531 398.028C153.736 397.201 157.286 392.307 156.459 387.096C155.633 381.886 150.744 378.333 145.539 379.16C140.335 379.987 136.785 384.881 137.611 390.091C138.437 395.302 143.327 398.855 148.531 398.028Z" fill="#262A54"/>
<g style="mix-blend-mode:multiply">
<path d="M151.116 397.229C153.03 396.313 154.581 394.781 155.522 392.878C153.813 394.204 151.704 394.907 149.542 394.872C147.38 394.837 145.295 394.066 143.63 392.686C141.965 391.306 140.819 389.399 140.381 387.279C139.943 385.16 140.239 382.954 141.221 381.026C139.349 382.46 138.074 384.537 137.641 386.857C137.209 389.177 137.65 391.575 138.88 393.589C140.109 395.602 142.04 397.088 144.3 397.76C146.56 398.433 148.988 398.243 151.116 397.229Z" fill="#D6D6D6"/>
</g>
<g style="mix-blend-mode:screen">
<path d="M148.298 390.26C147.959 389.564 147.835 388.782 147.941 388.015C148.047 387.248 148.379 386.529 148.894 385.951C149.408 385.373 150.083 384.961 150.832 384.767C151.581 384.573 152.371 384.607 153.101 384.864C153.831 385.121 154.469 385.589 154.932 386.209C155.396 386.829 155.665 387.573 155.706 388.346C155.746 389.12 155.556 389.888 155.16 390.553C154.763 391.218 154.178 391.75 153.479 392.082C152.55 392.528 151.483 392.587 150.511 392.245C149.54 391.903 148.743 391.189 148.298 390.26Z" fill="#212121"/>
</g>
<path d="M141.336 398.463C142.38 390.922 138.139 383.58 132.973 383.206C127.806 382.833 98.6629 399.449 86.8236 410.948C86.202 413.436 88.6484 415.079 88.8125 415.393C95.3662 416.523 133.743 404.88 141.336 398.463Z" fill="#E3E7FF"/>
<path d="M112.441 396.771L130.223 388.353C131.397 387.826 132.732 387.78 133.94 388.227C135.148 388.673 136.132 389.576 136.682 390.741C137.233 391.907 137.304 393.242 136.882 394.459C136.46 395.677 135.578 396.68 134.425 397.254L116.648 405.691C115.469 406.249 114.117 406.316 112.889 405.876C111.661 405.437 110.657 404.527 110.099 403.346C109.542 402.166 109.475 400.812 109.914 399.583C110.353 398.354 111.262 397.349 112.441 396.791V396.771ZM134.131 396.621C135.143 396.142 135.924 395.279 136.3 394.223C136.677 393.167 136.619 392.005 136.14 390.992C135.661 389.978 134.799 389.197 133.744 388.82C132.689 388.443 131.528 388.501 130.516 388.981L112.74 397.398C112.238 397.635 111.788 397.969 111.416 398.38C111.043 398.792 110.755 399.273 110.568 399.795C110.381 400.318 110.299 400.873 110.326 401.427C110.353 401.982 110.489 402.526 110.726 403.028C110.963 403.53 111.296 403.98 111.707 404.353C112.118 404.726 112.599 405.015 113.121 405.202C113.643 405.389 114.197 405.471 114.751 405.444C115.305 405.417 115.848 405.281 116.35 405.044L134.131 396.621Z" fill="#262A54"/>
<g style="mix-blend-mode:multiply">
<path d="M87.8428 414.378C88.3002 414.91 88.7378 415.269 88.7975 415.373C95.3462 416.503 133.743 404.86 141.336 398.449C141.651 396.037 141.447 393.587 140.739 391.261C135.742 403.048 96.634 412.411 87.8428 414.378Z" fill="#EBEBEB"/>
</g>
<g style="mix-blend-mode:screen">
<path d="M134.941 394.959C136.96 391.932 133.042 387.144 126.791 392.47C122.097 396.452 129.621 392.221 130.232 393.66C130.844 395.098 133.255 397.487 134.941 394.959Z" fill="#545454"/>
</g>
<path d="M87.2165 415.567C86.9132 411.391 80.1457 407.603 68.7539 412.053C67.9973 412.344 67.3065 412.784 66.722 413.346C66.1375 413.908 65.671 414.582 65.3501 415.327C65.0291 416.072 64.86 416.874 64.8528 417.685C64.8456 418.497 65.0003 419.301 65.308 420.052L65.3627 420.182C65.9226 421.506 66.9349 422.588 68.2185 423.233C69.502 423.879 70.9732 424.046 72.3688 423.706C79.1612 422.083 87.4552 418.843 87.2165 415.567Z" fill="#E3E7FF"/>
<g style="mix-blend-mode:multiply">
<path d="M66.9488 413.158C65.9898 413.987 65.3154 415.096 65.0209 416.33C64.7264 417.564 64.8268 418.859 65.3079 420.032L65.3626 420.161C65.9226 421.486 66.9348 422.567 68.2184 423.213C69.502 423.859 70.9731 424.026 72.3688 423.686C79.1611 422.063 87.4551 418.822 87.2164 415.547C80.4589 420.475 70.5389 423.188 68.5002 420.759C66.4615 418.33 64.9797 415.696 66.9488 413.158Z" fill="#EBEBEB"/>
</g>
<path d="M165.094 352.588H123.326C123.134 352.588 122.945 352.634 122.774 352.722C122.603 352.81 122.456 352.937 122.344 353.093C122.232 353.249 122.159 353.43 122.131 353.62C122.103 353.81 122.12 354.004 122.182 354.186L132.127 383.759H177.749L167.963 354.649C167.762 354.047 167.376 353.525 166.861 353.155C166.346 352.785 165.728 352.587 165.094 352.588Z" fill="#E5BFFD"/>
<g style="mix-blend-mode:screen">
<path d="M132.515 352.588C130.929 356.137 128.508 361.548 126.3 366.441L127.792 370.837L134.887 352.588H132.515ZM144.489 352.588H141.61C138.905 360.055 134.151 373.112 131.193 380.902L132.152 383.759H137.587C139.566 374.899 142.863 360.229 144.489 352.588ZM161.266 352.588H160.53C158.541 358.178 152.723 374.281 149.193 383.759H154.812L161.266 352.588Z" fill="#121212"/>
</g>
<path d="M132.092 385.601H194.968C195.163 385.601 195.321 385.443 195.321 385.248V382.017C195.321 381.822 195.163 381.664 194.968 381.664H132.092C131.897 381.664 131.739 381.822 131.739 382.017V385.248C131.739 385.443 131.897 385.601 132.092 385.601Z" fill="white"/>
<path d="M112.004 178.008L119.522 189.755L104.028 185.987L112.004 178.008ZM181.603 135.438L189.126 147.185L173.632 143.422L181.603 135.438ZM284.254 144.074L276.73 155.817L292.225 152.053L284.254 144.074ZM400.589 109.937L393.07 121.684L408.564 117.916L400.589 109.937Z" fill="#E5BFFD"/>
</svg>
