<svg width="80" height="80" viewBox="0 0 80 80" fill="none" xmlns="http://www.w3.org/2000/svg">
<g id="analytics">
<path id="Vector" d="M11.5502 45.3875C14.8127 45.3875 17.4627 42.7375 17.4627 39.475C17.4627 38.425 17.1627 37.4625 16.6877 36.6L27.3127 27.375C28.3002 28.125 29.5252 28.5875 30.8627 28.5875C32.9252 28.5875 34.7377 27.525 35.8002 25.925L44.2002 29.2375C44.1502 29.5625 44.1002 29.8875 44.1002 30.2375C44.1002 33.5 46.7502 36.15 50.0127 36.15C53.2752 36.15 55.9252 33.5 55.9252 30.2375C55.9252 28.8125 55.4002 27.5125 54.5502 26.4875L65.8127 12.325C66.629 12.7447 67.5323 12.9673 68.4502 12.975C71.7127 12.975 74.3627 10.325 74.3627 7.06249C74.3627 3.79999 71.7127 1.14999 68.4502 1.14999C65.1877 1.14999 62.5377 3.79999 62.5377 7.06249C62.5377 8.48749 63.0752 9.78749 63.9127 10.8125L52.6502 24.975C51.8299 24.5538 50.9222 24.3312 50.0002 24.325C47.9377 24.325 46.1252 25.3875 45.0627 26.9875L36.6627 23.6625C36.7127 23.3375 36.7627 23.0125 36.7627 22.675C36.7627 19.4125 34.1127 16.7625 30.8502 16.7625C27.5877 16.7625 24.9377 19.4125 24.9377 22.675C24.9377 23.725 25.2377 24.7 25.7127 25.55L15.1002 34.775C14.1127 34.025 12.8877 33.5625 11.5502 33.5625C8.28769 33.5625 5.6377 36.2125 5.6377 39.475C5.6377 42.725 8.28769 45.3875 11.5502 45.3875ZM68.4502 3.56249C69.359 3.58683 70.2224 3.96494 70.8565 4.61631C71.4907 5.26769 71.8456 6.14089 71.8456 7.04999C71.8456 7.9591 71.4907 8.83229 70.8565 9.48367C70.2224 10.1351 69.359 10.5132 68.4502 10.5375C66.5252 10.5375 64.9627 8.97499 64.9627 7.04999C64.9502 5.12499 66.5252 3.56249 68.4502 3.56249ZM50.0002 26.7375C50.909 26.7618 51.7724 27.1399 52.4065 27.7913C53.0407 28.4427 53.3956 29.3159 53.3956 30.225C53.3956 31.1341 53.0407 32.0073 52.4065 32.6587C51.7724 33.3101 50.909 33.6882 50.0002 33.7125C48.0752 33.7125 46.5127 32.15 46.5127 30.225C46.5127 29.775 46.6002 29.3375 46.7627 28.95C47.0203 28.3005 47.4662 27.7429 48.0431 27.3486C48.62 26.9544 49.3015 26.7416 50.0002 26.7375ZM30.8627 19.175C31.7715 19.1993 32.6349 19.5774 33.269 20.2288C33.9032 20.8802 34.2581 21.7534 34.2581 22.6625C34.2581 23.5716 33.9032 24.4448 33.269 25.0962C32.6349 25.7476 31.7715 26.1257 30.8627 26.15C29.9539 26.1257 29.0905 25.7476 28.4564 25.0962C27.8222 24.4448 27.4673 23.5716 27.4673 22.6625C27.4673 21.7534 27.8222 20.8802 28.4564 20.2288C29.0905 19.5774 29.9539 19.1993 30.8627 19.175ZM11.5502 35.975C12.459 35.9993 13.3224 36.3774 13.9565 37.0288C14.5907 37.6802 14.9456 38.5534 14.9456 39.4625C14.9456 40.3716 14.5907 41.2448 13.9565 41.8962C13.3224 42.5476 12.459 42.9257 11.5502 42.95C10.6414 42.9257 9.77803 42.5476 9.14386 41.8962C8.50969 41.2448 8.15483 40.3716 8.15483 39.4625C8.15483 38.5534 8.50969 37.6802 9.14386 37.0288C9.77803 36.3774 10.6414 35.9993 11.5502 35.975Z" fill="url(#paint0_linear_4128_11048)"/>
<path id="Vector_2" d="M78.7875 76.4375H73.7625V29.075C73.7625 28.4 73.225 27.8625 72.55 27.8625H60.625C59.95 27.8625 59.4125 28.4 59.4125 29.075V76.4375H56.525V50.9C56.525 50.225 55.9875 49.6875 55.3125 49.6875H43.3875C42.7125 49.6875 42.175 50.225 42.175 50.9V76.4375H38.6375V44.5625C38.6375 43.8875 38.1 43.35 37.425 43.35H25.5C24.825 43.35 24.2875 43.8875 24.2875 44.5625V76.4375H20.5875V61.1C20.5875 60.425 20.05 59.8875 19.375 59.8875H7.45C6.775 59.8875 6.2375 60.425 6.2375 61.1V76.4375H1.2125C0.5375 76.4375 0 76.975 0 77.65C0 78.325 0.5375 78.8625 1.2125 78.8625H78.7875C79.4625 78.8625 80 78.325 80 77.65C80 76.975 79.4625 76.4375 78.7875 76.4375ZM61.8375 30.2875H71.3375V76.4375H61.8375V30.2875ZM44.6 52.1125H54.1V76.4375H44.6V52.1125ZM26.7125 45.7625H36.2125V76.425H26.7125V45.7625ZM8.6625 62.3125H18.1625V76.4375H8.6625V62.3125Z" fill="url(#paint1_linear_4128_11048)"/>
</g>
<defs>
<linearGradient id="paint0_linear_4128_11048" x1="5.6377" y1="1.14999" x2="77.741" y2="8.14389" gradientUnits="userSpaceOnUse">
<stop stop-color="#FF6C00"/>
<stop offset="1" stop-color="#8A00E1"/>
</linearGradient>
<linearGradient id="paint1_linear_4128_11048" x1="0" y1="27.8625" x2="83.9173" y2="36.0813" gradientUnits="userSpaceOnUse">
<stop stop-color="#FF6C00"/>
<stop offset="1" stop-color="#8A00E1"/>
</linearGradient>
</defs>
</svg>
