<svg width="40" height="40" viewBox="0 0 40 40" fill="none" xmlns="http://www.w3.org/2000/svg">
<path d="M33.3327 33.3333V21.6667M19.9993 33.3333V16.6667M6.66602 33.3333L6.66602 26.6667M22.3438 8.37917L30.9579 11.6094M17.9973 9.00154L8.6664 15.9997M35.1004 10.7322C36.0768 11.7085 36.0768 13.2915 35.1004 14.2678C34.1241 15.2441 32.5412 15.2441 31.5649 14.2678C30.5886 13.2915 30.5886 11.7085 31.5649 10.7322C32.5412 9.75592 34.1241 9.75592 35.1004 10.7322ZM8.43378 15.7322C9.41009 16.7085 9.41009 18.2915 8.43378 19.2678C7.45747 20.2441 5.87456 20.2441 4.89825 19.2678C3.92194 18.2915 3.92194 16.7085 4.89825 15.7322C5.87456 14.7559 7.45747 14.7559 8.43378 15.7322ZM21.7671 5.73223C22.7434 6.70854 22.7434 8.29146 21.7671 9.26777C20.7908 10.2441 19.2079 10.2441 18.2316 9.26777C17.2553 8.29146 17.2553 6.70854 18.2316 5.73223C19.2079 4.75592 20.7908 4.75592 21.7671 5.73223Z" stroke="#DC3450" stroke-width="1.5" stroke-linecap="round" stroke-linejoin="round"/>
</svg>
