<svg width="40" height="41" viewBox="0 0 40 41" fill="none" xmlns="http://www.w3.org/2000/svg">
<path d="M8.33463 30.5H5.0013C4.11725 30.5 3.2694 30.1488 2.64428 29.5237C2.01916 28.8986 1.66797 28.0507 1.66797 27.1667V13.8333C1.66797 12.9493 2.01916 12.1014 2.64428 11.4763C3.2694 10.8512 4.11725 10.5 5.0013 10.5H10.318M25.0013 10.5H28.3346C29.2187 10.5 30.0665 10.8512 30.6917 11.4763C31.3168 12.1014 31.668 12.9493 31.668 13.8333V27.1667C31.668 28.0507 31.3168 28.8986 30.6917 29.5237C30.0665 30.1488 29.2187 30.5 28.3346 30.5H23.018M38.3346 22.1667V18.8333M18.3346 10.5L11.668 20.5H21.668L15.0013 30.5" stroke="#DC3450" stroke-width="1.5" stroke-linecap="round" stroke-linejoin="round"/>
</svg>
