<svg width="29" height="30" viewBox="0 0 29 30" fill="none" xmlns="http://www.w3.org/2000/svg">
<path d="M11.8337 18.9998L7.73332 23.1514C7.16137 23.7305 6.8754 24.0201 6.62959 24.0405C6.41634 24.0582 6.20755 23.9725 6.06827 23.81C5.90773 23.6228 5.90773 23.2158 5.90773 22.4019V20.322C5.90773 19.5918 5.30976 19.0634 4.58726 18.9576V18.9576C2.83865 18.7015 1.46536 17.3282 1.20923 15.5796C1.16699 15.2912 1.16699 14.9472 1.16699 14.2591V8.0665C1.16699 5.82629 1.16699 4.70619 1.60297 3.85054C1.98646 3.09789 2.59838 2.48597 3.35103 2.10248C4.20668 1.6665 5.32678 1.6665 7.56699 1.6665H17.4337C19.6739 1.6665 20.794 1.6665 21.6496 2.10248C22.4023 2.48597 23.0142 3.09789 23.3977 3.85054C23.8337 4.70619 23.8337 5.82629 23.8337 8.0665V13.6665M23.8337 28.3332L20.9318 26.3157C20.5239 26.0321 20.3199 25.8903 20.0979 25.7897C19.9009 25.7005 19.6938 25.6356 19.4811 25.5964C19.2414 25.5522 18.993 25.5522 18.4962 25.5522H16.1003C14.6069 25.5522 13.8601 25.5522 13.2897 25.2616C12.7879 25.0059 12.38 24.598 12.1243 24.0962C11.8337 23.5258 11.8337 22.779 11.8337 21.2856V17.9332C11.8337 16.4397 11.8337 15.693 12.1243 15.1225C12.38 14.6208 12.7879 14.2128 13.2897 13.9572C13.8601 13.6665 14.6069 13.6665 16.1003 13.6665H23.567C25.0605 13.6665 25.8072 13.6665 26.3776 13.9572C26.8794 14.2128 27.2873 14.6208 27.543 15.1225C27.8337 15.693 27.8337 16.4397 27.8337 17.9332V21.5522C27.8337 22.7947 27.8337 23.416 27.6307 23.906C27.36 24.5595 26.8409 25.0786 26.1875 25.3492C25.6974 25.5522 25.0762 25.5522 23.8337 25.5522V28.3332Z" stroke="url(#paint0_linear_4224_13725)" stroke-width="2" stroke-linecap="round" stroke-linejoin="round"/>
<defs>
<linearGradient id="paint0_linear_4224_13725" x1="1.16699" y1="1.6665" x2="29.2981" y2="3.42291" gradientUnits="userSpaceOnUse">
<stop stop-color="#FF6C00"/>
<stop offset="1" stop-color="#8A00E1"/>
</linearGradient>
</defs>
</svg>
