<svg width="100" height="73" viewBox="0 0 100 73" fill="none" xmlns="http://www.w3.org/2000/svg">
<path d="M38.6105 46.8889C38.0585 46.8889 37.6105 46.4409 37.6105 45.8889V39.6509H31.3965C30.8445 39.6509 30.3965 39.2029 30.3965 38.6509C30.3965 38.0989 30.8445 37.6509 31.3965 37.6509H38.6105C39.1625 37.6509 39.6105 38.0989 39.6105 38.6509V45.8889C39.6105 46.4409 39.1625 46.8889 38.6105 46.8889Z" fill="url(#paint0_linear_4128_11009)"/>
<path d="M51.3619 70.5419C46.2779 70.5419 41.4969 68.5549 37.9019 64.9479C30.4819 57.5029 30.4819 45.3899 37.9019 37.9449C38.2919 37.5529 38.9239 37.5529 39.3169 37.9429C39.7079 38.3329 39.7089 38.9659 39.3189 39.3579C32.6749 46.0239 32.6749 56.8709 39.3189 63.5369C42.5359 66.7659 46.8129 68.5429 51.3619 68.5429C55.9109 68.5429 60.1889 66.7649 63.4059 63.5369C70.0499 56.8709 70.0499 46.0239 63.4059 39.3579C57.7009 33.6329 48.6859 32.7189 41.9699 37.1829C41.5109 37.4879 40.8889 37.3639 40.5829 36.9039C40.2769 36.4439 40.4019 35.8229 40.8619 35.5169C48.3699 30.5269 58.4459 31.5489 64.8219 37.9459C72.2409 45.3899 72.2409 57.5039 64.8219 64.9489C61.2259 68.5559 56.4459 70.5429 51.3609 70.5429L51.3619 70.5419Z" fill="url(#paint1_linear_4128_11009)"/>
<path d="M56.7298 52.4469H51.3008C50.7488 52.4469 50.3008 51.9989 50.3008 51.4469V42.3989C50.3008 41.8469 50.7488 41.3989 51.3008 41.3989C51.8528 41.3989 52.3008 41.8469 52.3008 42.3989V50.4469H56.7298C57.2818 50.4469 57.7298 50.8949 57.7298 51.4469C57.7298 51.9989 57.2818 52.4469 56.7298 52.4469Z" fill="url(#paint2_linear_4128_11009)"/>
<path d="M51.3009 61.4939C45.7609 61.4939 41.2539 56.9869 41.2539 51.4469C41.2539 45.9069 45.7609 41.3989 51.3009 41.3989C56.8409 41.3989 61.3489 45.9059 61.3489 51.4469C61.3489 56.9879 56.8419 61.4939 51.3009 61.4939ZM51.3009 43.3989C46.8629 43.3989 43.2539 47.0089 43.2539 51.4469C43.2539 55.8849 46.8639 59.4939 51.3009 59.4939C55.7379 59.4939 59.3489 55.8839 59.3489 51.4469C59.3489 47.0099 55.7389 43.3989 51.3009 43.3989Z" fill="url(#paint3_linear_4128_11009)"/>
<path d="M76.59 53.4319L74.586 53.4199C74.034 53.4169 73.588 52.9669 73.591 52.4149C73.594 51.8639 74.041 51.4199 74.591 51.4199H74.596L76.591 51.4319C86.191 51.4319 94.001 43.6219 94.001 34.0219C94.001 24.4219 86.191 16.6119 76.591 16.6119C74.997 16.6119 73.387 16.8439 71.806 17.3019C71.394 17.4179 70.997 17.5529 70.604 17.6969L69.678 17.9849L69.228 17.2469C65.201 9.12288 57.087 4.07588 48.055 4.07588C37.049 4.07588 27.344 11.8729 24.978 22.6169L24.751 23.6479L23.734 23.3659C23.473 23.2929 23.207 23.2309 22.941 23.1719L22.836 23.1449C21.842 22.9409 20.905 22.8429 19.99 22.8429C12.277 22.8429 6.001 29.1179 6.001 36.8319C6.001 44.4449 11.967 50.5799 19.584 50.7989L19.838 50.8399C19.955 50.8539 21.017 50.9339 26.876 51.0299C27.428 51.0389 27.868 51.4939 27.859 52.0469C27.85 52.5989 27.423 53.0699 26.842 53.0299C21.061 52.9349 19.82 52.8569 19.437 52.7959C10.774 52.5009 4 45.5049 4 36.8329C4 28.0169 11.172 20.8439 19.989 20.8439C21.017 20.8439 22.067 20.9509 23.109 21.1629L23.266 21.1909C26.198 10.0559 36.46 2.07788 48.055 2.07788C57.559 2.07788 66.125 7.22788 70.616 15.5779C70.829 15.5079 71.041 15.4429 71.256 15.3819C73.011 14.8729 74.808 14.6139 76.59 14.6139C87.293 14.6139 96 23.3209 96 34.0239C96 44.7269 87.292 53.4339 76.59 53.4339V53.4319Z" fill="url(#paint4_linear_4128_11009)"/>
<path d="M61.0224 16.8219C60.6944 16.8219 60.3724 16.6609 60.1814 16.3639C59.4724 15.2639 58.1844 13.7269 56.0804 12.6479C53.9254 11.5429 51.8834 11.4089 50.5424 11.4919C49.9954 11.5329 49.5164 11.1069 49.4824 10.5559C49.4484 10.0049 49.8674 9.52986 50.4184 9.49586C52.0054 9.39686 54.4344 9.55585 56.9934 10.8689C59.4914 12.1509 61.0194 13.9749 61.8614 15.2799C62.1604 15.7439 62.0274 16.3629 61.5634 16.6629C61.3954 16.7709 61.2074 16.8229 61.0214 16.8229L61.0224 16.8219Z" fill="url(#paint5_linear_4128_11009)"/>
<defs>
<linearGradient id="paint0_linear_4128_11009" x1="30.3965" y1="37.6509" x2="40.1167" y2="38.2562" gradientUnits="userSpaceOnUse">
<stop stop-color="#FF6C00"/>
<stop offset="1" stop-color="#8A00E1"/>
</linearGradient>
<linearGradient id="paint1_linear_4128_11009" x1="32.3369" y1="32.3635" x2="72.4767" y2="34.8612" gradientUnits="userSpaceOnUse">
<stop stop-color="#FF6C00"/>
<stop offset="1" stop-color="#8A00E1"/>
</linearGradient>
<linearGradient id="paint2_linear_4128_11009" x1="50.3008" y1="41.3989" x2="58.1545" y2="41.7287" gradientUnits="userSpaceOnUse">
<stop stop-color="#FF6C00"/>
<stop offset="1" stop-color="#8A00E1"/>
</linearGradient>
<linearGradient id="paint3_linear_4128_11009" x1="41.2539" y1="41.3989" x2="62.4524" y2="42.7225" gradientUnits="userSpaceOnUse">
<stop stop-color="#FF6C00"/>
<stop offset="1" stop-color="#8A00E1"/>
</linearGradient>
<linearGradient id="paint4_linear_4128_11009" x1="4" y1="2.07788" x2="100.227" y2="12.8408" gradientUnits="userSpaceOnUse">
<stop stop-color="#FF6C00"/>
<stop offset="1" stop-color="#8A00E1"/>
</linearGradient>
<linearGradient id="paint5_linear_4128_11009" x1="49.4805" y1="9.47174" x2="62.6123" y2="10.8705" gradientUnits="userSpaceOnUse">
<stop stop-color="#FF6C00"/>
<stop offset="1" stop-color="#8A00E1"/>
</linearGradient>
</defs>
</svg>
