<svg width="40" height="40" viewBox="0 0 40 40" fill="none" xmlns="http://www.w3.org/2000/svg">
<path d="M12.5 7.01683L20 11.3502L27.5 7.01683M12.5 32.9835V24.3335L5 20.0002M35 20.0002L27.5 24.3335V32.9835M5.45 11.6002L20 20.0168L34.55 11.6002M20 36.8002V20.0002M35 26.6668V13.3335C34.9994 12.749 34.8451 12.1748 34.5526 11.6688C34.26 11.1627 33.8396 10.7424 33.3333 10.4502L21.6667 3.7835C21.1599 3.49093 20.5851 3.33691 20 3.33691C19.4149 3.33691 18.8401 3.49093 18.3333 3.7835L6.66667 10.4502C6.16044 10.7424 5.73997 11.1627 5.44744 11.6688C5.1549 12.1748 5.0006 12.749 5 13.3335V26.6668C5.0006 27.2514 5.1549 27.8255 5.44744 28.3316C5.73997 28.8376 6.16044 29.2579 6.66667 29.5502L18.3333 36.2168C18.8401 36.5094 19.4149 36.6634 20 36.6634C20.5851 36.6634 21.1599 36.5094 21.6667 36.2168L33.3333 29.5502C33.8396 29.2579 34.26 28.8376 34.5526 28.3316C34.8451 27.8255 34.9994 27.2514 35 26.6668Z" stroke="#DC3450" stroke-width="1.5" stroke-linecap="round" stroke-linejoin="round"/>
</svg>
