<svg width="40" height="40" viewBox="0 0 40 40" fill="none" xmlns="http://www.w3.org/2000/svg">
<path d="M14.9993 1.66602V6.66602M24.9993 1.66602V6.66602M14.9993 33.3327V38.3327M24.9993 33.3327V38.3327M33.3327 14.9993H38.3327M33.3327 23.3327H38.3327M1.66602 14.9993H6.66602M1.66602 23.3327H6.66602M9.99935 6.66602H29.9993C31.8403 6.66602 33.3327 8.1584 33.3327 9.99935V29.9993C33.3327 31.8403 31.8403 33.3327 29.9993 33.3327H9.99935C8.1584 33.3327 6.66602 31.8403 6.66602 29.9993V9.99935C6.66602 8.1584 8.1584 6.66602 9.99935 6.66602ZM14.9993 14.9993H24.9993V24.9993H14.9993V14.9993Z" stroke="#DC3450" stroke-width="1.5" stroke-linecap="round" stroke-linejoin="round"/>
</svg>
