<svg width="20" height="20" viewBox="0 0 20 20" fill="none" xmlns="http://www.w3.org/2000/svg">
<path d="M7.50016 0.833252V3.33325M12.5002 0.833252V3.33325M7.50016 16.6666V19.1666M12.5002 16.6666V19.1666M16.6668 7.49992H19.1668M16.6668 11.6666H19.1668M0.833496 7.49992H3.3335M0.833496 11.6666H3.3335M5.00016 3.33325H15.0002C15.9206 3.33325 16.6668 4.07944 16.6668 4.99992V14.9999C16.6668 15.9204 15.9206 16.6666 15.0002 16.6666H5.00016C4.07969 16.6666 3.3335 15.9204 3.3335 14.9999V4.99992C3.3335 4.07944 4.07969 3.33325 5.00016 3.33325ZM7.50016 7.49992H12.5002V12.4999H7.50016V7.49992Z" stroke="white" stroke-width="1.5" stroke-linecap="round" stroke-linejoin="round"/>
</svg>
