<svg width="154" height="151" viewBox="0 0 154 151" fill="none" xmlns="http://www.w3.org/2000/svg">
<mask id="mask0_4536_26876" style="mask-type:luminance" maskUnits="userSpaceOnUse" x="-77" y="-17" width="310" height="186">
<path d="M232.241 -16.6357H-76.3201V168.275H232.241V-16.6357Z" fill="white"/>
</mask>
<g mask="url(#mask0_4536_26876)">
<path d="M147.285 75.8199C147.285 114.06 116.247 145.061 77.9602 145.061C39.6736 145.061 8.63504 114.06 8.63504 75.8199C8.63504 37.5798 39.6736 6.5791 77.9602 6.5791C116.247 6.5791 147.285 37.5798 147.285 75.8199Z" fill="#D9A0FC"/>
<path d="M111.692 15.332C127.853 28.0082 138.245 47.6853 138.245 69.7993C138.245 108.039 107.206 139.04 68.9194 139.04C56.6692 139.04 45.1707 135.855 35.1844 130.29C46.9693 139.532 61.8145 145.061 77.9601 145.061C116.247 145.061 147.288 114.06 147.288 75.8201C147.288 49.8124 132.92 27.1681 111.692 15.332Z" fill="#BD5AF9"/>
<path d="M44.2284 136.308C28.0678 123.632 17.6759 103.955 17.6759 81.8407C17.6759 43.6007 48.7144 12.5999 87.0011 12.5999C99.2482 12.5999 110.747 15.7846 120.736 21.3496C108.951 12.1084 94.106 6.5791 77.9603 6.5791C39.6737 6.5791 8.6322 37.5798 8.6322 75.8198C8.6322 101.828 23.0001 124.472 44.2284 136.308Z" fill="#F7EAFE"/>
<path d="M77.9602 147.319C38.4894 147.319 6.37408 115.243 6.37408 75.8202C6.37408 36.3975 38.4894 4.32129 77.9602 4.32129C117.431 4.32129 149.546 36.3975 149.546 75.8202C149.546 115.243 117.431 147.319 77.9602 147.319ZM77.9602 8.83764C40.98 8.83764 10.8959 38.8851 10.8959 75.8202C10.8959 112.755 40.98 142.803 77.9602 142.803C114.937 142.803 145.024 112.755 145.024 75.8202C145.024 38.8851 114.937 8.83764 77.9602 8.83764Z" fill="#7A23B0"/>
<path d="M77.9602 24.6416C49.6598 24.6416 26.7195 47.554 26.7195 75.8199C26.7195 82.0821 27.85 88.079 29.9051 93.6232L35.7602 105.924C45.0753 118.695 60.9287 126.998 77.9602 126.998C106.261 126.998 129.201 104.086 129.201 75.8199C129.201 47.554 106.261 24.6416 77.9602 24.6416Z" fill="#DFEBF7"/>
<path d="M101.727 30.502C112.984 39.8892 120.16 54.0042 120.16 69.7995C120.16 98.0655 97.217 120.975 68.9197 120.975C60.3353 120.975 52.261 118.845 45.1531 115.118C54.0417 122.53 65.4746 126.996 77.9604 126.996C106.258 126.996 129.201 104.086 129.201 75.8204C129.201 56.1284 118.052 39.058 101.727 30.502Z" fill="#BAC4D3"/>
<path d="M54.1936 121.138C42.9367 111.751 35.7602 97.636 35.7602 81.8407C35.7602 53.5748 58.7035 30.6653 87.0009 30.6653C95.5853 30.6653 103.66 32.7954 110.768 36.5223C101.879 29.1102 90.443 24.6445 77.9602 24.6445C49.6628 24.6445 26.7195 47.554 26.7195 75.8199C26.7195 95.5119 37.869 112.582 54.1936 121.138Z" fill="white"/>
<path d="M80.2211 33.6742C80.2211 34.9224 79.21 35.9324 77.9602 35.9324C76.7134 35.9324 75.6993 34.9224 75.6993 33.6742C75.6993 32.4289 76.7134 31.416 77.9602 31.416C79.21 31.416 80.2211 32.4289 80.2211 33.6742Z" fill="#7A23B0"/>
<path d="M80.2211 117.966C80.2211 119.211 79.21 120.224 77.9602 120.224C76.7134 120.224 75.6993 119.211 75.6993 117.966C75.6993 116.718 76.7134 115.708 77.9602 115.708C79.21 115.708 80.2211 116.718 80.2211 117.966Z" fill="#7A23B0"/>
<path d="M35.7633 73.5625C37.0131 73.5625 38.0242 74.5724 38.0242 75.8207C38.0242 77.0689 37.0131 78.0788 35.7633 78.0788C34.5165 78.0788 33.5024 77.0689 33.5024 75.8207C33.5024 74.5724 34.5165 73.5625 35.7633 73.5625Z" fill="#7A23B0"/>
<path d="M120.157 73.5625C121.404 73.5625 122.418 74.5724 122.418 75.8207C122.418 77.0689 121.404 78.0788 120.157 78.0788C118.908 78.0788 117.896 77.0689 117.896 75.8207C117.896 74.5724 118.908 73.5625 120.157 73.5625Z" fill="#7A23B0"/>
<path d="M58.8199 38.1905C59.4433 39.269 59.0704 40.6513 57.9907 41.2739C56.9109 41.8996 55.5269 41.5272 54.9006 40.4487C54.2772 39.3703 54.65 37.988 55.7327 37.3653C56.8125 36.7397 58.1935 37.1121 58.8199 38.1905Z" fill="#7A23B0"/>
<path d="M101.02 111.192C101.643 112.27 101.27 113.652 100.188 114.275C99.1078 114.901 97.7268 114.528 97.1004 113.45C96.477 112.371 96.8499 110.989 97.9296 110.366C99.0094 109.741 100.393 110.113 101.02 111.192Z" fill="#7A23B0"/>
<path d="M40.285 94.9405C41.3648 94.3149 42.7488 94.6873 43.3722 95.7657C43.9956 96.8442 43.6257 98.2265 42.546 98.8491C41.4662 99.4718 40.0822 99.1024 39.4588 98.0239C38.8354 96.9455 39.2053 95.5632 40.285 94.9405Z" fill="#7A23B0"/>
<path d="M113.375 52.7921C114.454 52.1665 115.838 52.5389 116.462 53.6173C117.085 54.6957 116.715 56.0781 115.635 56.7007C114.556 57.3263 113.172 56.9539 112.548 55.8755C111.925 54.797 112.295 53.4147 113.375 52.7921Z" fill="#7A23B0"/>
<path d="M42.546 52.7917C43.6257 53.4144 43.9956 54.7967 43.3722 55.8751C42.7488 56.9536 41.3648 57.326 40.285 56.7003C39.2053 56.0777 38.8354 54.6954 39.4588 53.617C40.0822 52.5385 41.4662 52.1691 42.546 52.7917Z" fill="#7A23B0"/>
<path d="M115.635 94.9405C116.715 95.5632 117.085 96.9455 116.462 98.0239C115.838 99.1024 114.454 99.4747 113.375 98.8491C112.295 98.2265 111.925 96.8442 112.548 95.7657C113.172 94.6873 114.556 94.3149 115.635 94.9405Z" fill="#7A23B0"/>
<path d="M54.9006 111.192C55.5269 110.113 56.9109 109.741 57.9907 110.366C59.0704 110.989 59.4433 112.371 58.8199 113.45C58.1935 114.528 56.8125 114.901 55.7327 114.275C54.65 113.652 54.2772 112.27 54.9006 111.192Z" fill="#7A23B0"/>
<path d="M97.1004 38.1905C97.7268 37.1121 99.1078 36.7397 100.188 37.3653C101.27 37.988 101.643 39.3703 101.02 40.4487C100.393 41.5272 99.0094 41.8996 97.9296 41.2739C96.8499 40.6513 96.477 39.269 97.1004 38.1905Z" fill="#7A23B0"/>
<path d="M24.7878 70.0828C26.6525 52.9401 36.8645 37.0879 51.4397 28.7148C52.5209 28.0941 53.8992 28.4646 54.5225 29.5451C55.1514 30.6291 54.7674 32.0085 53.6888 32.6325C40.3452 40.2992 30.9931 54.8354 29.2819 70.5678C26.3637 97.3958 45.8256 121.576 72.6683 124.473C99.511 127.369 123.721 107.902 126.639 81.0736C129.557 54.2455 110.095 30.0654 83.2524 27.1688C77.4303 26.5405 71.6248 26.9452 65.9907 28.3666C64.7816 28.6737 63.5509 27.9384 63.2477 26.7277C62.9439 25.5228 63.6743 24.2947 64.8864 23.9879C71.0418 22.4339 77.3823 21.991 83.7409 22.6772C113.062 25.8412 134.32 52.2566 131.133 81.5585C127.946 110.86 101.501 132.128 72.1798 128.964C42.8588 125.8 21.6006 99.3847 24.7878 70.0828Z" fill="#7A23B0"/>
<path d="M38.3111 29.1348C38.4458 27.8964 39.5633 26.9978 40.8024 27.1315L52.7845 28.4245C54.0237 28.5582 54.922 29.6743 54.7873 30.9128L53.4847 42.8884C53.3496 44.1298 52.2325 45.0254 50.9934 44.8917C49.7542 44.758 48.8556 43.6448 48.9906 42.4034L50.049 32.6736L40.3139 31.6231C39.0747 31.4894 38.1761 30.3762 38.3111 29.1348Z" fill="#7A23B0"/>
<path d="M50.8146 74.5911L70.3908 73.8541C71.6397 73.8071 72.6884 74.7789 72.7358 76.0271C72.7832 77.2753 71.8112 78.3232 70.5623 78.3702L50.9862 79.1072C49.7373 79.1543 48.6886 78.1824 48.6412 76.9342C48.5938 75.686 49.5658 74.6381 50.8146 74.5911Z" fill="#7A23B0"/>
<path d="M78.2071 81.0927C79.452 81.0458 80.503 82.0169 80.5502 83.2613L81.521 108.834C81.5683 110.079 80.5939 111.126 79.349 111.173C78.1041 111.22 77.0532 110.249 77.0059 109.004L76.0351 83.4314C75.9879 82.187 76.9622 81.1396 78.2071 81.0927Z" fill="#7A23B0"/>
<path d="M70.4814 76.1099C70.3235 71.9563 73.5691 68.4619 77.7234 68.3055C81.8777 68.1492 85.3792 71.3898 85.5371 75.5434C85.6949 79.6969 82.4494 83.1914 78.295 83.3477C74.1407 83.504 70.6392 80.2634 70.4814 76.1099Z" fill="#D9A0FC"/>
<path d="M77.6373 66.0486C83.0314 65.8456 87.5908 70.0661 87.7958 75.4583C88.0007 80.8505 83.7746 85.4016 78.3805 85.6046C72.9865 85.8075 68.4271 81.587 68.2221 76.1948C68.0172 70.8026 72.2433 66.2515 77.6373 66.0486ZM78.2091 81.0937C81.1148 80.9844 83.3912 78.5312 83.2808 75.6282C83.1705 72.7252 80.7144 70.4501 77.8088 70.5594C74.9031 70.6688 72.6267 73.1219 72.7371 76.0249C72.8474 78.928 75.3035 81.203 78.2091 81.0937Z" fill="#7A23B0"/>
</g>
</svg>
