<svg width="48" height="49" viewBox="0 0 48 49" fill="none" xmlns="http://www.w3.org/2000/svg">
<g clip-path="url(#clip0_5525_9020)">
<path d="M10 16.9751C12.2091 16.9751 14 15.1842 14 12.9751C14 10.766 12.2091 8.9751 10 8.9751C7.79086 8.9751 6 10.766 6 12.9751C6 15.1842 7.79086 16.9751 10 16.9751Z" stroke="#DC3450" stroke-width="1.5" stroke-linecap="round" stroke-linejoin="round"/>
<path d="M24 16.9751C26.2091 16.9751 28 15.1842 28 12.9751C28 10.766 26.2091 8.9751 24 8.9751C21.7909 8.9751 20 10.766 20 12.9751C20 15.1842 21.7909 16.9751 24 16.9751Z" stroke="#DC3450" stroke-width="1.5" stroke-linecap="round" stroke-linejoin="round"/>
<path d="M38 16.9751C40.2091 16.9751 42 15.1842 42 12.9751C42 10.766 40.2091 8.9751 38 8.9751C35.7909 8.9751 34 10.766 34 12.9751C34 15.1842 35.7909 16.9751 38 16.9751Z" stroke="#DC3450" stroke-width="1.5" stroke-linecap="round" stroke-linejoin="round"/>
<path d="M10 40.9751C12.2091 40.9751 14 39.1842 14 36.9751C14 34.766 12.2091 32.9751 10 32.9751C7.79086 32.9751 6 34.766 6 36.9751C6 39.1842 7.79086 40.9751 10 40.9751Z" stroke="#DC3450" stroke-width="1.5" stroke-linecap="round" stroke-linejoin="round"/>
<path d="M24 40.9751C26.2091 40.9751 28 39.1842 28 36.9751C28 34.766 26.2091 32.9751 24 32.9751C21.7909 32.9751 20 34.766 20 36.9751C20 39.1842 21.7909 40.9751 24 40.9751Z" stroke="#DC3450" stroke-width="1.5" stroke-linecap="round" stroke-linejoin="round"/>
<path d="M10 16.9751V32.9751" stroke="#DC3450" stroke-width="1.5" stroke-linecap="round" stroke-linejoin="round"/>
<path d="M24 16.9751V32.9751" stroke="#DC3450" stroke-width="1.5" stroke-linecap="round" stroke-linejoin="round"/>
<path d="M38 16.9751V20.9751C38 22.036 37.5786 23.0534 36.8284 23.8035C36.0783 24.5537 35.0609 24.9751 34 24.9751H10" stroke="#DC3450" stroke-width="1.5" stroke-linecap="round" stroke-linejoin="round"/>
</g>
<defs>
<clipPath id="clip0_5525_9020">
<rect width="48" height="48" fill="white" transform="translate(0 0.975098)"/>
</clipPath>
</defs>
</svg>
