<svg width="148" height="151" viewBox="0 0 148 151" fill="none" xmlns="http://www.w3.org/2000/svg">
<path d="M17.0821 72.0092C17.0821 72.1028 17.0062 72.1786 16.9127 72.1786C16.8191 72.1786 16.7433 72.1028 16.7433 72.0092C16.7433 71.9157 16.8191 71.8398 16.9127 71.8398C17.0062 71.8398 17.0821 71.9157 17.0821 72.0092Z" fill="#E8EBEB"/>
<path d="M163.102 11.2691C163.102 21.2357 155.023 29.3165 145.054 29.3165C135.088 29.3165 127.007 21.2357 127.007 11.2691C127.007 1.3024 135.088 -6.77832 145.054 -6.77832C155.023 -6.77832 163.102 1.3024 163.102 11.2691Z" fill="#E8EBEB"/>
<path d="M150.053 117.305C150.053 144.693 127.847 166.898 100.46 166.898C73.0694 166.898 50.8666 144.693 50.8666 117.305C50.8666 89.9122 73.0694 67.7119 100.46 67.7119C127.847 67.7119 150.053 89.9122 150.053 117.305Z" fill="#E8EBEB"/>
<path d="M15.4299 12.7023H14.1574C13.7774 12.7023 13.4689 12.3939 13.4689 12.0138C13.4689 11.6337 13.7774 11.3252 14.1574 11.3252H15.4299C15.81 11.3252 16.1185 11.6337 16.1185 12.0138C16.1185 12.3939 15.81 12.7023 15.4299 12.7023Z" fill="#20365F"/>
<path d="M19.667 12.7023H18.3945C18.0144 12.7023 17.7059 12.3939 17.7059 12.0138C17.7059 11.6337 18.0144 11.3252 18.3945 11.3252H19.667C20.0471 11.3252 20.3556 11.6337 20.3556 12.0138C20.3556 12.3939 20.0471 12.7023 19.667 12.7023Z" fill="#20365F"/>
<path d="M16.9124 15.4564C16.5324 15.4564 16.2239 15.1479 16.2239 14.7678V13.4972C16.2239 13.1171 16.5324 12.8086 16.9124 12.8086C17.2925 12.8086 17.601 13.1171 17.601 13.4972V14.7678C17.601 15.1479 17.2925 15.4564 16.9124 15.4564Z" fill="#20365F"/>
<path d="M16.9124 11.2191C16.5324 11.2191 16.2239 10.9106 16.2239 10.5305V9.25986C16.2239 8.87977 16.5324 8.57129 16.9124 8.57129C17.2925 8.57129 17.601 8.87977 17.601 9.25986V10.5305C17.601 10.9106 17.2925 11.2191 16.9124 11.2191Z" fill="#20365F"/>
<path d="M35.9149 29.3055H32.9743C32.0959 29.3055 31.3831 28.5948 31.3831 27.7143C31.3831 26.838 32.0959 26.123 32.9743 26.123H35.9149C36.7933 26.123 37.5061 26.838 37.5061 27.7143C37.5061 28.5948 36.7933 29.3055 35.9149 29.3055Z" fill="#20365F"/>
<path d="M45.7065 29.3055H42.7659C41.8876 29.3055 41.1747 28.5948 41.1747 27.7143C41.1747 26.838 41.8876 26.123 42.7659 26.123H45.7065C46.5849 26.123 47.2978 26.838 47.2978 27.7143C47.2978 28.5948 46.5849 29.3055 45.7065 29.3055Z" fill="#20365F"/>
<path d="M39.3404 35.6706C38.462 35.6706 37.7491 34.9598 37.7491 34.0794V31.143C37.7491 30.2646 38.462 29.5518 39.3404 29.5518C40.2187 29.5518 40.9316 30.2646 40.9316 31.143V34.0794C40.9316 34.9598 40.2187 35.6706 39.3404 35.6706Z" fill="#20365F"/>
<path d="M39.3404 25.8776C38.462 25.8776 37.7491 25.1648 37.7491 24.2864V21.35C37.7491 20.4738 38.462 19.7588 39.3404 19.7588C40.2187 19.7588 40.9316 20.4738 40.9316 21.35V24.2864C40.9316 25.1648 40.2187 25.8776 39.3404 25.8776Z" fill="#20365F"/>
<path d="M88.0309 36.2782C88.0309 36.2782 72.1598 53.5912 39.7982 53.9529C15.9616 54.2173 3.43987 69.196 3.43987 69.196L33.5222 96.4517L88.0309 36.2782Z" fill="white"/>
<path d="M88.0307 36.2785C88.0307 36.2785 80.4557 44.5288 65.1223 49.7579L27.6439 91.1288L33.522 96.452L88.0307 36.2785Z" fill="#BCC3D7"/>
<path d="M33.608 98.1306C33.1601 98.1527 32.7234 97.9947 32.3921 97.6967L2.30988 70.4432C1.64003 69.8364 1.56915 68.8093 2.14803 68.1183C2.67793 67.4815 15.4378 52.5516 39.7766 52.2714C70.9705 51.9066 86.6389 35.3087 86.7944 35.1394C87.4232 34.4595 88.4783 34.4097 89.165 35.0381C89.8491 35.6623 89.8969 36.7219 89.2752 37.4082L34.7708 97.5793C34.4705 97.9085 34.0538 98.1087 33.608 98.1306ZM5.84312 69.1058L33.408 94.0765L76.1649 46.8746C67.9794 51.2167 55.9245 55.4511 39.8145 55.6352C20.89 55.8392 9.32656 65.6671 5.84312 69.1058Z" fill="#20365F"/>
<path d="M114.78 60.5116C114.78 60.5116 99.1132 78.0098 101.939 110.252C104.022 133.997 90.3485 147.932 90.3485 147.932L60.2641 120.679L114.78 60.5116Z" fill="white"/>
<path d="M114.781 60.5115L97.6719 79.3922C95.4856 87.051 94.0881 96.7253 95.1057 108.342C96.6805 126.289 89.262 138.621 85.5414 143.58L90.3501 147.932C90.3501 147.932 104.023 133.997 101.94 110.252C99.1147 78.0097 114.781 60.5115 114.781 60.5115Z" fill="#BCC3D7"/>
<path d="M90.4302 149.613C90.0001 149.634 89.5641 149.489 89.221 149.179L59.1364 121.923C58.8074 121.625 58.6071 121.206 58.5852 120.762C58.5632 120.317 58.7212 119.878 59.0193 119.549L113.535 59.3816C114.159 58.6929 115.214 58.6431 115.902 59.2603C116.593 59.8773 116.648 60.9412 116.033 61.6316C115.882 61.803 100.892 79.0455 103.614 110.103C105.74 134.342 92.1321 148.521 91.5505 149.111C91.2427 149.425 90.8401 149.593 90.4302 149.613ZM62.6415 120.562L90.204 145.529C93.278 141.71 101.905 129.16 100.261 110.399C98.8568 94.3646 101.883 81.9379 105.403 73.3646L62.6415 120.562Z" fill="#20365F"/>
<path d="M132.484 37.6468C144.671 17.0287 143.8 1.59702 143.8 1.59702C143.8 1.59702 128.357 2.25337 109.039 16.4089C103.656 20.3567 97.9856 25.291 92.2451 31.632C65.9138 60.6988 33.5221 96.4502 33.5221 96.4502L46.8955 108.564L60.2645 120.678L118.99 55.8573C124.728 49.5231 129.085 43.3941 132.484 37.6468Z" fill="white"/>
<path d="M134.607 3.423C134.142 9.14454 132.092 21.1637 123.413 35.8473C120.015 41.5991 115.66 47.7236 109.92 54.0601C88.5473 77.6507 63.187 105.646 54.3886 115.357L60.2644 120.681L118.992 55.8578C124.73 49.5214 129.085 43.3969 132.483 37.6474C144.671 17.0292 143.802 1.59751 143.802 1.59751C143.802 1.59751 140.307 1.76318 134.607 3.423Z" fill="#BCC3D7"/>
<path d="M60.3478 122.362C59.8998 122.384 59.4653 122.223 59.134 121.925L45.7651 109.811L45.7864 109.788C44.9544 109.081 42.2654 106.641 32.3939 97.6975C31.7052 97.0736 31.6526 96.0074 32.2767 95.321L90.9995 30.5006C96.3571 24.5893 101.934 19.5339 108.045 15.0562C127.576 0.744274 143.193 -0.0127455 143.728 -0.0840653C144.342 -0.109867 144.923 0.204986 145.241 0.728183C145.674 1.44329 146.291 17.5903 133.929 38.5044C130.127 44.9362 125.521 51.1584 120.236 56.9897L61.5128 121.808C61.2124 122.137 60.7935 122.34 60.3478 122.362ZM35.8967 96.3347C39.1894 99.3156 47.8715 107.179 48.0219 107.313L60.1477 118.305L117.744 54.7304C122.948 48.9861 127.293 43.1203 131.034 36.7926C140.463 20.8393 141.905 8.0216 142.101 3.47644C137.577 4.12847 124.942 6.84223 110.033 17.767C104.107 22.1121 98.6974 27.0156 93.491 32.7599L35.8967 96.3347Z" fill="#20365F"/>
<path d="M132.565 39.3267C132.357 39.337 132.143 39.3116 131.932 39.2389L115.669 33.6354C115.235 33.4862 114.883 33.1646 114.692 32.7474L107.51 17.1129C107.122 16.2676 107.493 15.2726 108.336 14.8852C109.182 14.4978 110.183 14.8682 110.571 15.709L117.448 30.6894L133.031 36.0593C133.908 36.3618 134.377 37.3198 134.072 38.1948C133.843 38.864 133.231 39.2939 132.565 39.3267Z" fill="#20365F"/>
<path d="M121.184 55.1459C120.975 55.1562 120.761 55.1264 120.55 55.0559L102.04 48.6765C101.608 48.5271 101.251 48.2079 101.06 47.7885L92.8713 29.9539C92.4839 29.1086 92.8545 28.1114 93.6954 27.7241C94.5406 27.3344 95.5424 27.7071 95.9299 28.5524L103.817 45.7328L121.649 51.8763C122.526 52.1788 122.995 53.1368 122.69 54.0118C122.461 54.681 121.849 55.1131 121.184 55.1459Z" fill="#20365F"/>
<path d="M107.597 70.2048C107.388 70.2151 107.176 70.1851 106.966 70.1147L88.4119 63.7216C87.9779 63.5724 87.623 63.2509 87.4318 62.8337L79.2433 44.9969C78.8537 44.1539 79.2265 43.1543 80.0696 42.7669C80.9148 42.3772 81.9122 42.7501 82.2997 43.5954L90.1887 60.7779L108.062 66.9351C108.939 67.2376 109.408 68.1957 109.104 69.0707C108.874 69.7399 108.262 70.172 107.597 70.2048Z" fill="#20365F"/>
<path d="M5.89537 86.6381C17.6024 73.7136 29.3374 65.2716 32.1085 67.7821C34.8772 70.2904 27.6292 82.8019 15.9221 95.7241L5.89537 86.6381Z" fill="white"/>
<path d="M32.107 67.7807C31.0915 66.8586 28.863 67.4266 25.8844 69.1295C26.6126 72.6479 21.1163 82.1181 12.3315 92.4713L15.9228 95.7226C27.6299 82.8004 34.8758 70.2913 32.107 67.7807Z" fill="#BCC3D7"/>
<path d="M16.0036 97.4014C15.5736 97.4226 15.1376 97.2779 14.7944 96.9671L4.76323 87.8813C4.07458 87.2574 4.02231 86.1979 4.6462 85.5093C12.9421 76.3523 28.3046 62.0642 33.2381 66.5359C38.1786 71.014 25.4625 87.6953 17.1687 96.8499C16.8578 97.1931 16.4359 97.38 16.0036 97.4014ZM8.27755 86.5246L15.7966 93.3409C27.4136 80.2299 31.861 70.5713 30.9501 68.9929C29.3483 68.2928 20.1857 73.671 8.27755 86.5246Z" fill="#20365F"/>
<path d="M34.3105 112.379C46.0176 99.4563 57.7527 91.0143 60.5236 93.5225C63.2924 96.0309 56.0445 108.545 44.3373 121.467L34.3105 112.379Z" fill="white"/>
<path d="M60.5199 93.5219C59.5045 92.602 57.2759 93.1678 54.2951 94.8708C55.0255 98.3891 49.5293 107.862 40.7446 118.215L44.3358 121.466C56.0429 108.544 63.2887 96.0325 60.5199 93.5219Z" fill="#BCC3D7"/>
<path d="M44.4186 123.148C43.9728 123.17 43.5363 123.014 43.2071 122.714L33.178 113.626C32.8491 113.33 32.6509 112.909 32.629 112.463C32.6071 112.019 32.7629 111.583 33.061 111.254C38.804 104.917 44.7414 99.4285 49.7851 95.8027C55.6959 91.5481 59.5775 90.4001 61.6507 92.2804C63.7259 94.1584 62.9633 98.1343 59.3134 104.433C56.1995 109.811 51.3244 116.262 45.5814 122.597C45.2834 122.928 44.8643 123.126 44.4186 123.148ZM36.6902 112.271L44.2114 119.085C55.8305 105.972 60.2735 96.3158 59.3627 94.7374C57.7685 94.0549 48.5983 99.4178 36.6902 112.271Z" fill="#20365F"/>
<path d="M61.0556 136.612C72.7627 123.687 84.5 115.245 87.2688 117.756C90.0398 120.264 82.7917 132.775 71.0846 145.698L61.0556 136.612Z" fill="white"/>
<path d="M87.2667 117.752C86.2513 116.833 84.025 117.398 81.0442 119.101C81.7723 122.62 76.2784 132.092 67.4913 142.443L71.0825 145.694C82.7896 132.772 90.0378 120.263 87.2667 117.752Z" fill="#BCC3D7"/>
<path d="M71.1612 147.376C70.7312 147.397 70.2952 147.252 69.9521 146.942L59.9208 137.856C59.2322 137.232 59.1798 136.17 59.8037 135.482C68.0953 126.327 83.4505 112.03 88.3957 116.51C93.3361 120.986 80.6201 137.67 72.3263 146.824C72.0154 147.168 71.5935 147.355 71.1612 147.376ZM63.4352 136.499L70.9542 143.315C82.569 130.207 87.0186 120.546 86.1077 118.967C84.5036 118.265 75.341 123.646 63.4352 136.499Z" fill="#20365F"/>
</svg>
