<svg width="40" height="41" viewBox="0 0 40 41" fill="none" xmlns="http://www.w3.org/2000/svg">
<path d="M35 23.8333V27.5C35 30.3003 35 31.7004 34.455 32.77C33.9757 33.7108 33.2108 34.4757 32.27 34.955C31.2004 35.5 29.8003 35.5 27 35.5H23.3333M16.6667 5.5H13C10.1997 5.5 8.79961 5.5 7.73005 6.04497C6.78924 6.52433 6.02433 7.28924 5.54497 8.23005C5 9.29961 5 10.6997 5 13.5V17.1667M25 15.5L35 5.5M35 5.5H25M35 5.5V15.5M15 25.5L5 35.5M5 35.5H15M5 35.5L5 25.5" stroke="#DC3450" stroke-width="1.5" stroke-linecap="round" stroke-linejoin="round"/>
</svg>
