<svg width="25" height="25" viewBox="0 0 25 25" fill="none" xmlns="http://www.w3.org/2000/svg">
<path d="M12.2805 12.663V21.663M12.2805 12.663L9.78048 14.663M12.2805 12.663L14.7805 14.663M5.31448 9.77997C4.36869 10.018 3.54236 10.5931 2.99073 11.3974C2.43911 12.2017 2.20016 13.1797 2.31879 14.1478C2.43741 15.1158 2.90544 16.0072 3.63494 16.6545C4.36445 17.3018 5.30521 17.6604 6.28048 17.663H7.28048" stroke="#191D23" stroke-width="2" stroke-linecap="round" stroke-linejoin="round"/>
<path d="M16.1104 7.80099C15.7686 6.44756 14.925 5.27473 13.7506 4.52024C12.5761 3.76576 11.1587 3.48608 9.78569 3.73789C8.41267 3.9897 7.18677 4.75417 6.35649 5.87633C5.52622 6.99848 5.15369 8.39435 5.31443 9.78099C5.31443 9.78099 5.46743 10.663 5.78043 11.163" stroke="#191D23" stroke-width="2" stroke-linecap="round" stroke-linejoin="round"/>
<path d="M17.2805 17.663C17.9866 17.6625 18.6845 17.5125 19.3284 17.2228C19.9723 16.9332 20.5475 16.5104 21.0162 15.9824C21.485 15.4544 21.8366 14.8332 22.0479 14.1595C22.2592 13.4858 22.3255 12.775 22.2423 12.0739C22.1591 11.3728 21.9284 10.6972 21.5653 10.0917C21.2022 9.48618 20.715 8.96441 20.1358 8.56075C19.5565 8.15709 18.8983 7.88068 18.2045 7.74972C17.5107 7.61877 16.7971 7.63623 16.1105 7.80096L14.7805 8.16296" stroke="#191D23" stroke-width="2" stroke-linecap="round" stroke-linejoin="round"/>
</svg>
