<svg width="24" height="24" viewBox="0 0 24 24" fill="none" xmlns="http://www.w3.org/2000/svg">
<path d="M16.7934 13.6C16.9849 13.0884 17.082 12.5463 17.0801 12C17.0801 10.7871 16.5983 9.62383 15.7406 8.76616C14.8829 7.9085 13.7197 7.42667 12.5068 7.42667C11.9672 7.4273 11.4321 7.52438 10.9268 7.71333L12.0001 8.82C12.1633 8.7939 12.3282 8.78052 12.4934 8.78C13.351 8.77821 14.1745 9.11583 14.7841 9.71913C15.3936 10.3224 15.7397 11.1424 15.7468 12C15.7462 12.1652 15.7328 12.3302 15.7068 12.4933L16.7934 13.6Z" fill="#C7D2D6"/>
<path d="M22.8603 11.6862C20.6136 7.53287 16.6736 5.01953 12.3136 5.01953C11.1265 5.02232 9.94742 5.21359 8.82031 5.5862L9.89365 6.6662C10.6842 6.46188 11.4971 6.35663 12.3136 6.35286C16.067 6.35286 19.4803 8.4462 21.5136 11.9729C20.7678 13.2813 19.7789 14.4353 18.6003 15.3729L19.547 16.3195C20.911 15.2191 22.0439 13.8597 22.8803 12.3195L23.0536 11.9995L22.8603 11.6862Z" fill="#C7D2D6"/>
<path d="M3.24691 3.85368L6.22025 6.82702C4.34086 8.03709 2.80485 9.71086 1.76025 11.687L1.58691 12.0003L1.76025 12.3203C4.00691 16.4737 7.94691 18.987 12.3069 18.987C14.0087 18.9867 15.6883 18.6015 17.2202 17.8603L20.5536 21.1937L21.7202 20.1937L4.38691 2.86035L3.24691 3.85368ZM9.74691 10.3537L14.1802 14.787C13.6793 15.0971 13.1027 15.2632 12.5136 15.267C12.0855 15.267 11.6617 15.1824 11.2665 15.018C10.8713 14.8536 10.5125 14.6126 10.2107 14.309C9.90899 14.0054 9.67027 13.6452 9.50829 13.2489C9.34631 12.8527 9.26428 12.4284 9.26691 12.0003C9.27442 11.4181 9.44036 10.8488 9.74691 10.3537ZM8.78025 9.38702C8.15654 10.2666 7.8642 11.3385 7.95499 12.413C8.04578 13.4875 8.51385 14.4951 9.27632 15.2576C10.0388 16.0201 11.0465 16.4881 12.1209 16.5789C13.1954 16.6697 14.2673 16.3774 15.1469 15.7537L16.2136 16.8203C14.9788 17.3482 13.6498 17.6203 12.3069 17.6203C8.55358 17.6203 5.14025 15.527 3.10691 12.0003C4.08272 10.2725 5.48806 8.82582 7.18691 7.80035L8.78025 9.38702Z" fill="#C7D2D6"/>
</svg>
