<svg width="36" height="36" viewBox="0 0 36 36" fill="none" xmlns="http://www.w3.org/2000/svg">
<rect x="2" y="2" width="32" height="32" rx="16" fill="#E5BFFD"/>
<rect x="2" y="2" width="32" height="32" rx="16" stroke="#F7EAFE" stroke-width="4"/>
<path d="M18.6667 11.333H14C13.6464 11.333 13.3073 11.4735 13.0572 11.7235C12.8072 11.9736 12.6667 12.3127 12.6667 12.6663V23.333C12.6667 23.6866 12.8072 24.0258 13.0572 24.2758C13.3073 24.5259 13.6464 24.6663 14 24.6663H22C22.3536 24.6663 22.6928 24.5259 22.9428 24.2758C23.1929 24.0258 23.3334 23.6866 23.3334 23.333V15.9997M18.6667 11.333L23.3334 15.9997M18.6667 11.333V15.9997H23.3334" stroke="#9D2DE2" stroke-width="1.33333" stroke-linecap="round" stroke-linejoin="round"/>
</svg>
