<svg width="24" height="24" viewBox="0 0 24 24" fill="none" xmlns="http://www.w3.org/2000/svg">
<g id="ph:instagram-logo-fill">
<path id="Vector" d="M14.56 12C14.56 12.5063 14.4099 13.0013 14.1286 13.4223C13.8473 13.8432 13.4474 14.1714 12.9797 14.3651C12.5119 14.5589 11.9972 14.6096 11.5006 14.5108C11.004 14.412 10.5478 14.1682 10.1898 13.8102C9.83178 13.4522 9.58797 12.996 9.48919 12.4994C9.39041 12.0028 9.44111 11.4881 9.63487 11.0203C9.82863 10.5526 10.1568 10.1527 10.5777 9.87144C10.9987 9.59014 11.4937 9.44 12 9.44C12.6783 9.44211 13.3282 9.7125 13.8079 10.1921C14.2875 10.6718 14.5579 11.3217 14.56 12ZM20 8.48V15.52C20 16.7082 19.528 17.8477 18.6878 18.6878C17.8477 19.528 16.7082 20 15.52 20H8.48C7.29183 20 6.15232 19.528 5.31216 18.6878C4.472 17.8477 4 16.7082 4 15.52V8.48C4 7.29183 4.472 6.15232 5.31216 5.31216C6.15232 4.472 7.29183 4 8.48 4H15.52C16.7082 4 17.8477 4.472 18.6878 5.31216C19.528 6.15232 20 7.29183 20 8.48ZM15.84 12C15.84 11.2405 15.6148 10.4981 15.1928 9.86661C14.7709 9.23513 14.1712 8.74294 13.4695 8.4523C12.7678 8.16166 11.9957 8.08562 11.2509 8.23378C10.506 8.38195 9.82174 8.74768 9.28471 9.28471C8.74768 9.82174 8.38195 10.506 8.23378 11.2509C8.08562 11.9957 8.16166 12.7678 8.4523 13.4695C8.74294 14.1712 9.23513 14.7709 9.86661 15.1928C10.4981 15.6148 11.2405 15.84 12 15.84C13.0184 15.84 13.9952 15.4354 14.7153 14.7153C15.4354 13.9952 15.84 13.0184 15.84 12ZM17.12 7.84C17.12 7.65013 17.0637 7.46452 16.9582 7.30665C16.8527 7.14878 16.7028 7.02574 16.5274 6.95308C16.352 6.88042 16.1589 6.8614 15.9727 6.89845C15.7865 6.93549 15.6154 7.02692 15.4812 7.16118C15.3469 7.29544 15.2555 7.46649 15.2184 7.65271C15.1814 7.83893 15.2004 8.03196 15.2731 8.20738C15.3457 8.38279 15.4688 8.53272 15.6267 8.63821C15.7845 8.7437 15.9701 8.8 16.16 8.8C16.4146 8.8 16.6588 8.69886 16.8388 8.51882C17.0189 8.33879 17.12 8.09461 17.12 7.84Z" fill="black"/>
</g>
</svg>
