<svg width="80" height="80" viewBox="0 0 80 80" fill="none" xmlns="http://www.w3.org/2000/svg">
<g id="integration" clip-path="url(#clip0_4128_11036)">
<path id="Vector" d="M78.75 3.9857e-07H60.1375C59.8096 0.00138118 59.4953 0.13157 59.2625 0.3625L54.5437 5H44.1937C43.9252 4.09623 43.3718 3.30339 42.6161 2.7396C41.8604 2.17581 40.9428 1.87123 40 1.87123C39.0572 1.87123 38.1396 2.17581 37.3839 2.7396C36.6282 3.30339 36.0748 4.09623 35.8063 5H25.4562L20.7437 0.3625C20.5094 0.13005 20.1926 -0.000263015 19.8625 3.9857e-07H1.25C0.918479 3.9857e-07 0.600537 0.131696 0.366117 0.366117C0.131696 0.600537 0 0.91848 0 1.25C0 1.58152 0.131696 1.89946 0.366117 2.13388C0.600537 2.3683 0.918479 2.5 1.25 2.5H19.375L24.0875 7.1375C24.3203 7.36843 24.6346 7.49862 24.9625 7.5H35.8063C36.0765 8.40131 36.6302 9.19146 37.3851 9.75319C38.14 10.3149 39.0559 10.6183 39.9969 10.6183C40.9378 10.6183 41.8537 10.3149 42.6086 9.75319C43.3635 9.19146 43.9172 8.40131 44.1875 7.5H55.0562C55.3842 7.49862 55.6984 7.36843 55.9312 7.1375L60.625 2.5H78.75C79.0815 2.5 79.3995 2.3683 79.6339 2.13388C79.8683 1.89946 80 1.58152 80 1.25C80 0.91848 79.8683 0.600537 79.6339 0.366117C79.3995 0.131696 79.0815 3.9857e-07 78.75 3.9857e-07ZM40 8.125C39.6292 8.125 39.2666 8.01503 38.9583 7.80901C38.65 7.60298 38.4096 7.31014 38.2677 6.96753C38.1258 6.62492 38.0887 6.24792 38.161 5.88421C38.2334 5.52049 38.412 5.1864 38.6742 4.92418C38.9364 4.66195 39.2705 4.48338 39.6342 4.41103C39.9979 4.33868 40.3749 4.37581 40.7175 4.51773C41.0601 4.65964 41.353 4.89996 41.559 5.20831C41.765 5.51665 41.875 5.87916 41.875 6.25C41.875 6.74728 41.6775 7.2242 41.3258 7.57583C40.9742 7.92746 40.4973 8.125 40 8.125Z" fill="url(#paint0_linear_4128_11036)"/>
<path id="Vector_2" d="M78.75 8.12501H70.4437C70.1435 7.11793 69.4908 6.25257 68.6049 5.68718C67.7191 5.12178 66.6594 4.89413 65.6195 5.04584C64.5796 5.19756 63.6291 5.71851 62.9417 6.51343C62.2544 7.30835 61.8761 8.32412 61.8761 9.37501C61.8761 10.4259 62.2544 11.4417 62.9417 12.2366C63.6291 13.0315 64.5796 13.5525 65.6195 13.7042C66.6594 13.8559 67.7191 13.6282 68.6049 13.0628C69.4908 12.4974 70.1435 11.6321 70.4437 10.625H78.75C79.0815 10.625 79.3995 10.4933 79.6339 10.2589C79.8683 10.0245 80 9.70653 80 9.37501C80 9.04349 79.8683 8.72555 79.6339 8.49113C79.3995 8.25671 79.0815 8.12501 78.75 8.12501ZM66.25 11.25C65.8792 11.25 65.5166 11.14 65.2083 10.934C64.9 10.728 64.6596 10.4352 64.5177 10.0925C64.3758 9.74993 64.3387 9.37293 64.411 9.00922C64.4834 8.6455 64.6619 8.31141 64.9242 8.04919C65.1864 7.78696 65.5205 7.60839 65.8842 7.53604C66.2479 7.46369 66.6249 7.50082 66.9675 7.64274C67.3101 7.78465 67.603 8.02497 67.809 8.33332C68.015 8.64166 68.125 9.00417 68.125 9.37501C68.125 9.87229 67.9275 10.3492 67.5758 10.7008C67.2242 11.0525 66.7473 11.25 66.25 11.25ZM78.75 77.5H60.625L55.9125 72.8625C55.6797 72.6316 55.3654 72.5014 55.0375 72.5H44.1937C43.9235 71.5987 43.3698 70.8086 42.6149 70.2468C41.86 69.6851 40.9441 69.3817 40.0031 69.3817C39.0622 69.3817 38.1463 69.6851 37.3914 70.2468C36.6365 70.8086 36.0828 71.5987 35.8125 72.5H24.9438C24.6158 72.5014 24.3016 72.6316 24.0687 72.8625L19.375 77.5H1.25C0.918479 77.5 0.600537 77.6317 0.366117 77.8661C0.131696 78.1006 0 78.4185 0 78.75C0 79.0815 0.131696 79.3995 0.366117 79.6339C0.600537 79.8683 0.918479 80 1.25 80H19.8625C20.1904 79.9986 20.5047 79.8684 20.7375 79.6375L25.4562 75H35.8063C36.0765 75.9013 36.6302 76.6915 37.3851 77.2532C38.14 77.8149 39.0559 78.1183 39.9969 78.1183C40.9378 78.1183 41.8537 77.8149 42.6086 77.2532C43.3635 76.6915 43.9172 75.9013 44.1875 75H54.5437L59.2562 79.6375C59.4891 79.8684 59.8033 79.9986 60.1312 80H78.75C79.0815 80 79.3995 79.8683 79.6339 79.6339C79.8683 79.3995 80 79.0815 80 78.75C80 78.4185 79.8683 78.1006 79.6339 77.8661C79.3995 77.6317 79.0815 77.5 78.75 77.5ZM40 75.625C39.6292 75.625 39.2666 75.515 38.9583 75.309C38.65 75.103 38.4096 74.8102 38.2677 74.4675C38.1258 74.1249 38.0887 73.7479 38.161 73.3842C38.2334 73.0205 38.412 72.6864 38.6742 72.4242C38.9364 72.162 39.2705 71.9834 39.6342 71.911C39.9979 71.8387 40.3749 71.8758 40.7175 72.0177C41.0601 72.1597 41.353 72.4 41.559 72.7083C41.765 73.0167 41.875 73.3792 41.875 73.75C41.875 74.2473 41.6775 74.7242 41.3258 75.0758C40.9742 75.4275 40.4973 75.625 40 75.625Z" fill="url(#paint1_linear_4128_11036)"/>
<path id="Vector_3" d="M78.75 69.375H70.4437C70.1435 68.3679 69.4908 67.5026 68.6049 66.9372C67.7191 66.3718 66.6594 66.1441 65.6195 66.2959C64.5796 66.4476 63.6291 66.9685 62.9417 67.7634C62.2544 68.5584 61.8761 69.5741 61.8761 70.625C61.8761 71.6759 62.2544 72.6917 62.9417 73.4866C63.6291 74.2815 64.5796 74.8025 65.6195 74.9542C66.6594 75.1059 67.7191 74.8783 68.6049 74.3129C69.4908 73.7475 70.1435 72.8821 70.4437 71.875H78.75C79.0815 71.875 79.3995 71.7433 79.6339 71.5089C79.8683 71.2745 80 70.9565 80 70.625C80 70.2935 79.8683 69.9756 79.6339 69.7411C79.3995 69.5067 79.0815 69.375 78.75 69.375ZM66.25 72.5C65.8792 72.5 65.5166 72.3901 65.2083 72.184C64.9 71.978 64.6596 71.6852 64.5177 71.3425C64.3758 70.9999 64.3387 70.6229 64.411 70.2592C64.4834 69.8955 64.6619 69.5614 64.9242 69.2992C65.1864 69.037 65.5205 68.8584 65.8842 68.786C66.2479 68.7137 66.6249 68.7508 66.9675 68.8927C67.3101 69.0347 67.603 69.275 67.809 69.5833C68.015 69.8917 68.125 70.2542 68.125 70.625C68.125 71.1223 67.9275 71.5992 67.5758 71.9508C67.2242 72.3025 66.7473 72.5 66.25 72.5ZM40 26.25C42.0252 26.2481 44.0256 26.6964 45.8563 27.5625C46.6153 27.7265 47.3039 28.1243 47.825 28.7C49.6943 29.994 51.2162 31.7284 52.2563 33.75H55C53.5552 30.2824 50.9535 27.4225 47.6377 25.6568C44.3219 23.8912 40.4968 23.3289 36.8131 24.0656C33.1295 24.8023 29.8148 26.7926 27.4332 29.6977C25.0515 32.6028 23.75 36.2434 23.75 40C23.75 43.7566 25.0515 47.3972 27.4332 50.3023C29.8148 53.2075 33.1295 55.1977 36.8131 55.9345C40.4968 56.6712 44.3219 56.1089 47.6377 54.3432C50.9535 52.5776 53.5552 49.7177 55 46.25H52.2563C51.2187 48.2838 49.6943 50.0294 47.8188 51.3313C47.2984 51.9036 46.6123 52.2991 45.8563 52.4625C43.9924 53.3313 41.9575 53.771 39.9012 53.7492C37.845 53.7274 35.8198 53.2446 33.9748 52.3365C32.1298 51.4283 30.512 50.118 29.2405 48.5018C27.9691 46.8856 27.0763 45.0049 26.6279 42.998C26.1795 40.9911 26.187 38.9092 26.6498 36.9056C27.1126 34.9019 28.0188 33.0276 29.3019 31.4207C30.585 29.8137 32.2121 28.515 34.0636 27.6201C35.9151 26.7252 37.9436 26.2571 40 26.25Z" fill="url(#paint2_linear_4128_11036)"/>
<path id="Vector_4" d="M41.9188 11.875H38.0813C37.4207 11.8831 36.7895 12.1491 36.3224 12.6162C35.8554 13.0833 35.5894 13.7145 35.5813 14.375V16.6687C32.388 17.2811 29.3546 18.5425 26.6687 20.375L25.05 18.75C24.8172 18.5119 24.5391 18.3227 24.2322 18.1935C23.9252 18.0643 23.5955 17.9978 23.2625 17.9978C22.9295 17.9978 22.5998 18.0643 22.2928 18.1935C21.9859 18.3227 21.7078 18.5119 21.475 18.75L18.75 21.4687C18.5119 21.7016 18.3227 21.9796 18.1935 22.2866C18.0644 22.5935 17.9978 22.9232 17.9978 23.2562C17.9978 23.5893 18.0644 23.9189 18.1935 24.2259C18.3227 24.5329 18.5119 24.8109 18.75 25.0437L20.3688 26.6625C18.549 29.341 17.2963 32.3633 16.6875 35.5437H14.375C13.7145 35.5519 13.0833 35.8179 12.6162 36.2849C12.1491 36.752 11.8831 37.3832 11.875 38.0437V41.8813C11.8831 42.5418 12.1491 43.173 12.6162 43.6401C13.0833 44.1072 13.7145 44.3731 14.375 44.3813H16.6688C17.2762 47.5875 18.5378 50.6342 20.375 53.3313L18.75 54.95C18.5119 55.1828 18.3227 55.4609 18.1935 55.7678C18.0644 56.0748 17.9978 56.4045 17.9978 56.7375C17.9978 57.0705 18.0644 57.4002 18.1935 57.7072C18.3227 58.0141 18.5119 58.2922 18.75 58.525L21.4688 61.25C21.7016 61.4881 21.9796 61.6773 22.2866 61.8065C22.5936 61.9357 22.9232 62.0022 23.2563 62.0022C23.5893 62.0022 23.919 61.9357 24.2259 61.8065C24.5329 61.6773 24.8109 61.4881 25.0438 61.25L26.6625 59.6313C29.341 61.451 32.3633 62.7037 35.5438 63.3125V65.625C35.5519 66.2855 35.8179 66.9167 36.2849 67.3838C36.752 67.8509 37.3832 68.1169 38.0438 68.125H41.8813C42.5418 68.1169 43.173 67.8509 43.6401 67.3838C44.1072 66.9167 44.3731 66.2855 44.3813 65.625V63.3313C47.5875 62.7238 50.6342 61.4622 53.3313 59.625L54.95 61.25C55.1828 61.4881 55.4609 61.6773 55.7678 61.8065C56.0748 61.9357 56.4045 62.0022 56.7375 62.0022C57.0705 62.0022 57.4002 61.9357 57.7072 61.8065C58.0141 61.6773 58.2922 61.4881 58.525 61.25L61.25 58.5312C61.4881 58.2984 61.6773 58.0204 61.8065 57.7134C61.9357 57.4065 62.0022 57.0768 62.0022 56.7438C62.0022 56.4107 61.9357 56.0811 61.8065 55.7741C61.6773 55.4671 61.4881 55.1891 61.25 54.9562L59.625 53.3313C61.0952 51.1667 62.1975 48.774 62.8875 46.25H60.2813C59.5682 48.588 58.456 50.785 56.9938 52.7438C56.8143 52.9846 56.7275 53.2819 56.7493 53.5815C56.7711 53.881 56.9 54.1627 57.1125 54.375L59.4813 56.7812L56.725 59.4938L54.375 57.1125C54.1627 56.9 53.881 56.7711 53.5815 56.7493C53.2819 56.7275 52.9846 56.8143 52.7438 56.9938C49.8996 59.1221 46.5663 60.5018 43.05 61.0062C42.7497 61.0487 42.475 61.1989 42.2772 61.4289C42.0794 61.6589 41.972 61.9529 41.975 62.2562V65.6375H38.1063V62.2437C38.1092 61.9404 38.0018 61.6464 37.804 61.4164C37.6063 61.1864 37.3316 61.0362 37.0313 60.9937C33.5149 60.4893 30.1817 59.1096 27.3375 56.9812C27.0967 56.8018 26.7993 56.715 26.4998 56.7368C26.2002 56.7586 25.9185 56.8875 25.7063 57.1L23.3 59.4688L20.5875 56.7125L22.8875 54.375C23.1 54.1627 23.2289 53.881 23.2507 53.5815C23.2725 53.2819 23.1857 52.9846 23.0063 52.7438C20.8779 49.8996 19.4982 46.5663 18.9938 43.05C18.9513 42.7497 18.8011 42.475 18.5711 42.2772C18.3411 42.0794 18.0471 41.972 17.7438 41.975H14.3625V38.1063H17.7125C18.0158 38.1092 18.3099 38.0018 18.5399 37.804C18.7698 37.6063 18.92 37.3316 18.9625 37.0312C19.467 33.5149 20.8467 30.1817 22.975 27.3375C23.1815 27.0947 23.2874 26.7822 23.2712 26.4639C23.2549 26.1456 23.1177 25.8455 22.8875 25.625L20.5188 23.2188L23.275 20.5063L25.625 22.8875C25.8373 23.1 26.119 23.2289 26.4185 23.2507C26.7181 23.2725 27.0154 23.1857 27.2563 23.0063C30.1002 20.8775 33.4335 19.4977 36.95 18.9937C37.2503 18.9513 37.525 18.8011 37.7228 18.5711C37.9206 18.3411 38.028 18.0471 38.025 17.7437V14.3625H41.8938V17.7125C41.8908 18.0158 41.9982 18.3099 42.196 18.5399C42.3937 18.7698 42.6684 18.92 42.9688 18.9625C46.4852 19.4665 49.8186 20.8462 52.6625 22.975C52.9053 23.1815 53.2178 23.2874 53.5361 23.2712C53.8544 23.2549 54.1545 23.1177 54.375 22.8875L56.7813 20.5188L59.4938 23.275L57.1125 25.625C56.9 25.8373 56.7711 26.119 56.7493 26.4185C56.7275 26.7181 56.8143 27.0154 56.9938 27.2563C58.456 29.215 59.5682 31.412 60.2813 33.75H62.8875C62.1975 31.226 61.0952 28.8333 59.625 26.6687L61.25 25.05C61.4881 24.8172 61.6773 24.5391 61.8065 24.2322C61.9357 23.9252 62.0022 23.5955 62.0022 23.2625C62.0022 22.9295 61.9357 22.5998 61.8065 22.2928C61.6773 21.9859 61.4881 21.7078 61.25 21.475L58.5313 18.75C58.2984 18.5119 58.0204 18.3227 57.7134 18.1935C57.4065 18.0643 57.0768 17.9978 56.7438 17.9978C56.4107 17.9978 56.0811 18.0643 55.7741 18.1935C55.4671 18.3227 55.1891 18.5119 54.9563 18.75L53.3313 20.375C50.6522 18.5575 47.6299 17.3069 44.45 16.7V14.375C44.4418 13.7091 44.1715 13.0733 43.6977 12.6053C43.2238 12.1373 42.5847 11.8749 41.9188 11.875Z" fill="url(#paint3_linear_4128_11036)"/>
<path id="Vector_5" d="M68.125 42.5C68.125 42.1685 67.9933 41.8505 67.7589 41.6161C67.5245 41.3817 67.2066 41.25 66.875 41.25H36.875C36.6148 41.2508 36.3613 41.3328 36.1498 41.4846C35.9384 41.6364 35.7797 41.8504 35.6957 42.0968C35.6118 42.3431 35.6068 42.6096 35.6815 42.8589C35.7562 43.1082 35.9069 43.3279 36.1125 43.4875L44.2875 49.7687C44.5503 49.971 44.8826 50.0606 45.2113 50.0178C45.5401 49.975 45.8384 49.8034 46.0407 49.5406C46.2429 49.2779 46.3325 48.9456 46.2897 48.6168C46.2469 48.288 46.0753 47.9897 45.8125 47.7875L40.5438 43.75H66.875C67.2066 43.75 67.5245 43.6183 67.7589 43.3839C67.9933 43.1495 68.125 42.8315 68.125 42.5Z" fill="url(#paint4_linear_4128_11036)"/>
<path id="Vector_6" d="M75.625 33.125C74.6826 33.1248 73.7654 33.4288 73.0098 33.9919C72.2541 34.5549 71.7005 35.3469 71.4313 36.25H40.5438L45.8125 32.1875C46.0752 31.9853 46.2469 31.687 46.2896 31.3582C46.3324 31.0294 46.2429 30.6971 46.0406 30.4344C45.8384 30.1717 45.5401 30 45.2113 29.9572C44.8825 29.9145 44.5502 30.004 44.2875 30.2063L36.1125 36.5375C35.9166 36.6996 35.7748 36.9177 35.706 37.1625C35.6373 37.4074 35.6448 37.6673 35.7277 37.9078C35.8106 38.1482 35.9648 38.3576 36.1698 38.5081C36.3748 38.6586 36.6208 38.743 36.875 38.75H71.4313C71.6631 39.5275 72.1065 40.2253 72.712 40.7653C73.3176 41.3052 74.0613 41.6662 74.8602 41.8078C75.6591 41.9495 76.4816 41.8661 77.2359 41.5672C77.9901 41.2683 78.6464 40.7655 79.1313 40.115C79.6163 39.4646 79.9108 38.6921 79.982 37.8839C80.0532 37.0757 79.8982 36.2636 79.5345 35.5384C79.1707 34.8132 78.6124 34.2034 77.922 33.7772C77.2316 33.351 76.4363 33.1252 75.625 33.125ZM75.625 39.375C75.2542 39.375 74.8916 39.265 74.5833 39.059C74.275 38.853 74.0346 38.5601 73.8927 38.2175C73.7508 37.8749 73.7137 37.4979 73.786 37.1342C73.8584 36.7705 74.0369 36.4364 74.2992 36.1742C74.5614 35.912 74.8955 35.7334 75.2592 35.661C75.6229 35.5887 75.9999 35.6258 76.3425 35.7677C76.6851 35.9096 76.978 36.15 77.184 36.4583C77.39 36.7667 77.5 37.1292 77.5 37.5C77.5 37.9973 77.3025 38.4742 76.9508 38.8258C76.5992 39.1775 76.1223 39.375 75.625 39.375ZM2.5 71.875H9.55625C9.8565 72.8821 10.5092 73.7474 11.395 74.3128C12.2809 74.8782 13.3406 75.1059 14.3805 74.9542C15.4204 74.8025 16.3709 74.2815 17.0583 73.4866C17.7456 72.6917 18.1239 71.6759 18.1239 70.625C18.1239 69.5741 17.7456 68.5583 17.0583 67.7634C16.3709 66.9685 15.4204 66.4476 14.3805 66.2958C13.3406 66.1441 12.2809 66.3718 11.395 66.9372C10.5092 67.5026 9.8565 68.3679 9.55625 69.375H2.5V10.625H9.55625C9.8565 11.6321 10.5092 12.4974 11.395 13.0628C12.2809 13.6282 13.3406 13.8559 14.3805 13.7042C15.4204 13.5525 16.3709 13.0315 17.0583 12.2366C17.7456 11.4417 18.1239 10.4259 18.1239 9.37501C18.1239 8.32412 17.7456 7.30835 17.0583 6.51343C16.3709 5.71851 15.4204 5.19756 14.3805 5.04584C13.3406 4.89413 12.2809 5.12178 11.395 5.68718C10.5092 6.25257 9.8565 7.11793 9.55625 8.12501H2.5C1.83696 8.12501 1.20107 8.3884 0.732233 8.85724C0.263392 9.32608 0 9.96197 0 10.625L0 69.375C0 70.038 0.263392 70.6739 0.732233 71.1428C1.20107 71.6116 1.83696 71.875 2.5 71.875ZM13.75 68.75C14.1208 68.75 14.4834 68.86 14.7917 69.066C15.1 69.272 15.3404 69.5649 15.4823 69.9075C15.6242 70.2501 15.6613 70.6271 15.589 70.9908C15.5166 71.3545 15.338 71.6886 15.0758 71.9508C14.8136 72.2131 14.4795 72.3916 14.1158 72.464C13.7521 72.5363 13.3751 72.4992 13.0325 72.3573C12.6899 72.2154 12.397 71.975 12.191 71.6667C11.985 71.3584 11.875 70.9958 11.875 70.625C11.875 70.1277 12.0725 69.6508 12.4242 69.2992C12.7758 68.9475 13.2527 68.75 13.75 68.75ZM13.75 7.50001C14.1208 7.50001 14.4834 7.60998 14.7917 7.816C15.1 8.02203 15.3404 8.31487 15.4823 8.65748C15.6242 9.00009 15.6613 9.37709 15.589 9.7408C15.5166 10.1045 15.338 10.4386 15.0758 10.7008C14.8136 10.9631 14.4795 11.1416 14.1158 11.214C13.7521 11.2863 13.3751 11.2492 13.0325 11.1073C12.6899 10.9654 12.397 10.725 12.191 10.4167C11.985 10.1084 11.875 9.74585 11.875 9.37501C11.875 8.87773 12.0725 8.40082 12.4242 8.04918C12.7758 7.69755 13.2527 7.50001 13.75 7.50001Z" fill="url(#paint5_linear_4128_11036)"/>
</g>
<defs>
<linearGradient id="paint0_linear_4128_11036" x1="0" y1="0" x2="69.3715" y2="32.6329" gradientUnits="userSpaceOnUse">
<stop stop-color="#FF6C00"/>
<stop offset="1" stop-color="#8A00E1"/>
</linearGradient>
<linearGradient id="paint1_linear_4128_11036" x1="0" y1="5" x2="84.3481" y2="10.6175" gradientUnits="userSpaceOnUse">
<stop stop-color="#FF6C00"/>
<stop offset="1" stop-color="#8A00E1"/>
</linearGradient>
<linearGradient id="paint2_linear_4128_11036" x1="23.75" y1="23.75" x2="83.0419" y2="27.8132" gradientUnits="userSpaceOnUse">
<stop stop-color="#FF6C00"/>
<stop offset="1" stop-color="#8A00E1"/>
</linearGradient>
<linearGradient id="paint3_linear_4128_11036" x1="11.875" y1="11.875" x2="65.726" y2="14.9242" gradientUnits="userSpaceOnUse">
<stop stop-color="#FF6C00"/>
<stop offset="1" stop-color="#8A00E1"/>
</linearGradient>
<linearGradient id="paint4_linear_4128_11036" x1="35.6289" y1="41.25" x2="68.2979" y2="48.8009" gradientUnits="userSpaceOnUse">
<stop stop-color="#FF6C00"/>
<stop offset="1" stop-color="#8A00E1"/>
</linearGradient>
<linearGradient id="paint5_linear_4128_11036" x1="0" y1="5" x2="84.2919" y2="11.0147" gradientUnits="userSpaceOnUse">
<stop stop-color="#FF6C00"/>
<stop offset="1" stop-color="#8A00E1"/>
</linearGradient>
<clipPath id="clip0_4128_11036">
<rect width="80" height="80" fill="white"/>
</clipPath>
</defs>
</svg>
