<svg width="40" height="40" viewBox="0 0 40 40" fill="none" xmlns="http://www.w3.org/2000/svg">
<path d="M19.9987 3.3335V5.00016M4.9987 20.0002H3.33203M9.16536 9.16683L8.1652 8.16667M30.832 9.16683L31.8324 8.16667M36.6654 20.0002H34.9987M16.6654 22.5002H23.332M19.9987 22.5002V30.8335M25.832 28.1234C28.3555 26.3081 29.9987 23.346 29.9987 20.0002C29.9987 14.4773 25.5215 10.0002 19.9987 10.0002C14.4759 10.0002 9.9987 14.4773 9.9987 20.0002C9.9987 23.346 11.6419 26.3081 14.1654 28.1234V31.3335C14.1654 33.2003 14.1654 34.1338 14.5287 34.8468C14.8483 35.474 15.3582 35.9839 15.9854 36.3035C16.6984 36.6668 17.6319 36.6668 19.4987 36.6668H20.4987C22.3655 36.6668 23.299 36.6668 24.012 36.3035C24.6392 35.9839 25.1491 35.474 25.4687 34.8468C25.832 34.1338 25.832 33.2003 25.832 31.3335V28.1234Z" stroke="#DC3450" stroke-width="1.5" stroke-linecap="round" stroke-linejoin="round"/>
</svg>
