<svg width="34" height="27" viewBox="0 0 34 27" fill="none" xmlns="http://www.w3.org/2000/svg">
<g clip-path="url(#clip0_3895_10567)">
<path d="M33.3293 26.0932V26.1612H33.3927C33.4046 26.1614 33.4163 26.1584 33.4267 26.1525C33.4308 26.1496 33.4341 26.1457 33.4364 26.1411C33.4386 26.1366 33.4397 26.1315 33.4394 26.1265C33.4396 26.1215 33.4386 26.1166 33.4364 26.1122C33.4341 26.1077 33.4308 26.1039 33.4267 26.1012C33.4164 26.095 33.4046 26.092 33.3927 26.0925H33.3293V26.0932ZM33.3934 26.0451C33.4205 26.0434 33.4475 26.0512 33.4695 26.0672C33.4784 26.0744 33.4854 26.0836 33.49 26.0941C33.4947 26.1045 33.4968 26.1159 33.4962 26.1273C33.4966 26.1372 33.4949 26.147 33.4912 26.1561C33.4875 26.1652 33.4819 26.1734 33.4748 26.1802C33.4578 26.195 33.4364 26.2039 33.4139 26.2055L33.4989 26.3024H33.4335L33.3553 26.2062H33.33V26.3024H33.2752V26.0452H33.3942L33.3934 26.0451ZM33.3764 26.3912C33.4051 26.3914 33.4335 26.3857 33.4598 26.3742C33.4852 26.3633 33.5083 26.3476 33.5278 26.3281C33.5474 26.3086 33.5631 26.2855 33.5739 26.2601C33.5962 26.2062 33.5962 26.1457 33.5739 26.0918C33.5629 26.0665 33.5473 26.0434 33.5278 26.0238C33.5083 26.0043 33.4852 25.9887 33.4598 25.9777C33.4334 25.9669 33.405 25.9615 33.3764 25.9618C33.3473 25.9615 33.3184 25.9669 33.2914 25.9777C33.2654 25.9885 33.2418 26.0041 33.2218 26.0238C33.1918 26.0547 33.1714 26.0937 33.1634 26.136C33.1553 26.1783 33.1598 26.2221 33.1764 26.2618C33.1868 26.2873 33.2022 26.3105 33.2218 26.3298C33.2418 26.3495 33.2654 26.3651 33.2914 26.3759C33.3182 26.3873 33.3472 26.3931 33.3764 26.3929V26.3912ZM33.3764 25.8999C33.4511 25.8998 33.5228 25.9291 33.5761 25.9815C33.6018 26.0066 33.6223 26.0366 33.6363 26.0697C33.6508 26.1037 33.6583 26.1403 33.6583 26.1772C33.6583 26.2142 33.6508 26.2508 33.6363 26.2848C33.6219 26.3177 33.6015 26.3476 33.5761 26.373C33.55 26.398 33.5197 26.4181 33.4865 26.4325C33.4517 26.4473 33.4142 26.4548 33.3764 26.4546C33.3381 26.4549 33.3001 26.4473 33.2648 26.4325C33.2313 26.4185 33.2007 26.3983 33.1746 26.373C33.1492 26.3467 33.129 26.3157 33.1152 26.2819C33.1007 26.2479 33.0932 26.2113 33.0932 26.1743C33.0932 26.1374 33.1007 26.1008 33.1152 26.0668C33.1293 26.0337 33.1497 26.0037 33.1754 25.9786C33.2012 25.9528 33.2319 25.9326 33.2657 25.9191C33.301 25.9042 33.3389 25.8967 33.3772 25.897L33.3764 25.8999ZM7.34597 24.9066C7.34597 24.4161 7.66727 24.0133 8.1924 24.0133C8.69424 24.0133 9.03288 24.3988 9.03288 24.9066C9.03288 25.4144 8.69424 25.7999 8.1924 25.7999C7.66727 25.7999 7.34597 25.397 7.34597 24.9066ZM9.60492 24.9066V23.5109H8.99819V23.8509C8.80575 23.5996 8.51387 23.4421 8.11692 23.4421C7.33492 23.4421 6.72122 24.0554 6.72122 24.9073C6.72122 25.7591 7.33458 26.3725 8.11692 26.3725C8.5137 26.3725 8.80575 26.2147 8.99819 25.9636V26.3024H9.60425V24.9066H9.60492ZM30.1056 24.9066C30.1056 24.4161 30.4269 24.0133 30.9522 24.0133C31.4545 24.0133 31.7926 24.3988 31.7926 24.9066C31.7926 25.4144 31.4545 25.7999 30.9522 25.7999C30.427 25.7999 30.1056 25.397 30.1056 24.9066ZM32.3652 24.9066V22.3906H31.758V23.8509C31.5655 23.5996 31.2736 23.4421 30.8767 23.4421C30.0947 23.4421 29.481 24.0554 29.481 24.9073C29.481 25.7591 30.0943 26.3725 30.8767 26.3725C31.2736 26.3725 31.5655 26.2147 31.758 25.9636V26.3024H32.3652V24.9066ZM17.1352 23.9845C17.5262 23.9845 17.7773 24.2297 17.8414 24.6613H16.3937C16.4585 24.2584 16.7031 23.9845 17.1354 23.9845H17.1352ZM17.1475 23.4405C16.3298 23.4405 15.7577 24.0355 15.7577 24.9057C15.7577 25.793 16.3527 26.3709 17.1881 26.3709C17.6084 26.3709 17.9932 26.2661 18.3319 25.98L18.0345 25.5303C17.8006 25.7173 17.5028 25.8222 17.2228 25.8222C16.8318 25.8222 16.4758 25.6411 16.3883 25.1388H18.4601C18.466 25.0633 18.4721 24.9872 18.4721 24.9056C18.466 24.0357 17.9281 23.4404 17.1471 23.4404L17.1475 23.4405ZM24.4724 24.9056C24.4724 24.4151 24.7937 24.0122 25.3189 24.0122C25.8207 24.0122 26.1594 24.3978 26.1594 24.9056C26.1594 25.4134 25.8207 25.7989 25.3189 25.7989C24.7937 25.7989 24.4723 25.396 24.4723 24.9056H24.4724ZM26.7312 24.9056V23.5109H26.1248V23.8509C25.9317 23.5996 25.6405 23.4421 25.2436 23.4421C24.4616 23.4421 23.8479 24.0554 23.8479 24.9073C23.8479 25.7591 24.4612 26.3725 25.2436 26.3725C25.6405 26.3725 25.9317 26.2147 26.1248 25.9636V26.3024H26.7314V24.9066L26.7312 24.9056ZM21.0461 24.9056C21.0461 25.752 21.6353 26.3708 22.5346 26.3708C22.9549 26.3708 23.2348 26.2773 23.5376 26.0381L23.2462 25.5477C23.0184 25.7114 22.7792 25.7989 22.5152 25.7989C22.0309 25.793 21.6748 25.4428 21.6748 24.9056C21.6748 24.3684 22.0309 24.0184 22.5152 24.0122C22.7786 24.0122 23.0178 24.0998 23.2462 24.2635L23.5376 23.773C23.2343 23.5339 22.9543 23.4404 22.5346 23.4404C21.6353 23.4404 21.0461 24.059 21.0461 24.9056ZM28.8678 23.4404C28.5178 23.4404 28.2898 23.6041 28.1322 23.8492V23.5109H27.5309V26.3009H28.1383V24.7369C28.1383 24.2752 28.3367 24.0187 28.7333 24.0187C28.8632 24.0168 28.9922 24.0407 29.1128 24.0889L29.2998 23.517C29.1655 23.4642 28.9904 23.4409 28.8675 23.4409L28.8678 23.4404ZM12.6046 23.7328C12.3127 23.5403 11.9105 23.4409 11.4668 23.4409C10.7599 23.4409 10.3048 23.7797 10.3048 24.334C10.3048 24.789 10.6436 25.0696 11.2675 25.1572L11.5541 25.198C11.8868 25.2447 12.0439 25.3323 12.0439 25.4899C12.0439 25.7056 11.8229 25.8287 11.4079 25.8287C10.9877 25.8287 10.6844 25.6944 10.4799 25.5368L10.1948 26.0099C10.5275 26.255 10.9478 26.372 11.4028 26.372C12.2086 26.372 12.6756 25.9925 12.6756 25.4613C12.6756 24.9708 12.3081 24.7143 11.7009 24.6268L11.4149 24.5853C11.1523 24.5513 10.9418 24.4984 10.9418 24.3114C10.9418 24.1074 11.1402 23.9847 11.4731 23.9847C11.8292 23.9847 12.174 24.119 12.3429 24.2239L12.6056 23.7334L12.6046 23.7328ZM20.4332 23.4414C20.0832 23.4414 19.8552 23.6051 19.6983 23.8502V23.5109H19.097V26.3009H19.7038V24.7369C19.7038 24.2752 19.9022 24.0187 20.2988 24.0187C20.4286 24.0168 20.5576 24.0407 20.6782 24.0889L20.8652 23.517C20.7309 23.4642 20.5558 23.4409 20.4329 23.4409L20.4332 23.4414ZM15.2557 23.5109H14.2636V22.6645H13.6502V23.5109H13.0843V24.0654H13.6502V25.3382C13.6502 25.9856 13.9015 26.3711 14.6192 26.3711C14.8826 26.3711 15.1859 26.2895 15.3783 26.1554L15.203 25.6359C15.022 25.7408 14.8236 25.7936 14.6658 25.7936C14.3625 25.7936 14.2636 25.6066 14.2636 25.3267V24.066H15.2557V23.5109ZM6.1847 26.3016V24.5506C6.1847 23.8912 5.76446 23.4475 5.08701 23.4416C4.73086 23.4356 4.36349 23.5464 4.10628 23.9379C3.91384 23.6285 3.61056 23.4416 3.1842 23.4416C2.88619 23.4416 2.59498 23.5291 2.36701 23.8558V23.5109H1.75977V26.3009H2.37177V24.7539C2.37177 24.2696 2.64037 24.0122 3.05517 24.0122C3.45807 24.0122 3.6619 24.2749 3.6619 24.7478V26.3006H4.27526V24.7536C4.27526 24.2693 4.55525 24.0119 4.95798 24.0119C5.37227 24.0119 5.56998 24.2745 5.56998 24.7475V26.3002L6.1847 26.3016Z" fill="#231F20"/>
<path d="M33.6763 17.0202V16.6123H33.5701L33.4471 16.8923L33.3249 16.6123H33.2183V17.0202H33.2938V16.7129L33.4087 16.9781H33.4869L33.6018 16.7123V17.0202H33.6766H33.6763ZM33.0023 17.0202V16.6822H33.1383V16.6133H32.7908V16.6822H32.9268V17.0202H33.0016H33.0023Z" fill="#F79410"/>
<path d="M21.5989 18.7701H12.4043V2.24609H21.599L21.5989 18.7701Z" fill="#FF5F00"/>
<path d="M12.988 10.5079C12.988 7.15603 14.5574 4.17015 17.0014 2.24592C15.1514 0.787235 12.8634 -0.00444604 10.5075 -0.000965133C4.70424 -0.000965133 0 4.70395 0 10.5079C0 16.3119 4.70424 21.0168 10.5075 21.0168C12.8634 21.0203 15.1516 20.2287 17.0015 18.7699C14.5578 16.846 12.988 13.86 12.988 10.5079Z" fill="#EB001B"/>
<path d="M34.0044 10.5089C34.0044 16.3129 29.3001 21.0178 23.4968 21.0178C21.1407 21.0212 18.8523 20.2296 17.002 18.7709C19.4466 16.8467 21.016 13.861 21.016 10.5089C21.016 7.15684 19.4466 4.17113 17.002 2.2469C18.8522 0.788255 21.1406 -0.00340847 23.4967 1.10312e-05C29.3 1.10312e-05 34.0042 4.70493 34.0042 10.5089" fill="#F79E1B"/>
</g>
<defs>
<clipPath id="clip0_3895_10567">
<rect width="34" height="26.452" fill="white"/>
</clipPath>
</defs>
</svg>
