<svg width="100" height="100" viewBox="0 0 100 100" fill="none" xmlns="http://www.w3.org/2000/svg">
<g id="multi-platform" clip-path="url(#clip0_4128_11058)">
<path id="Vector" fill-rule="evenodd" clip-rule="evenodd" d="M65.4318 69.1903H10.0874C7.3495 69.1903 5.12207 66.9637 5.12207 64.2249V19.3202C5.12207 16.5832 7.3495 14.3547 10.0874 14.3547H78.708C81.4457 14.3547 83.673 16.5832 83.673 19.3202L83.6731 35.0764C83.6731 35.6456 83.2129 36.1041 82.6453 36.1041C82.0778 36.1041 81.6176 35.6456 81.6176 35.0764L81.6177 19.3202C81.6177 17.7162 80.3123 16.4101 78.708 16.4101H10.0874C8.4828 16.4101 7.17741 17.7162 7.17741 19.3202V64.2249C7.17741 65.8307 8.4828 67.1349 10.0874 67.1349L65.4317 67.1349C65.9993 67.1349 66.4594 67.5953 66.4594 68.1626C66.4594 68.73 65.9993 69.1903 65.4318 69.1903Z" fill="url(#paint0_linear_4128_11058)"/>
<path id="Vector_2" fill-rule="evenodd" clip-rule="evenodd" d="M40.182 77.6772C39.6144 77.6772 39.1543 77.217 39.1543 76.6495V68.1621C39.1543 67.5948 39.6144 67.1344 40.182 67.1344C40.7495 67.1344 41.2097 67.5948 41.2097 68.1621V76.6495C41.2097 77.2169 40.7495 77.6773 40.182 77.6772ZM48.6127 77.6772C48.0451 77.6772 47.5851 77.217 47.5851 76.6495V68.1621C47.5851 67.5948 48.0451 67.1344 48.6127 67.1344C49.1804 67.1344 49.6404 67.5948 49.6404 68.1621V76.6495C49.6404 77.2169 49.1804 77.6773 48.6127 77.6772Z" fill="url(#paint1_linear_4128_11058)"/>
<path id="Vector_3" fill-rule="evenodd" clip-rule="evenodd" d="M32.8528 83.5902H55.9417V80.6338C55.9417 79.0031 54.6155 77.6775 52.9853 77.6775L35.8093 77.6774C34.1791 77.6774 32.8528 79.0031 32.8528 80.6338V83.5902ZM56.9694 85.6457H31.8252C31.2575 85.6457 30.7975 85.1853 30.7975 84.618L30.7975 80.6338C30.7975 77.8701 33.0458 75.622 35.8093 75.622H52.9853C55.7488 75.622 57.9972 77.8701 57.9972 80.6338V84.618C57.9972 85.1853 57.5369 85.6457 56.9694 85.6457ZM65.4316 58.7219H6.14971C5.58211 58.7219 5.12207 58.2634 5.12207 57.6942C5.12207 57.1268 5.58211 56.6683 6.14971 56.6683L65.4316 56.6683C65.9991 56.6683 66.4593 57.1268 66.4593 57.6942C66.4593 58.2634 65.9991 58.7219 65.4316 58.7219Z" fill="url(#paint2_linear_4128_11058)"/>
<path id="Vector_4" fill-rule="evenodd" clip-rule="evenodd" d="M67.7776 36.1056C67.0503 36.1056 66.4587 36.6962 66.4587 37.4242V82.2718C66.4587 82.9997 67.0503 83.5903 67.7775 83.5903H91.5038C92.2311 83.5903 92.8228 82.9998 92.8228 82.2718V37.4242C92.8228 36.6962 92.2311 36.1056 91.5038 36.1056H67.7776ZM91.5038 85.6457H67.7776C65.917 85.6457 64.4033 84.1327 64.4033 82.2718V37.4242C64.4033 35.5632 65.917 34.0502 67.7775 34.0502L91.5038 34.0502C93.3645 34.0502 94.8782 35.5632 94.8782 37.4242V82.2718C94.8782 84.1327 93.3644 85.6457 91.5038 85.6457Z" fill="url(#paint3_linear_4128_11058)"/>
<path id="Vector_5" fill-rule="evenodd" clip-rule="evenodd" d="M82.4476 39.4974H76.8338C76.2663 39.4974 75.8061 39.0389 75.8061 38.4697C75.8061 37.9023 76.2662 37.4438 76.8338 37.4438L82.4476 37.4438C83.0152 37.4438 83.4753 37.9023 83.4753 38.4697C83.4753 39.0389 83.0152 39.4974 82.4476 39.4974ZM79.6408 77.3404C78.8532 77.3404 78.2123 77.981 78.2123 78.7696C78.2124 79.5565 78.8532 80.197 79.6408 80.197C80.4284 80.197 81.069 79.5565 81.069 78.7696C81.0691 77.981 80.4283 77.3404 79.6408 77.3404ZM79.6408 82.2523C77.7198 82.2523 76.1571 80.6894 76.1571 78.7696C76.1572 76.848 77.7198 75.285 79.6408 75.285C81.5617 75.285 83.1244 76.848 83.1244 78.7696C83.1245 80.6894 81.5616 82.2523 79.6408 82.2523ZM44.3968 61.5928C43.66 61.5928 43.0601 62.1923 43.0601 62.9291C43.0601 63.666 43.6599 64.2655 44.3968 64.2655C45.1339 64.2655 45.7335 63.666 45.7335 62.9291C45.7336 62.1923 45.1338 61.5928 44.3968 61.5928ZM44.3968 66.3209C42.5264 66.3209 41.0049 64.7989 41.0049 62.9291C41.0049 61.0593 42.5264 59.5374 44.3968 59.5374C46.2672 59.5374 47.7889 61.0593 47.7889 62.9291C47.789 64.7989 46.2672 66.3209 44.3968 66.3209Z" fill="url(#paint4_linear_4128_11058)"/>
</g>
<defs>
<linearGradient id="paint0_linear_4128_11058" x1="5.12207" y1="14.3547" x2="87.6496" y2="21.736" gradientUnits="userSpaceOnUse">
<stop stop-color="#FF6C00"/>
<stop offset="1" stop-color="#8A00E1"/>
</linearGradient>
<linearGradient id="paint1_linear_4128_11058" x1="39.1543" y1="67.1344" x2="50.2167" y2="67.8214" gradientUnits="userSpaceOnUse">
<stop stop-color="#FF6C00"/>
<stop offset="1" stop-color="#8A00E1"/>
</linearGradient>
<linearGradient id="paint2_linear_4128_11058" x1="5.12207" y1="56.6683" x2="68.9648" y2="65.1058" gradientUnits="userSpaceOnUse">
<stop stop-color="#FF6C00"/>
<stop offset="1" stop-color="#8A00E1"/>
</linearGradient>
<linearGradient id="paint3_linear_4128_11058" x1="64.4033" y1="34.0502" x2="96.6332" y2="35.2388" gradientUnits="userSpaceOnUse">
<stop stop-color="#FF6C00"/>
<stop offset="1" stop-color="#8A00E1"/>
</linearGradient>
<linearGradient id="paint4_linear_4128_11058" x1="41.0049" y1="37.4438" x2="85.8253" y2="40.0962" gradientUnits="userSpaceOnUse">
<stop stop-color="#FF6C00"/>
<stop offset="1" stop-color="#8A00E1"/>
</linearGradient>
<clipPath id="clip0_4128_11058">
<rect width="100" height="100" fill="white"/>
</clipPath>
</defs>
</svg>
