<svg width="80" height="80" viewBox="0 0 80 80" fill="none" xmlns="http://www.w3.org/2000/svg">
<g id="organized">
<path id="Vector" d="M30.2412 19.7803H53.036C53.3675 19.7803 53.6855 19.6486 53.9199 19.4141C54.1543 19.1797 54.286 18.8618 54.286 18.5303V9.2395C54.286 8.90798 54.1543 8.59005 53.9199 8.35563C53.6855 8.12122 53.3675 7.98952 53.036 7.9895H30.2412C29.9097 7.98952 29.5918 8.12122 29.3573 8.35564C29.1229 8.59005 28.9912 8.90799 28.9912 9.2395V18.5303C28.9912 18.8618 29.1229 19.1797 29.3573 19.4141C29.5918 19.6486 29.9097 19.7803 30.2412 19.7803ZM31.4912 10.4895H51.786V17.2803H31.4912V10.4895ZM28.9912 36.1804C28.9912 36.5119 29.1229 36.8299 29.3573 37.0643C29.5918 37.2987 29.9097 37.4304 30.2412 37.4304H58.9814C59.313 37.4304 59.6309 37.2987 59.8653 37.0643C60.0997 36.8299 60.2314 36.5119 60.2314 36.1804V26.8897C60.2314 26.5581 60.0997 26.2402 59.8653 26.0058C59.6309 25.7714 59.313 25.6397 58.9814 25.6397H30.2412C29.9097 25.6397 29.5918 25.7714 29.3573 26.0058C29.1229 26.2402 28.9912 26.5581 28.9912 26.8897V36.1804ZM31.4912 28.1397H57.7314V34.9304H31.4912V28.1397ZM28.9912 53.8306C28.9912 54.1621 29.1229 54.48 29.3573 54.7144C29.5918 54.9488 29.9097 55.0805 30.2412 55.0806H64.9269C65.2584 55.0805 65.5763 54.9488 65.8107 54.7144C66.0452 54.48 66.1769 54.1621 66.1769 53.8306V44.5398C66.1769 44.2083 66.0452 43.8904 65.8107 43.6559C65.5763 43.4215 65.2584 43.2898 64.9269 43.2898H30.2412C29.9097 43.2898 29.5918 43.4215 29.3573 43.6559C29.1229 43.8904 28.9912 44.2083 28.9912 44.5398V53.8306ZM31.4912 45.7898H63.6769V52.5806H31.4912V45.7898ZM28.9912 71.4807C28.9912 71.8122 29.1229 72.1302 29.3573 72.3646C29.5918 72.599 29.9097 72.7307 30.2412 72.7307H70.8723C71.2038 72.7307 71.5218 72.599 71.7562 72.3646C71.9906 72.1302 72.1223 71.8122 72.1223 71.4807V62.19C72.1223 61.8585 71.9906 61.5406 71.7562 61.3061C71.5217 61.0717 71.2038 60.94 70.8723 60.94H30.2412C29.9097 60.94 29.5918 61.0717 29.3573 61.3061C29.1229 61.5406 28.9912 61.8585 28.9912 62.19V71.4807ZM31.4912 63.4399H69.6223V70.2307H31.4912V63.4399ZM25.7484 73.75V6.25C25.7484 5.91848 25.6167 5.60054 25.3823 5.36612C25.1479 5.1317 24.8299 5 24.4984 5C24.1669 5 23.8489 5.1317 23.6145 5.36612C23.3801 5.60054 23.2484 5.91848 23.2484 6.25V73.75C23.2484 74.0815 23.3801 74.3995 23.6145 74.6339C23.8489 74.8683 24.1669 75 24.4984 75C24.8299 75 25.1479 74.8683 25.3823 74.6339C25.6167 74.3995 25.7484 74.0815 25.7484 73.75ZM12.6582 18.6652C13.6036 18.6652 14.5279 18.3848 15.314 17.8595C16.1001 17.3343 16.7128 16.5877 17.0746 15.7142C17.4364 14.8407 17.5311 13.8796 17.3466 12.9523C17.1622 12.025 16.7069 11.1733 16.0384 10.5047C15.3698 9.83619 14.5181 9.38091 13.5908 9.19647C12.6635 9.01202 11.7024 9.10668 10.8289 9.46849C9.95539 9.8303 9.20882 10.443 8.68355 11.2291C8.15829 12.0152 7.87793 12.9394 7.87793 13.8849C7.87927 15.1523 8.38334 16.3674 9.27952 17.2636C10.1757 18.1597 11.3908 18.6638 12.6582 18.6652ZM12.6582 11.6046C13.1092 11.6046 13.5501 11.7383 13.925 11.9889C14.3 12.2395 14.5923 12.5956 14.7649 13.0123C14.9375 13.4289 14.9826 13.8874 14.8947 14.3297C14.8067 14.7721 14.5895 15.1784 14.2706 15.4973C13.9517 15.8162 13.5454 16.0334 13.1031 16.1213C12.6607 16.2093 12.2023 16.1642 11.7856 15.9916C11.3689 15.819 11.0128 15.5267 10.7622 15.1517C10.5117 14.7768 10.3779 14.3359 10.3779 13.8849C10.3786 13.2803 10.6191 12.7007 11.0466 12.2733C11.474 11.8458 12.0536 11.6053 12.6582 11.6046ZM12.6582 36.3153C13.6036 36.3153 14.5279 36.035 15.314 35.5097C16.1001 34.9844 16.7128 34.2379 17.0746 33.3644C17.4364 32.4909 17.5311 31.5298 17.3466 30.6025C17.1622 29.6752 16.7069 28.8234 16.0384 28.1549C15.3699 27.4864 14.5181 27.0311 13.5908 26.8466C12.6635 26.6622 11.7024 26.7568 10.8289 27.1186C9.95542 27.4804 9.20884 28.0931 8.68357 28.8792C8.1583 29.6653 7.87794 30.5896 7.87793 31.535C7.87927 32.8024 8.38333 34.0175 9.27951 34.9137C10.1757 35.8099 11.3908 36.314 12.6582 36.3153ZM12.6582 29.2548C13.1092 29.2548 13.5501 29.3885 13.9251 29.6391C14.3 29.8896 14.5923 30.2457 14.7649 30.6624C14.9375 31.0791 14.9826 31.5376 14.8947 31.9799C14.8067 32.4222 14.5895 32.8285 14.2706 33.1474C13.9517 33.4663 13.5454 33.6835 13.103 33.7715C12.6607 33.8595 12.2022 33.8143 11.7856 33.6417C11.3689 33.4691 11.0128 33.1769 10.7622 32.8019C10.5117 32.4269 10.3779 31.986 10.3779 31.535C10.3786 30.9305 10.6191 30.3509 11.0466 29.9234C11.4741 29.4959 12.0536 29.2555 12.6582 29.2548ZM12.6582 53.9655C13.6036 53.9655 14.5279 53.6851 15.314 53.1598C16.1001 52.6346 16.7128 51.888 17.0746 51.0145C17.4364 50.141 17.5311 49.1799 17.3466 48.2526C17.1622 47.3253 16.7069 46.4735 16.0384 45.805C15.3698 45.1365 14.5181 44.6812 13.5908 44.4967C12.6635 44.3123 11.7024 44.407 10.8289 44.7688C9.95539 45.1306 9.20882 45.7433 8.68355 46.5294C8.15829 47.3155 7.87793 48.2397 7.87793 49.1852C7.87927 50.4526 8.38334 51.6677 9.27952 52.5639C10.1757 53.46 11.3908 53.9641 12.6582 53.9655ZM12.6582 46.9049C13.1092 46.9049 13.5501 47.0386 13.925 47.2892C14.3 47.5398 14.5923 47.8959 14.7649 48.3126C14.9375 48.7292 14.9826 49.1877 14.8947 49.63C14.8067 50.0724 14.5895 50.4787 14.2706 50.7976C13.9517 51.1165 13.5454 51.3337 13.1031 51.4216C12.6607 51.5096 12.2022 51.4645 11.7856 51.2919C11.3689 51.1193 11.0128 50.827 10.7622 50.452C10.5117 50.077 10.3779 49.6362 10.3779 49.1852C10.3786 48.5806 10.6191 48.001 11.0466 47.5736C11.4741 47.1461 12.0536 46.9056 12.6582 46.9049ZM12.6582 71.6156C13.6036 71.6155 14.5277 71.3352 15.3137 70.8099C16.0997 70.2847 16.7124 69.5381 17.0741 68.6647C17.4359 67.7913 17.5305 66.8302 17.3461 65.903C17.1616 64.9758 16.7064 64.1241 16.0379 63.4556C15.3694 62.7872 14.5177 62.3319 13.5905 62.1475C12.6633 61.963 11.7023 62.0576 10.8288 62.4194C9.95541 62.7812 9.20888 63.3938 8.68362 64.1798C8.15837 64.9658 7.87798 65.89 7.87793 66.8353C7.87927 68.1027 8.38334 69.3178 9.27952 70.214C10.1757 71.1102 11.3908 71.6143 12.6582 71.6156ZM12.6582 64.5557C13.1091 64.5557 13.5499 64.6895 13.9249 64.9401C14.2998 65.1906 14.592 65.5468 14.7645 65.9634C14.937 66.38 14.9821 66.8385 14.8941 67.2808C14.806 67.723 14.5888 68.1293 14.2699 68.4481C13.951 68.7669 13.5447 68.984 13.1024 69.0719C12.6601 69.1598 12.2017 69.1146 11.7851 68.942C11.3685 68.7694 11.0125 68.4771 10.762 68.1021C10.5115 67.7271 10.3779 67.2863 10.3779 66.8353C10.3787 66.2309 10.6193 65.6514 11.0467 65.2241C11.4742 64.7967 12.0537 64.5563 12.6582 64.5557Z" fill="url(#paint0_linear_4128_11069)"/>
</g>
<defs>
<linearGradient id="paint0_linear_4128_11069" x1="7.87793" y1="5" x2="75.6918" y2="8.88593" gradientUnits="userSpaceOnUse">
<stop stop-color="#FF6C00"/>
<stop offset="1" stop-color="#8A00E1"/>
</linearGradient>
</defs>
</svg>
