<svg width="48" height="49" viewBox="0 0 48 49" fill="none" xmlns="http://www.w3.org/2000/svg">
<path d="M29 17.9751C27.4386 17.5703 25.2688 16.9751 23.5294 16.9751C14.9527 16.9751 8 22.3103 8 28.8917C8 32.6737 10.2959 36.0441 13.8765 38.2273L12.9064 41.4269C12.6727 42.1975 13.2494 42.9751 14.0547 42.9751H17.5829C17.8427 42.9751 18.0955 42.8909 18.3032 42.7349L21.0924 40.6417H25.9662L28.7554 42.7349C28.9632 42.8909 29.216 42.9751 29.4758 42.9751H33.004C33.8092 42.9751 34.386 42.1975 34.1522 41.4269L33.1822 38.2273C35.3154 36.9267 36.9926 35.2045 38 33.2251" stroke="#DC3450" stroke-width="1.5" stroke-linecap="round" stroke-linejoin="round"/>
<path d="M29 17.9751L38 14.9751L37.832 22.2317L42 23.9751V30.9751L38.1482 32.9751" stroke="#DC3450" stroke-width="1.5" stroke-linecap="round" stroke-linejoin="round"/>
<path d="M31 26.9751C30.4478 26.9751 30 26.5273 30 25.9751C30 25.4229 30.4478 24.9751 31 24.9751C31.5522 24.9751 32 25.4229 32 25.9751C32 26.5273 31.5522 26.9751 31 26.9751Z" fill="#DC3450" stroke="#DC3450" stroke-width="1.5" stroke-linecap="round" stroke-linejoin="round"/>
<path d="M4 20.9751C4 20.9751 4 25.7751 8 26.9751" stroke="#DC3450" stroke-width="1.5" stroke-linecap="round" stroke-linejoin="round"/>
<path d="M25.6016 16.481C25.8596 15.7377 26 14.9378 26 14.1045C26 10.1671 22.866 6.9751 19 6.9751C15.134 6.9751 12 10.1671 12 14.1045C12 15.9879 12.717 17.7006 13.8881 18.9751" stroke="#DC3450" stroke-width="1.5" stroke-linejoin="round"/>
</svg>
