<svg width="16" height="16" viewBox="0 0 16 16" fill="none" xmlns="http://www.w3.org/2000/svg">
<path id="pinterest" d="M8.04883 0.200195C3.64883 0.200195 0.0488281 3.8002 0.0488281 8.2002C0.0488281 11.5002 2.04883 14.3002 4.84883 15.5002C4.84883 14.9002 4.84882 14.3002 4.94882 13.7002C5.14882 13.0002 5.94882 9.3002 5.94882 9.3002C5.94882 9.3002 5.64883 8.8002 5.64883 8.0002C5.64883 6.8002 6.34883 5.9002 7.14883 5.9002C7.84883 5.9002 8.24883 6.4002 8.24883 7.10019C8.24883 7.80019 7.74883 8.9002 7.54883 9.9002C7.34883 10.7002 7.94883 11.4002 8.84883 11.4002C10.3488 11.4002 11.3488 9.50019 11.3488 7.10019C11.3488 5.30019 10.1488 4.0002 8.04883 4.0002C5.64883 4.0002 4.14883 5.8002 4.14883 7.8002C4.14883 8.5002 4.34883 9.0002 4.64883 9.4002C4.74883 9.6002 4.84882 9.6002 4.74883 9.8002C4.74883 9.9002 4.64883 10.3002 4.54883 10.4002C4.44883 10.6002 4.34883 10.7002 4.14883 10.6002C3.04883 10.1002 2.54883 8.9002 2.54883 7.5002C2.54883 5.2002 4.44882 2.5002 8.24883 2.5002C11.3488 2.5002 13.3488 4.70019 13.3488 7.10019C13.3488 10.2002 11.6488 12.6002 9.04883 12.6002C8.14883 12.6002 7.34883 12.1002 7.04883 11.6002C7.04883 11.6002 6.54882 13.4002 6.44882 13.8002C6.24882 14.4002 5.94883 15.0002 5.64883 15.5002C6.34883 15.7002 7.14882 15.8002 7.94882 15.8002C12.3488 15.8002 15.9488 12.2002 15.9488 7.8002C16.0488 3.8002 12.4488 0.200195 8.04883 0.200195Z" fill="black"/>
</svg>
