<svg width="20" height="20" viewBox="0 0 20 20" fill="none" xmlns="http://www.w3.org/2000/svg">
<path d="M4.1665 4.15803C4.1665 3.34873 4.1665 2.94407 4.33525 2.72101C4.48225 2.52669 4.70694 2.40644 4.95017 2.39192C5.22937 2.37525 5.56606 2.59971 6.23944 3.04863L15.0024 8.89061C15.5588 9.26154 15.837 9.44701 15.934 9.68078C16.0187 9.88516 16.0187 10.1149 15.934 10.3192C15.837 10.553 15.5588 10.7385 15.0024 11.1094L6.23944 16.9514C5.56606 17.4003 5.22937 17.6248 4.95017 17.6081C4.70694 17.5936 4.48225 17.4733 4.33525 17.279C4.1665 17.0559 4.1665 16.6513 4.1665 15.842V4.15803Z" stroke="white" stroke-width="1.5" stroke-linecap="round" stroke-linejoin="round"/>
</svg>
