<svg width="22" height="23" viewBox="0 0 22 23" fill="none" xmlns="http://www.w3.org/2000/svg">
<path d="M22 5.375V1.375C22 1.10978 21.8946 0.855429 21.7071 0.667892C21.5196 0.480356 21.2652 0.375 21 0.375H1C0.734784 0.375 0.480429 0.480356 0.292892 0.667892C0.105356 0.855429 0 1.10978 0 1.375V5.375H22Z" fill="#BD5AF9"/>
<path d="M0 7.375V21.375C0 21.6402 0.105356 21.8946 0.292892 22.0821C0.480429 22.2696 0.734784 22.375 1 22.375H6V7.375H0Z" fill="#BD5AF9"/>
<path d="M8 22.375H21C21.2652 22.375 21.5196 22.2696 21.7071 22.0821C21.8946 21.8946 22 21.6402 22 21.375V7.375H8V22.375Z" fill="#BD5AF9"/>
</svg>
