<svg width="180" height="180" viewBox="0 0 180 180" fill="none" xmlns="http://www.w3.org/2000/svg">
<path fill-rule="evenodd" clip-rule="evenodd" d="M158.688 93.6239C158.688 103.788 156.48 113.436 152.52 122.112C152.496 122.16 152.484 122.208 152.46 122.244C150.804 125.856 148.836 129.312 146.592 132.552C144.312 135.852 141.756 138.948 138.948 141.804C137.832 142.944 136.68 144.036 135.48 145.092C133.836 146.544 132.12 147.924 130.344 149.22C124.788 153.264 118.596 156.492 111.948 158.736C109.02 159.72 106.008 160.512 102.912 161.1C98.724 161.892 94.404 162.312 89.988 162.312C71.712 162.312 55.092 155.172 42.792 143.52C32.532 133.812 25.26 120.96 22.512 106.512C21.768 102.6 21.36 98.5799 21.312 94.464C21.312 94.188 21.312 93.8999 21.312 93.6239C21.312 82.3439 24.036 71.7 28.848 62.304C29.292 61.4399 29.748 60.5879 30.228 59.7359C34.848 51.5999 41.088 44.4959 48.504 38.8679C52.776 35.6159 57.456 32.8679 62.424 30.6839C70.86 26.976 80.184 24.924 90 24.924C102.468 24.924 114.156 28.2479 124.236 34.0559C127.008 35.6519 129.66 37.4399 132.168 39.3959C136.524 42.7919 140.472 46.704 143.892 51.024C144.504 51.792 145.092 52.5719 145.668 53.3759C147.444 55.8239 149.052 58.392 150.492 61.068C155.724 70.764 158.688 81.8519 158.688 93.6239Z" fill="#F7EAFE"/>
<path fill-rule="evenodd" clip-rule="evenodd" d="M130.944 155.256C130.788 155.328 130.632 155.4 130.464 155.472C130.308 155.544 130.14 155.616 129.984 155.688C129.828 155.76 129.66 155.832 129.504 155.892C129.36 155.952 129.204 156.012 129.06 156.072C128.7 156.216 128.328 156.36 127.968 156.504C127.836 156.552 127.704 156.6 127.56 156.648C127.392 156.708 127.236 156.768 127.068 156.816C126.924 156.864 126.768 156.912 126.612 156.972C126.564 156.984 126.528 156.996 126.48 157.008C126.348 157.056 126.204 157.092 126.072 157.14C125.904 157.188 125.736 157.236 125.58 157.296C125.412 157.344 125.244 157.392 125.076 157.44C124.944 157.476 124.812 157.512 124.668 157.548C124.608 157.56 124.548 157.584 124.476 157.596C124.38 157.62 124.272 157.644 124.176 157.668C124.116 157.68 124.056 157.692 124.008 157.716C123.696 157.8 123.384 157.872 123.06 157.944C122.916 157.98 122.784 158.004 122.64 158.04C122.592 158.052 122.532 158.064 122.484 158.076C122.34 158.1 122.196 158.136 122.052 158.16C121.884 158.196 121.716 158.22 121.548 158.256C121.38 158.28 121.212 158.316 121.056 158.34C120.864 158.376 120.66 158.4 120.468 158.436C120.336 158.46 120.204 158.472 120.084 158.496C119.76 158.544 119.436 158.58 119.112 158.616C119.04 158.628 118.956 158.628 118.884 158.64C118.764 158.652 118.632 158.664 118.512 158.676C118.416 158.688 118.32 158.688 118.236 158.7C118.152 158.712 118.056 158.712 117.972 158.724C117.84 158.736 117.72 158.748 117.588 158.748C117.516 158.76 117.444 158.76 117.372 158.76C117.252 158.772 117.132 158.772 117.012 158.784C116.64 158.808 116.268 158.82 115.908 158.832C115.764 158.832 115.62 158.844 115.476 158.844C114.312 158.868 113.148 158.82 111.984 158.736C109.056 159.72 106.044 160.512 102.948 161.1C98.76 161.892 94.44 162.312 90.024 162.312C71.748 162.312 55.128 155.172 42.828 143.52C32.568 133.812 25.296 120.96 22.548 106.512L21.432 95.304L21.348 94.464L18.24 63.36L28.884 62.292L42.36 60.96L47.328 60.468L47.568 60.444L56.688 59.532L72.636 57.936L118.38 53.364L120.732 53.124L120.768 53.496L123.888 84.744L123.924 85.08L124.32 89.064L124.572 91.584L126.54 111.312L126.708 112.944L127.116 117.06L130.248 148.428L130.332 149.244L130.944 155.256Z" fill="#D9A0FC"/>
<path fill-rule="evenodd" clip-rule="evenodd" d="M151.02 51.42L150.9 53.58L150.492 61.068L148.164 103.752L147.972 107.292L147.384 118.152L146.604 132.552L142.344 142.596L145.884 145.8L145.812 147.192L145.224 158.028L138.06 150.864C137.916 150.972 137.772 151.092 137.628 151.2C137.496 151.296 137.364 151.404 137.232 151.5C137.232 151.512 137.22 151.512 137.22 151.512C137.076 151.62 136.944 151.716 136.8 151.812C136.632 151.932 136.452 152.052 136.284 152.172C136.2 152.232 136.116 152.292 136.032 152.352C135.492 152.724 134.94 153.072 134.376 153.42C134.184 153.528 134.004 153.648 133.812 153.756C133.668 153.84 133.512 153.924 133.368 154.008C133.296 154.056 133.212 154.092 133.14 154.14C133.032 154.2 132.924 154.26 132.816 154.32C132.684 154.392 132.552 154.464 132.408 154.536C132.084 154.704 131.76 154.872 131.424 155.04C131.28 155.112 131.124 155.184 130.98 155.256H130.968C130.812 155.328 130.656 155.4 130.488 155.472C130.332 155.544 130.164 155.616 130.008 155.688C129.852 155.76 129.684 155.832 129.528 155.892C129.384 155.952 129.228 156.012 129.084 156.072C128.724 156.216 128.352 156.36 127.992 156.504C127.86 156.552 127.728 156.6 127.584 156.648C127.416 156.708 127.26 156.768 127.092 156.816C126.948 156.864 126.792 156.912 126.636 156.972C126.588 156.984 126.552 156.996 126.504 157.008C126.372 157.056 126.228 157.092 126.096 157.14C125.928 157.188 125.76 157.236 125.604 157.296C125.436 157.344 125.268 157.392 125.1 157.44C124.968 157.476 124.836 157.512 124.692 157.548C124.632 157.56 124.572 157.584 124.5 157.596C124.404 157.62 124.296 157.644 124.2 157.668C124.14 157.68 124.08 157.692 124.032 157.716C123.72 157.8 123.408 157.872 123.084 157.944C122.94 157.98 122.808 158.004 122.664 158.04C122.616 158.052 122.556 158.064 122.508 158.076C122.364 158.1 122.22 158.136 122.076 158.16C121.908 158.196 121.74 158.22 121.572 158.256C121.404 158.28 121.236 158.316 121.08 158.34C120.888 158.376 120.684 158.4 120.492 158.436C120.36 158.46 120.228 158.472 120.108 158.496C119.784 158.544 119.46 158.58 119.136 158.616C119.064 158.628 118.98 158.628 118.908 158.64C118.788 158.652 118.656 158.664 118.536 158.676C118.44 158.688 118.344 158.688 118.26 158.7C118.176 158.712 118.08 158.712 117.996 158.724C117.864 158.736 117.744 158.748 117.612 158.748C117.54 158.76 117.468 158.76 117.396 158.76C117.276 158.772 117.156 158.772 117.036 158.784C116.664 158.808 116.292 158.82 115.932 158.832C115.788 158.832 115.644 158.844 115.5 158.844C114.336 158.868 113.172 158.82 112.008 158.736C109.08 159.72 106.068 160.512 102.972 161.1C98.784 161.892 94.4641 162.312 90.0481 162.312C71.7721 162.312 55.1521 155.172 42.8521 143.52L43.248 136.236V136.188L45.6121 92.904L47.376 60.456L47.508 58.02L48.168 45.804L57.2641 46.296L124.584 49.968L131.688 50.352L143.94 51.024L148.74 51.288L151.02 51.42Z" fill="#E5BFFD"/>
<path fill-rule="evenodd" clip-rule="evenodd" d="M152.52 122.112C152.208 128.832 150.384 135.552 146.712 141.264C146.508 141.6 142.104 141.828 141.888 142.152C148.536 147.636 146.424 146.496 140.448 153.264C138.552 151.44 138.372 150.132 136.008 152.352C126.3 159.828 113.964 157.728 102.924 161.1C84.0839 155.16 72.8999 132.876 79.1399 114.432C90.4439 75.684 149.46 81.732 152.52 122.112Z" fill="#D9A0FC"/>
<path fill-rule="evenodd" clip-rule="evenodd" d="M123.936 85.08L109.176 86.544L97.9081 87.672L65.9521 90.864L45.6961 92.892L45.5641 92.904L42.5161 93.204L21.3961 95.316L21.3121 94.476L17.9641 60.972L30.2401 59.748L47.4601 58.02L56.8321 57.084L56.9521 57.072L102.696 52.512L120.504 50.724L120.78 53.496L123.912 84.744L123.936 85.08Z" fill="#D9A0FC"/>
<path fill-rule="evenodd" clip-rule="evenodd" d="M47.7119 57.996L42.3479 58.536L42.7799 143.496L47.7119 57.996Z" fill="#C775FA"/>
<path fill-rule="evenodd" clip-rule="evenodd" d="M150.912 53.58L150.504 61.068L148.176 103.752L147.384 118.152L145.932 118.08L125.952 116.988L118.98 116.604L84.3359 114.72L77.8919 114.36L44.5679 112.548H44.4839L45.5639 92.904L47.4599 58.02L48.5039 38.88L48.9959 29.964L62.4239 30.696L124.236 34.068L132.396 34.512L150.912 53.58Z" fill="#E5BFFD"/>
<path d="M57.3838 43.3607L57.021 50.0107L124.336 53.6829L124.699 47.0329L57.3838 43.3607Z" fill="#F7EAFE"/>
<path d="M56.8344 57.0733L56.4717 63.7233L97.2584 65.9483L97.6212 59.2982L56.8344 57.0733Z" fill="#F7EAFE"/>
<path d="M56.0148 83.6542L55.6521 90.3042L120.486 93.8405L120.849 87.1905L56.0148 83.6542Z" fill="#F7EAFE"/>
<path d="M55.5431 99.5863L55.1804 106.236L74.6631 107.299L75.0258 100.649L55.5431 99.5863Z" fill="#F7EAFE"/>
<path fill-rule="evenodd" clip-rule="evenodd" d="M158.904 165.276C157.128 167.052 154.236 167.052 152.448 165.276L145.2 158.028L136.656 149.484C135.468 148.296 135.072 146.604 135.48 145.092C135.528 144.888 135.6 144.696 135.684 144.504C135.9 143.976 136.236 143.472 136.668 143.04C137.1 142.608 137.604 142.284 138.132 142.056C138.396 141.948 138.672 141.864 138.948 141.804C140.4 141.504 141.984 141.912 143.112 143.04L144.48 144.408L145.86 145.8L158.892 158.832C160.692 160.608 160.692 163.5 158.904 165.276Z" fill="#7A23B0"/>
<path fill-rule="evenodd" clip-rule="evenodd" d="M152.472 121.596C151.2 168.54 83.16 171.708 77.472 125.16C73.692 73.02 151.2 69.132 152.472 121.596Z" fill="#AC31F8"/>
<path d="M114.876 152.46C132.114 152.46 146.088 138.486 146.088 121.248C146.088 104.01 132.114 90.036 114.876 90.036C97.6381 90.036 83.6641 104.01 83.6641 121.248C83.6641 138.486 97.6381 152.46 114.876 152.46Z" fill="#F7EAFE"/>
<path d="M126.72 112.932C126.708 112.368 126.66 111.828 126.552 111.3C126.168 109.212 125.124 107.388 123.396 105.804C121.224 103.824 118.332 102.804 114.696 102.804C111.252 102.804 108.492 103.752 106.392 105.612C104.868 106.956 103.776 108.72 103.128 110.916C102.564 112.812 103.86 114.756 105.816 114.984C107.364 115.164 108.828 114.204 109.26 112.716C109.644 111.42 110.196 110.412 110.952 109.692C111.972 108.744 113.244 108.276 114.756 108.276C116.34 108.276 117.672 108.792 118.764 109.848C119.832 110.88 120.372 112.08 120.372 113.448C120.372 114.168 120.204 114.84 119.856 115.452C119.664 115.788 119.364 116.172 118.956 116.604C118.5 117.096 117.924 117.648 117.216 118.272C115.704 119.604 114.672 120.624 114.084 121.32C113.244 122.34 112.632 123.348 112.26 124.344C111.756 125.64 111.492 127.188 111.492 128.976C111.492 130.224 112.512 131.244 113.76 131.244H115.332C116.544 131.244 117.54 130.296 117.6 129.084C117.648 128.112 117.744 127.356 117.876 126.852C118.044 126.228 118.296 125.676 118.656 125.196C119.052 124.656 119.904 123.816 121.2 122.664C123.348 120.756 124.788 119.124 125.52 117.792C125.664 117.528 125.796 117.264 125.916 116.988C126.432 115.8 126.696 114.528 126.696 113.172C126.72 113.088 126.72 113.016 126.72 112.932ZM114.672 132.888C112.8 132.888 111.276 134.412 111.276 136.284C111.276 138.168 112.8 139.68 114.672 139.68C116.556 139.68 118.068 138.156 118.068 136.284C118.068 134.412 116.544 132.888 114.672 132.888Z" fill="#AC31F8"/>
<path fill-rule="evenodd" clip-rule="evenodd" d="M150.912 53.58L145.668 53.388L131.52 52.86L132.168 39.396L132.396 34.512L150.912 53.58Z" fill="#D9A0FC"/>
</svg>
