<svg width="100" height="100" viewBox="0 0 100 100" fill="none" xmlns="http://www.w3.org/2000/svg">
<g clip-path="url(#clip0_4128_11025)">
<path d="M49.375 36.6284C50.4159 36.6325 51.4522 36.766 52.4602 37.026L53.5133 34.7092C50.3754 33.8162 47.0327 33.9631 43.9852 35.1278C40.9377 36.2926 38.3492 38.4125 36.6067 41.1707C34.8642 43.9289 34.0614 47.177 34.3184 50.4294C34.5754 53.6817 35.8784 56.7634 38.0325 59.2137C40.1865 61.664 43.0759 63.3511 46.2685 64.0227C49.4611 64.6943 52.7853 64.3144 55.744 62.9397C58.7027 61.565 61.1369 59.2695 62.6826 56.3963C64.2282 53.5232 64.8022 50.2269 64.3187 47.0005L61.9264 48.0729C61.9619 48.4574 61.9855 48.8453 61.9855 49.2389C61.9855 51.733 61.2459 54.1711 59.8602 56.2449C58.4746 58.3187 56.5051 59.935 54.2008 60.8894C51.8965 61.8439 49.361 62.0936 46.9148 61.607C44.4686 61.1205 42.2216 59.9194 40.458 58.1558C38.6944 56.3922 37.4934 54.1452 37.0068 51.699C36.5202 49.2529 36.77 46.7173 37.7244 44.413C38.6789 42.1088 40.2952 40.1393 42.369 38.7536C44.4428 37.368 46.8809 36.6284 49.375 36.6284Z" fill="url(#paint0_linear_4128_11025)"/>
<path d="M88.5742 39.2731L86.0382 32.6501C85.9134 32.3244 85.7255 32.0264 85.4853 31.7734C85.2452 31.5203 84.9574 31.3172 84.6386 31.1755C84.3198 31.0339 83.9761 30.9566 83.6274 30.948C83.2786 30.9394 82.9316 30.9997 82.6062 31.1255L81.3009 31.6304L76.9744 35.9567C77.0568 35.943 77.1376 35.921 77.2156 35.8911L83.5077 33.457C83.5262 33.4498 83.546 33.4463 83.566 33.4469C83.5859 33.4474 83.6055 33.4519 83.6236 33.4601C83.642 33.4679 83.6586 33.4794 83.6723 33.4939C83.6861 33.5084 83.6967 33.5255 83.7036 33.5443L86.2396 40.1672C86.2467 40.1858 86.2501 40.2055 86.2496 40.2254C86.249 40.2453 86.2446 40.2648 86.2365 40.283C86.2284 40.3011 86.2168 40.3175 86.2023 40.3311C86.1879 40.3448 86.1709 40.3555 86.1523 40.3625L79.4574 42.9553C79.1896 43.0592 78.9657 43.2522 78.8235 43.5017C78.6812 43.7512 78.6292 44.0422 78.6761 44.3255C79.3749 48.585 79.1515 52.9448 78.0212 57.1106C77.9404 57.4055 77.9706 57.7198 78.106 57.994C78.2414 58.2681 78.4728 58.4831 78.7561 58.598L85.965 61.5289C86.0022 61.5442 86.0318 61.5736 86.0475 61.6106C86.0631 61.6477 86.0635 61.6894 86.0486 61.7267L83.4033 68.2953C83.3961 68.3139 83.3852 68.3309 83.3713 68.3452C83.3573 68.3595 83.3406 68.3707 83.3221 68.3783C83.304 68.3862 83.2844 68.3904 83.2646 68.3906C83.2448 68.3908 83.2251 68.3871 83.2068 68.3796L75.6109 65.2894C75.3436 65.1804 75.0467 65.1675 74.7709 65.2527C74.495 65.338 74.2572 65.5161 74.0979 65.7569C71.7511 69.2877 68.6841 72.2823 65.0983 74.5441C64.8443 74.7036 64.6562 74.9492 64.5683 75.236C64.4805 75.5227 64.4987 75.8315 64.6197 76.106L68.1158 84.0466C68.1321 84.0834 68.1331 84.1251 68.1187 84.1626C68.1043 84.2001 68.0756 84.2304 68.039 84.2468L61.5955 87.1161C61.5773 87.1243 61.5577 87.1287 61.5378 87.1293C61.5179 87.1298 61.498 87.1263 61.4795 87.1191C61.4609 87.1119 61.4439 87.1011 61.4296 87.0873C61.4152 87.0734 61.4038 87.0569 61.3959 87.0386L57.8271 78.9368C57.7085 78.6681 57.4992 78.4497 57.2357 78.3199C56.9722 78.1901 56.6714 78.1572 56.3861 78.227C52.0763 79.2699 47.5883 79.3396 43.2483 78.4308C42.9605 78.3692 42.6603 78.4112 42.4005 78.5495C42.1408 78.6877 41.9382 78.9133 41.8286 79.1864L38.5199 87.4054C38.5125 87.4239 38.5016 87.4406 38.4877 87.4548C38.4738 87.469 38.4572 87.4803 38.439 87.488C38.4207 87.4957 38.4011 87.4997 38.3812 87.4998C38.3614 87.4999 38.3417 87.496 38.3234 87.4884L31.7957 84.8328C31.7586 84.8175 31.7292 84.7882 31.7138 84.7512C31.6983 84.7143 31.6981 84.6727 31.7132 84.6357L34.9615 76.5644C35.0734 76.2863 35.0818 75.9774 34.985 75.6937C34.8882 75.41 34.6927 75.1706 34.4342 75.019C30.3666 72.6262 26.9202 69.3086 24.3743 65.3351C24.2189 65.0921 23.9843 64.9104 23.7102 64.8207C23.4361 64.7311 23.1394 64.739 22.8704 64.8431L15.2404 67.793C15.222 67.8002 15.2024 67.8037 15.1826 67.8032C15.1628 67.8028 15.1433 67.7984 15.1252 67.7903C15.1072 67.7822 15.0909 67.7707 15.0773 67.7562C15.0638 67.7418 15.0533 67.7248 15.0463 67.7063L12.5103 61.0834C12.4961 61.0459 12.4973 61.0043 12.5135 60.9676C12.5297 60.931 12.5597 60.9021 12.597 60.8874L19.8327 58.0902C20.1178 57.9803 20.3527 57.7697 20.4929 57.4983C20.6332 57.2269 20.6691 56.9135 20.5938 56.6174C19.9824 54.1961 19.6741 51.7082 19.6759 49.2108C19.6769 47.3959 19.8397 45.5848 20.1623 43.7988C20.2132 43.5168 20.1657 43.2258 20.0277 42.9746C19.8897 42.7234 19.6696 42.5272 19.4043 42.4188L12.7838 39.7217C12.7653 39.7142 12.7485 39.7031 12.7343 39.6891C12.7202 39.6751 12.7089 39.6584 12.7012 39.6401C12.6935 39.6217 12.6895 39.602 12.6894 39.582C12.6893 39.5621 12.6932 39.5423 12.7008 39.5239L15.346 32.9547C15.3532 32.9361 15.3641 32.9191 15.3781 32.9048C15.392 32.8906 15.4088 32.8793 15.4272 32.8717C15.4453 32.8635 15.4649 32.8592 15.4848 32.8589C15.5046 32.8587 15.5243 32.8627 15.5426 32.8705L21.7669 35.4022C22.0512 35.518 22.3681 35.5252 22.6573 35.4223C22.9465 35.3194 23.1877 35.1137 23.3349 34.8443C25.6076 30.7001 28.8251 27.1499 32.7264 24.4818C32.9677 24.3173 33.1437 24.0736 33.224 23.7928C33.3043 23.5121 33.2837 23.2121 33.1659 22.9449L30.6347 17.204C30.6186 17.167 30.6175 17.1252 30.6319 17.0875C30.6463 17.0498 30.6749 17.0193 30.7116 17.0025L37.1551 14.1339C37.173 14.1255 37.1925 14.121 37.2122 14.1206C37.232 14.1201 37.2516 14.1239 37.2699 14.1315C37.2887 14.1384 37.3059 14.1491 37.3204 14.163C37.3349 14.1768 37.3464 14.1935 37.3541 14.212L39.8047 19.7748C39.9265 20.0508 40.1441 20.2735 40.4172 20.4018C40.6903 20.5301 41.0006 20.5554 41.2909 20.473C46.2529 19.0717 51.4941 18.9853 56.4996 20.2222C56.7923 20.2949 57.1015 20.2595 57.3702 20.1224C57.6388 19.9854 57.849 19.756 57.962 19.4763L60.2295 13.8452C60.2366 13.8266 60.2475 13.8096 60.2615 13.7953C60.2755 13.7811 60.2922 13.7698 60.3106 13.7622C60.3288 13.7541 60.3484 13.7499 60.3683 13.7498C60.3881 13.7496 60.4078 13.7537 60.426 13.7616L66.9543 16.4172C66.9914 16.4326 67.0209 16.462 67.0363 16.4991C67.0517 16.5361 67.0519 16.5778 67.0367 16.615L64.737 22.3318L69.2454 17.8233L69.356 17.5482C69.617 16.8973 69.6099 16.1697 69.3364 15.524C69.0629 14.8783 68.5452 14.367 67.8961 14.1016L61.3684 11.4459C61.0451 11.3145 60.6992 11.2482 60.3503 11.2508C60.0013 11.2534 59.6564 11.3248 59.3351 11.4609C59.0138 11.5971 58.7226 11.7952 58.4781 12.0442C58.2336 12.2931 58.0406 12.5878 57.9101 12.9114L56.0418 17.5507C51.2915 16.548 46.3762 16.629 41.6613 17.7875L39.6417 13.2037C39.501 12.8844 39.2987 12.5959 39.0462 12.3549C38.7938 12.1139 38.4963 11.9251 38.1707 11.7994C37.8452 11.6737 37.498 11.6135 37.1491 11.6223C36.8002 11.6311 36.4565 11.7087 36.1377 11.8506L29.6942 14.7192C29.0544 15.006 28.5539 15.534 28.3016 16.1881C28.0493 16.8422 28.0657 17.5695 28.3471 18.2117L30.4663 23.0182C26.9223 25.6135 23.9389 28.8977 21.6949 32.6739L16.4843 30.5548C16.1611 30.4235 15.8151 30.3573 15.4663 30.36C15.1174 30.3626 14.7725 30.4341 14.4513 30.5703C14.1301 30.7065 13.8389 30.9047 13.5945 31.1536C13.35 31.4026 13.1571 31.6973 13.0267 32.0209L10.3814 38.5901C10.1206 39.2409 10.1276 39.9685 10.4008 40.6142C10.674 41.2599 11.1914 41.7714 11.8402 42.0373L17.5372 44.3579C16.9507 48.2796 17.0791 52.2752 17.9162 56.1511L11.6949 58.5559C11.0415 58.8104 10.5152 59.3129 10.2306 59.9538C9.94604 60.5947 9.92632 61.3221 10.1758 61.9775L12.7112 68.5998C12.8358 68.9257 13.0236 69.2238 13.2637 69.4769C13.5039 69.7301 13.7916 69.9333 14.1105 70.075C14.4294 70.2166 14.7731 70.2939 15.1219 70.3024C15.4707 70.3109 15.8178 70.2505 16.1432 70.1245L22.835 67.5372C25.327 71.1673 28.5286 74.255 32.2467 76.6137L29.3939 83.7018C29.133 84.3526 29.14 85.0803 29.4135 85.726C29.687 86.3717 30.2048 86.883 30.8539 87.1484L37.3816 89.804C37.7048 89.9354 38.0507 90.0017 38.3996 89.9992C38.7484 89.9966 39.0934 89.9252 39.4146 89.7891C39.7358 89.6529 40.027 89.4547 40.2715 89.2058C40.5159 88.9569 40.7089 88.6622 40.8392 88.3386L43.7622 81.0772C47.8016 81.7872 51.9391 81.723 55.9546 80.888L59.1083 88.0462C59.2489 88.3657 59.4512 88.6542 59.7036 88.8952C59.956 89.1362 60.2536 89.3251 60.5791 89.4508C60.9047 89.5766 61.2519 89.6369 61.6008 89.6281C61.9497 89.6194 62.2934 89.5419 62.6123 89.4L69.0558 86.5307C69.6956 86.2443 70.1962 85.7166 70.4486 85.0627C70.7011 84.4087 70.6848 83.6815 70.4034 83.0395L67.3352 76.0693C70.5493 73.8873 73.3483 71.1493 75.6006 67.984L82.265 70.6952C82.5882 70.8265 82.9342 70.8927 83.2831 70.89C83.6319 70.8873 83.9768 70.8159 84.298 70.6797C84.6192 70.5435 84.9104 70.3453 85.1549 70.0963C85.3993 69.8474 85.5923 69.5527 85.7226 69.2291L88.3679 62.6605C88.6286 62.0094 88.6213 61.2816 88.3476 60.6358C88.0739 59.99 87.5559 59.4787 86.9067 59.2132L80.7067 56.6925C81.6122 52.8379 81.8108 48.851 81.2927 44.9255L87.0544 42.6941C87.7082 42.4402 88.235 41.938 88.5198 41.297C88.8046 40.656 88.8241 39.9284 88.5742 39.2731Z" fill="url(#paint1_linear_4128_11025)"/>
<path d="M88.8436 14.9701L85.0295 11.1554C84.2883 10.417 83.2847 10.0025 82.2385 10.0026C81.1923 10.0027 80.1888 10.4175 79.4478 11.156L76.1109 14.4931L76.1102 14.4938L56.5639 34.0405C56.3555 34.2504 56.2291 34.5279 56.2075 34.8229L50.1119 48.2331C50.0069 48.4642 49.9748 48.7218 50.0198 48.9716C50.0648 49.2215 50.1848 49.4517 50.3638 49.6316C50.5429 49.8116 50.7725 49.9328 51.022 49.9791C51.2716 50.0254 51.5294 49.9946 51.7611 49.8908L65.5868 43.6926C65.6159 43.6796 65.6403 43.6609 65.6679 43.6459C65.7517 43.606 65.8285 43.5526 65.8951 43.488C65.916 43.4697 65.9392 43.4556 65.9591 43.4357L88.8442 20.5518C89.5827 19.8107 89.9973 18.807 89.9972 17.7608C89.9971 16.7146 89.5822 15.711 88.8436 14.9701ZM67.5289 32.4707C67.6449 32.5868 67.7827 32.6789 67.9343 32.7418C68.086 32.8046 68.2485 32.837 68.4126 32.837C68.5768 32.837 68.7393 32.8046 68.891 32.7418C69.0426 32.6789 69.1804 32.5868 69.2964 32.4707L80.8083 20.9589L82.8547 23.0054L65.1983 40.6613L63.6989 40.1111L62.8737 37.862C62.8111 37.6916 62.7121 37.5368 62.5836 37.4086C62.4551 37.2803 62.3002 37.1815 62.1297 37.1192L59.8848 36.297L59.3376 34.802L76.9945 17.1451L79.0407 19.1913L67.5289 30.7031C67.4128 30.8192 67.3207 30.957 67.2578 31.1086C67.195 31.2603 67.1626 31.4228 67.1626 31.5869C67.1626 31.7511 67.195 31.9136 67.2578 32.0653C67.3207 32.2169 67.4128 32.3547 67.5289 32.4707ZM55.4748 45.4863L54.534 44.5455L57.6958 37.5884L57.737 37.7008C57.7994 37.8715 57.8983 38.0265 58.0268 38.155C58.1553 38.2835 58.3103 38.3824 58.481 38.4448L60.7259 39.2676L61.5511 41.5161C61.6138 41.6863 61.7127 41.8408 61.841 41.969C61.9692 42.0973 62.1237 42.1962 62.2939 42.2589L62.5023 42.3354L55.4748 45.4863ZM87.076 18.7842L84.6223 21.2378L78.7621 15.3775L81.2154 12.9242C81.4869 12.6533 81.8549 12.501 82.2385 12.5009C82.6221 12.5008 82.9901 12.6528 83.2619 12.9236L87.0753 16.7377C87.3462 17.0093 87.4983 17.3772 87.4984 17.7608C87.4985 18.1444 87.3466 18.5124 87.076 18.7842Z" fill="url(#paint2_linear_4128_11025)"/>
</g>
<defs>
<linearGradient id="paint0_linear_4128_11025" x1="34.2715" y1="34.1323" x2="66.1447" y2="36.1224" gradientUnits="userSpaceOnUse">
<stop stop-color="#FF6C00"/>
<stop offset="1" stop-color="#8A00E1"/>
</linearGradient>
<linearGradient id="paint1_linear_4128_11025" x1="10.002" y1="11.2507" x2="93.0729" y2="16.4373" gradientUnits="userSpaceOnUse">
<stop stop-color="#FF6C00"/>
<stop offset="1" stop-color="#8A00E1"/>
</linearGradient>
<linearGradient id="paint2_linear_4128_11025" x1="50" y1="10.0026" x2="92.1937" y2="12.637" gradientUnits="userSpaceOnUse">
<stop stop-color="#FF6C00"/>
<stop offset="1" stop-color="#8A00E1"/>
</linearGradient>
<clipPath id="clip0_4128_11025">
<rect width="80" height="80" fill="white" transform="translate(10 10)"/>
</clipPath>
</defs>
</svg>
