<svg width="18" height="20" viewBox="0 0 18 20" fill="none" xmlns="http://www.w3.org/2000/svg">
<path d="M6.15833 11.2584L11.85 14.575M11.8417 5.42502L6.15833 8.74169M16.5 4.16669C16.5 5.5474 15.3807 6.66669 14 6.66669C12.6193 6.66669 11.5 5.5474 11.5 4.16669C11.5 2.78598 12.6193 1.66669 14 1.66669C15.3807 1.66669 16.5 2.78598 16.5 4.16669ZM6.5 10C6.5 11.3807 5.38071 12.5 4 12.5C2.61929 12.5 1.5 11.3807 1.5 10C1.5 8.61931 2.61929 7.50002 4 7.50002C5.38071 7.50002 6.5 8.61931 6.5 10ZM16.5 15.8334C16.5 17.2141 15.3807 18.3334 14 18.3334C12.6193 18.3334 11.5 17.2141 11.5 15.8334C11.5 14.4526 12.6193 13.3334 14 13.3334C15.3807 13.3334 16.5 14.4526 16.5 15.8334Z" stroke="#344054" stroke-width="1.67" stroke-linecap="round" stroke-linejoin="round"/>
</svg>
