<svg width="48" height="49" viewBox="0 0 48 49" fill="none" xmlns="http://www.w3.org/2000/svg">
<path d="M9.2699 29.8053L11.3479 25.3993C11.6147 24.8337 12.3853 24.8337 12.6521 25.3993L14.7301 29.8053L19.3772 30.5163C19.9734 30.6075 20.211 31.3745 19.7794 31.8147L16.4174 35.2419L17.2108 40.0837C17.3127 40.7055 16.6891 41.1795 16.1556 40.8859L12 38.5987L7.84438 40.8859C7.31088 41.1795 6.68726 40.7055 6.78916 40.0837L7.5826 35.2419L4.2206 31.8147C3.78894 31.3745 4.02658 30.6075 4.62282 30.5163L9.2699 29.8053Z" stroke="#DC3450" stroke-width="1.5" stroke-linecap="round" stroke-linejoin="round"/>
<path d="M33.2698 29.8053L35.348 25.3993C35.6146 24.8337 36.3854 24.8337 36.652 25.3993L38.7302 29.8053L43.3772 30.5163C43.9734 30.6075 44.211 31.3745 43.7794 31.8147L40.4174 35.2419L41.2108 40.0837C41.3128 40.7055 40.6892 41.1795 40.1556 40.8859L36 38.5987L31.8444 40.8859C31.3108 41.1795 30.6872 40.7055 30.7892 40.0837L31.5826 35.2419L28.2206 31.8147C27.789 31.3745 28.0266 30.6075 28.6228 30.5163L33.2698 29.8053Z" stroke="#DC3450" stroke-width="1.5" stroke-linecap="round" stroke-linejoin="round"/>
<path d="M21.2698 11.8054L23.348 7.39931C23.6146 6.83369 24.3854 6.83369 24.652 7.39931L26.7302 11.8054L31.3772 12.5163C31.9734 12.6075 32.211 13.3746 31.7794 13.8146L28.4174 17.2418L29.2108 22.0837C29.3128 22.7055 28.6892 23.1795 28.1556 22.8859L24 20.5987L19.8444 22.8859C19.3109 23.1795 18.6873 22.7055 18.7892 22.0837L19.5826 17.2418L16.2206 13.8146C15.7889 13.3746 16.0266 12.6075 16.6228 12.5163L21.2698 11.8054Z" stroke="#DC3450" stroke-width="1.5" stroke-linecap="round" stroke-linejoin="round"/>
</svg>
