<svg width="40" height="40" viewBox="0 0 40 40" fill="none" xmlns="http://www.w3.org/2000/svg">
<path d="M11.6654 36.6668H6.66536C5.78131 36.6668 4.93346 36.3156 4.30834 35.6905C3.68322 35.0654 3.33203 34.2176 3.33203 33.3335V21.6668C3.33203 20.7828 3.68322 19.9349 4.30834 19.3098C4.93346 18.6847 5.78131 18.3335 6.66536 18.3335H11.6654M23.332 15.0002V8.3335C23.332 7.00741 22.8052 5.73564 21.8676 4.79796C20.9299 3.86028 19.6581 3.3335 18.332 3.3335L11.6654 18.3335V36.6668H30.4654C31.2692 36.6759 32.0493 36.3942 32.6619 35.8735C33.2744 35.3528 33.6782 34.6283 33.7987 33.8335L36.0987 18.8335C36.1712 18.3558 36.139 17.868 36.0043 17.4039C35.8695 16.9399 35.6355 16.5107 35.3185 16.146C35.0014 15.7814 34.6088 15.49 34.168 15.2922C33.7271 15.0943 33.2485 14.9947 32.7654 15.0002H23.332Z" stroke="#DC3450" stroke-width="1.5" stroke-linecap="round" stroke-linejoin="round"/>
</svg>
