<svg width="14" height="16" viewBox="0 0 14 16" fill="none" xmlns="http://www.w3.org/2000/svg">
<path id="Vector" d="M9.87158 10.7055V4.8594C10.9972 5.66739 12.3788 6.14514 13.8692 6.14514V3.91161C13.0076 3.72908 12.2508 3.26293 11.6919 2.62197C10.7914 2.03546 10.1433 1.09541 9.93756 0H7.83399L7.8301 11.5251C7.78356 12.8147 6.72008 13.8519 5.41993 13.8519C4.61263 13.8519 3.90237 13.4518 3.45992 12.8458C2.69145 12.4379 2.16361 11.6339 2.16361 10.7055C2.16361 9.37314 3.24645 8.28937 4.5777 8.28937C4.82609 8.28937 5.06672 8.33208 5.29183 8.40202V6.14903C2.4353 6.21119 0.129883 8.55738 0.129883 11.4358C0.129883 12.8264 0.669365 14.0927 1.55039 15.0405C2.40812 15.6426 3.45604 16 4.58158 16C7.49635 16 9.87158 13.6227 9.87158 10.7055Z" fill="black"/>
</svg>
