<svg width="40" height="41" viewBox="0 0 40 41" fill="none" xmlns="http://www.w3.org/2000/svg">
<path d="M24.4983 11.0009C24.1929 11.3124 24.0219 11.7313 24.0219 12.1675C24.0219 12.6038 24.1929 13.0226 24.4983 13.3342L27.165 16.0009C27.4765 16.3062 27.8954 16.4773 28.3316 16.4773C28.7679 16.4773 29.1867 16.3062 29.4983 16.0009L35.7816 9.71753C36.6197 11.5695 36.8734 13.6329 36.5091 15.6328C36.1447 17.6326 35.1795 19.4739 33.7421 20.9113C32.3047 22.3487 30.4634 23.3139 28.4635 23.6783C26.4637 24.0427 24.4003 23.7889 22.5483 22.9509L11.0316 34.4675C10.3686 35.1306 9.46931 35.5031 8.53163 35.5031C7.59395 35.5031 6.69467 35.1306 6.03163 34.4675C5.36859 33.8045 4.99609 32.9052 4.99609 31.9675C4.99609 31.0298 5.36859 30.1306 6.03163 29.4675L17.5483 17.9509C16.7102 16.0989 16.4565 14.0355 16.8209 12.0356C17.1852 10.0358 18.1504 8.19445 19.5878 6.75706C21.0252 5.31967 22.8665 4.35448 24.8664 3.9901C26.8662 3.62572 28.9296 3.87947 30.7816 4.71753L24.515 10.9842L24.4983 11.0009Z" stroke="#DC3450" stroke-width="1.5" stroke-linecap="round" stroke-linejoin="round"/>
</svg>
