<svg width="144" height="151" viewBox="0 0 144 151" fill="none" xmlns="http://www.w3.org/2000/svg">
<mask id="mask0_4536_25896" style="mask-type:luminance" maskUnits="userSpaceOnUse" x="-25" y="-23" width="300" height="197">
<path d="M274.176 -22.0361H-24.8739V173.036H274.176V-22.0361Z" fill="white"/>
</mask>
<g mask="url(#mask0_4536_25896)">
<path d="M53.8237 2.4541C41.5025 2.4541 31.5182 12.4043 31.5182 24.6833C31.5182 24.7681 31.5276 24.853 31.5276 24.9379C20.717 26.4747 12.3978 35.7146 12.3978 46.9156C12.3978 50.1684 13.1137 53.2515 14.3751 56.0361C7.4971 59.8232 2.83606 67.1114 2.83606 75.4996C2.83606 83.8878 7.4971 91.176 14.3751 94.9631C13.1137 97.7476 12.3978 100.831 12.3978 104.084C12.3978 115.285 20.717 124.524 31.5276 126.061C31.5276 126.146 31.5182 126.228 31.5182 126.316C31.5182 138.595 41.5025 148.545 53.8237 148.545C66.1448 148.545 76.1323 138.595 76.1323 126.316V24.6833C76.1323 12.4043 66.1448 2.4541 53.8237 2.4541Z" fill="#8EB6FF"/>
<path d="M56.3537 2.60645C66.0637 5.13328 72.8313 14.3135 71.9357 24.6125L63.6795 119.831C62.683 131.336 52.5157 139.854 40.9704 138.86C38.6241 138.659 36.4102 138.062 34.3667 137.17C38.1889 143.955 45.4643 148.547 53.8245 148.547C66.1456 148.547 76.1331 138.593 76.1331 126.314V24.6848C76.1331 13.2606 67.4828 3.86043 56.3537 2.60645Z" fill="#8396FF"/>
<path d="M35.3011 117.462C26.1556 115.541 19.2871 107.455 19.2871 97.7687C19.2871 93.375 20.7188 89.3208 23.1155 86.0114C19.1294 82.3343 16.6159 77.0889 16.6159 71.2495C16.6159 63.6847 20.8071 57.1068 26.9945 53.6686C26.471 51.8772 26.1745 49.9883 26.1745 48.0303C26.1745 37.3165 34.5821 28.5826 45.1751 27.9603C45.522 26.7786 45.9729 25.644 46.5059 24.5503C47.6254 14.487 56.178 6.65822 66.5723 6.65822C66.6701 6.65822 66.7678 6.67079 66.8656 6.67393C63.1948 4.03082 58.6977 2.45312 53.8254 2.45312C41.5042 2.45312 31.5168 12.4064 31.5168 24.6855C31.5168 24.7703 31.5294 24.852 31.5294 24.9369C20.7188 26.4737 12.3964 35.7168 12.3964 46.9178C12.3964 50.1706 13.1154 53.2506 14.3769 56.0351C7.49885 59.8222 2.83466 67.1104 2.83466 75.4986C2.83466 83.8868 7.49885 91.1782 14.3769 94.9653C13.1154 97.7498 12.3964 100.83 12.3964 104.083C12.3964 115.284 20.7188 124.527 31.5294 126.063C31.5294 126.148 31.5168 126.227 31.5168 126.315C31.5168 128.945 31.9993 131.46 32.8413 133.804C32.3588 132.082 32.034 130.294 32.034 128.417C32.034 124.373 33.2418 120.614 35.3011 117.462Z" fill="#B5DAFF"/>
<path d="M14.3753 58.4157C13.4639 58.4157 12.5966 57.8972 12.1961 57.0172C10.7455 53.8115 10.0075 50.4141 10.0075 46.9161C10.0075 34.7597 19.112 24.2972 31.1903 22.5781C32.4991 22.3895 33.6154 22.3047 34.7034 22.3047C39.1973 22.3047 43.5998 23.521 47.4283 25.8215C48.5573 26.4972 48.9199 27.9618 48.2387 29.09C47.5607 30.2152 46.088 30.5766 44.959 29.9009C41.8748 28.0498 38.3269 27.0661 34.7034 27.0661C33.852 27.0661 32.95 27.1383 31.8683 27.2923C22.13 28.6783 14.7852 37.1137 14.7852 46.9161C14.7852 49.729 15.3813 52.4695 16.5544 55.0529C17.0968 56.2503 16.5607 57.6614 15.3592 58.2052C15.0375 58.3466 14.7032 58.4157 14.3753 58.4157Z" fill="#2C3D60"/>
<path d="M14.3746 97.3449C13.9835 97.3449 13.5893 97.2538 13.2204 97.0495C5.34263 92.7124 0.445068 84.453 0.445068 75.4991C0.445068 66.5452 5.34263 58.289 13.2204 53.9519C16.8533 51.9468 20.9751 50.8877 25.1442 50.8877C34.8321 50.8877 43.6653 56.5825 47.6515 65.4013C48.1939 66.6018 47.6546 68.0129 46.4531 68.5535C45.2484 69.1004 43.8325 68.5598 43.2932 67.3592C40.0765 60.2439 32.9557 55.6491 25.1442 55.6491C21.7856 55.6491 18.4585 56.5039 15.532 58.1193C9.17427 61.6204 5.22595 68.2801 5.22595 75.4991C5.22595 82.7182 9.17427 89.3778 15.532 92.879C16.6862 93.5138 17.1056 94.9626 16.4654 96.1161C16.0302 96.9018 15.2166 97.3449 14.3746 97.3449Z" fill="#2C3D60"/>
<path d="M31.5334 128.447C31.4199 128.447 31.3095 128.437 31.1928 128.421C19.1145 126.702 10.0068 116.24 10.0068 104.083C10.0068 100.585 10.7448 97.188 12.1954 93.9823C16.1816 85.1667 25.018 79.4688 34.7059 79.4688C38.875 79.4688 42.9968 80.531 46.6297 82.5361C47.784 83.1741 48.2034 84.623 47.5632 85.7733C46.9199 86.9204 45.4692 87.3352 44.315 86.7035C41.3884 85.0881 38.0645 84.2333 34.7059 84.2333C26.8944 84.2333 19.7704 88.8281 16.5537 95.9434C15.3806 98.53 14.7877 101.271 14.7877 104.083C14.7877 113.886 22.1293 122.321 31.8677 123.704C33.1733 123.889 34.0815 125.096 33.8954 126.401C33.7251 127.589 32.7034 128.447 31.5334 128.447Z" fill="#2C3D60"/>
<path d="M53.825 150.928C40.2077 150.928 29.1259 139.887 29.1259 126.316C29.1259 126.263 29.1385 126.04 29.1417 125.986C29.2552 115.848 35.78 106.664 45.3733 103.182C46.6127 102.739 47.9845 103.367 48.4386 104.603C48.8896 105.838 48.2494 107.205 47.01 107.654C39.2711 110.464 34.014 117.875 33.9194 126.09C33.9068 137.26 42.8441 146.163 53.825 146.163C64.8059 146.163 73.7432 137.26 73.7432 126.316V24.6837C73.7432 13.7404 64.8059 4.83679 53.825 4.83679C42.8441 4.83679 33.9068 13.7404 33.9068 24.6837C33.9068 26.0006 32.8409 27.1917 31.5227 27.1917C30.2171 27.1917 29.1638 26.2771 29.1385 24.9854C29.1354 24.91 29.1259 24.7277 29.1259 24.6837C29.1259 11.113 40.2077 0.0722656 53.825 0.0722656C67.4423 0.0722656 78.5241 11.113 78.5241 24.6837V126.316C78.5241 139.887 67.4423 150.928 53.825 150.928Z" fill="#2C3D60"/>
<path d="M66.5702 65.9721C66.5702 67.7258 65.1448 69.1464 63.385 69.1464C61.6253 69.1464 60.1999 67.7258 60.1999 65.9721C60.1999 64.2184 61.6253 62.7979 63.385 62.7979C65.1448 62.7979 66.5702 64.2184 66.5702 65.9721Z" fill="#2C3D60"/>
<path d="M66.5702 46.9167C66.5702 48.6703 65.1448 50.094 63.385 50.094C61.6253 50.094 60.1999 48.6703 60.1999 46.9167C60.1999 45.163 61.6253 43.7393 63.385 43.7393C65.1448 43.7393 66.5702 45.163 66.5702 46.9167Z" fill="#2C3D60"/>
<path d="M66.5702 85.0278C66.5702 86.7815 65.1448 88.202 63.385 88.202C61.6253 88.202 60.1999 86.7815 60.1999 85.0278C60.1999 83.2741 61.6253 81.8535 63.385 81.8535C65.1448 81.8535 66.5702 83.2741 66.5702 85.0278Z" fill="#2C3D60"/>
<path d="M66.5702 104.084C66.5702 105.837 65.1448 107.261 63.385 107.261C61.6253 107.261 60.1999 105.837 60.1999 104.084C60.1999 102.33 61.6253 100.906 63.385 100.906C65.1448 100.906 66.5702 102.33 66.5702 104.084Z" fill="#2C3D60"/>
<path d="M66.5702 123.139C66.5702 124.893 65.1448 126.313 63.385 126.313C61.6253 126.313 60.1999 124.893 60.1999 123.139C60.1999 121.385 61.6253 119.965 63.385 119.965C65.1448 119.965 66.5702 121.385 66.5702 123.139Z" fill="#2C3D60"/>
<path d="M66.5702 27.8608C66.5702 29.6145 65.1448 31.035 63.385 31.035C61.6253 31.035 60.1999 29.6145 60.1999 27.8608C60.1999 26.1071 61.6253 24.6865 63.385 24.6865C65.1448 24.6865 66.5702 26.1071 66.5702 27.8608Z" fill="#2C3D60"/>
<path d="M98.3745 29.9656H75.8545C74.6872 29.9656 73.7429 29.0217 73.7429 27.8612C73.7429 26.698 74.6872 25.7568 75.8545 25.7568H98.3745C99.5389 25.7568 100.486 26.698 100.486 27.8612C100.486 29.0217 99.5389 29.9656 98.3745 29.9656Z" fill="#2C3D60"/>
<path d="M94.7991 68.0025H76.0031C74.8898 68.0025 73.9917 67.1022 73.9917 65.9954C73.9917 64.8859 74.8898 63.9882 76.0031 63.9882H93.8851L102.68 53.971C103.063 53.5341 103.618 53.2852 104.197 53.2852H121.649C122.762 53.2852 123.663 54.1828 123.663 55.2923C123.663 56.3992 122.762 57.2995 121.649 57.2995H105.111L96.3136 67.3167C95.931 67.7536 95.381 68.0025 94.7991 68.0025Z" fill="#2C3D60"/>
<path d="M125.319 98.854H106.449C105.823 98.854 105.222 98.5848 104.808 98.1124L95.2987 87.281H75.9634C74.7596 87.281 73.7885 86.3104 73.7885 85.1107C73.7885 83.9139 74.7596 82.9404 75.9634 82.9404H96.2871C96.9162 82.9404 97.511 83.2096 97.9247 83.682L107.437 94.5134H125.319C126.523 94.5134 127.497 95.4869 127.497 96.6837C127.497 97.8834 126.523 98.854 125.319 98.854Z" fill="#2C3D60"/>
<path d="M97.2365 128.322H75.7569C74.6436 128.322 73.7429 127.422 73.7429 126.315C73.7429 125.205 74.6436 124.308 75.7569 124.308H97.2365C98.3472 124.308 99.2506 125.205 99.2506 126.315C99.2506 127.422 98.3472 128.322 97.2365 128.322Z" fill="#2C3D60"/>
<path d="M106.017 20.0859C110.326 20.0859 113.821 23.5668 113.821 27.8608C113.821 32.1522 110.326 35.6357 106.017 35.6357C101.711 35.6357 98.2128 32.1522 98.2128 27.8608C98.2128 23.5668 101.711 20.0859 106.017 20.0859Z" fill="#FF5D5D"/>
<path d="M106.644 20.1484C107.859 21.5208 108.618 23.2984 108.618 25.2684C108.618 29.5624 105.123 33.0458 100.814 33.0458C100.6 33.0458 100.399 32.9997 100.188 32.9817C101.619 34.5977 103.686 35.6366 106.016 35.6366C110.324 35.6366 113.82 32.1532 113.82 27.8617C113.82 23.7832 110.654 20.4716 106.644 20.1484Z" fill="#EA426A"/>
<path d="M106.017 37.5832C100.64 37.5832 96.2617 33.22 96.2617 27.8614C96.2617 22.5003 100.64 18.1396 106.017 18.1396C111.396 18.1396 115.772 22.5003 115.772 27.8614C115.772 33.22 111.396 37.5832 106.017 37.5832ZM106.017 22.0284C102.789 22.0284 100.166 24.6448 100.166 27.8614C100.166 31.0755 102.789 33.6919 106.017 33.6919C109.245 33.6919 111.87 31.0755 111.87 27.8614C111.87 24.6448 109.245 22.0284 106.017 22.0284Z" fill="#2C3D60"/>
<path d="M128.505 48.2197C132.423 48.2197 135.602 51.3876 135.602 55.2926C135.602 59.1977 132.423 62.3655 128.505 62.3655C124.589 62.3655 121.407 59.1977 121.407 55.2926C121.407 51.3876 124.589 48.2197 128.505 48.2197Z" fill="#FF5D5D"/>
<path d="M129.075 48.2783C130.18 49.524 130.87 51.1429 130.87 52.9345C130.87 56.8372 127.694 60.0074 123.775 60.0074C123.581 60.0074 123.396 59.9631 123.204 59.9491C124.506 61.4187 126.385 62.3635 128.504 62.3635C132.422 62.3635 135.601 59.1979 135.601 55.2929C135.601 51.5838 132.722 48.5722 129.075 48.2783Z" fill="#EA426A"/>
<path d="M128.505 64.1335C123.615 64.1335 119.633 60.1678 119.633 55.2923C119.633 50.4192 123.615 46.4512 128.505 46.4512C133.397 46.4512 137.376 50.4192 137.376 55.2923C137.376 60.1678 133.397 64.1335 128.505 64.1335ZM128.505 49.99C125.569 49.99 123.184 52.367 123.184 55.2923C123.184 58.2176 125.569 60.597 128.505 60.597C131.44 60.597 133.828 58.2176 133.828 55.2923C133.828 52.367 131.44 49.99 128.505 49.99Z" fill="#2C3D60"/>
<path d="M133.347 88.5459C137.856 88.5459 141.513 92.1908 141.513 96.6838C141.513 101.174 137.856 104.822 133.347 104.822C128.841 104.822 125.181 101.174 125.181 96.6838C125.181 92.1908 128.841 88.5459 133.347 88.5459Z" fill="#FF5D5D"/>
<path d="M134.003 88.6143C135.274 90.0475 136.069 91.9102 136.069 93.9715C136.069 98.4645 132.414 102.107 127.905 102.107C127.682 102.107 127.469 102.058 127.248 102.042C128.746 103.731 130.908 104.82 133.346 104.82C137.854 104.82 141.512 101.175 141.512 96.685C141.512 92.4175 138.199 88.9524 134.003 88.6143Z" fill="#EA426A"/>
<path d="M133.347 106.856C127.721 106.856 123.14 102.291 123.14 96.6841C123.14 91.0745 127.721 86.5117 133.347 86.5117C138.976 86.5117 143.554 91.0745 143.554 96.6841C143.554 102.291 138.976 106.856 133.347 106.856ZM133.347 90.5807C129.97 90.5807 127.225 93.3183 127.225 96.6841C127.225 100.05 129.97 102.785 133.347 102.785C136.724 102.785 139.471 100.05 139.471 96.6841C139.471 93.3183 136.724 90.5807 133.347 90.5807Z" fill="#2C3D60"/>
<path d="M104.093 119.242C108.011 119.242 111.19 122.41 111.19 126.315C111.19 130.22 108.011 133.388 104.093 133.388C100.177 133.388 96.9957 130.22 96.9957 126.315C96.9957 122.41 100.177 119.242 104.093 119.242Z" fill="#FF5D5D"/>
<path d="M104.663 119.302C105.768 120.547 106.458 122.166 106.458 123.958C106.458 127.863 103.279 131.031 99.3609 131.031C99.1666 131.031 98.9841 130.987 98.7921 130.973C100.094 132.442 101.973 133.387 104.092 133.387C108.01 133.387 111.189 130.221 111.189 126.316C111.189 122.607 108.31 119.596 104.663 119.302Z" fill="#EA426A"/>
<path d="M104.093 135.156C99.203 135.156 95.2213 131.19 95.2213 126.315C95.2213 121.439 99.203 117.474 104.093 117.474C108.985 117.474 112.964 121.439 112.964 126.315C112.964 131.19 108.985 135.156 104.093 135.156ZM104.093 121.01C101.157 121.01 98.7723 123.389 98.7723 126.315C98.7723 129.24 101.157 131.617 104.093 131.617C107.028 131.617 109.416 129.24 109.416 126.315C109.416 123.389 107.028 121.01 104.093 121.01Z" fill="#2C3D60"/>
</g>
</svg>
