<svg width="4" height="16" viewBox="0 0 4 16" fill="none" xmlns="http://www.w3.org/2000/svg">
<path d="M2 8.83331C2.46023 8.83331 2.83333 8.46022 2.83333 7.99998C2.83333 7.53974 2.46023 7.16665 2 7.16665C1.53976 7.16665 1.16666 7.53974 1.16666 7.99998C1.16666 8.46022 1.53976 8.83331 2 8.83331Z" stroke="#344054" stroke-width="1.66667" stroke-linecap="round" stroke-linejoin="round"/>
<path d="M2 2.99998C2.46023 2.99998 2.83333 2.62688 2.83333 2.16665C2.83333 1.70641 2.46023 1.33331 2 1.33331C1.53976 1.33331 1.16666 1.70641 1.16666 2.16665C1.16666 2.62688 1.53976 2.99998 2 2.99998Z" stroke="#344054" stroke-width="1.66667" stroke-linecap="round" stroke-linejoin="round"/>
<path d="M2 14.6666C2.46023 14.6666 2.83333 14.2935 2.83333 13.8333C2.83333 13.3731 2.46023 13 2 13C1.53976 13 1.16666 13.3731 1.16666 13.8333C1.16666 14.2935 1.53976 14.6666 2 14.6666Z" stroke="#344054" stroke-width="1.66667" stroke-linecap="round" stroke-linejoin="round"/>
</svg>
