<svg width="71" height="76" viewBox="0 0 71 76" fill="none" xmlns="http://www.w3.org/2000/svg">
<g filter="url(#filter0_d_1072_4309)">
<ellipse cx="35.5" cy="35.5418" rx="31.5" ry="33.4739" fill="#333333"/>
</g>
<g clip-path="url(#clip0_1072_4309)">
<path d="M35.5094 21.0454C39.2181 21.0454 39.6808 21.0599 41.1359 21.1324C42.5897 21.205 43.5793 21.4472 44.4501 21.8069C45.351 22.1754 46.11 22.6744 46.8689 23.4794C47.563 24.2045 48.1001 25.0817 48.4428 26.0498C48.7799 26.9738 49.0093 28.0268 49.0775 29.5717C49.1417 31.1179 49.1594 31.6097 49.1594 35.5508C49.1594 39.4919 49.1458 39.9836 49.0775 41.5299C49.0093 43.0747 48.7799 44.1264 48.4428 45.0518C48.1011 46.0204 47.5639 46.8978 46.8689 47.6222C46.1864 48.3595 45.361 48.9302 44.4501 49.2946C43.5806 49.6529 42.5897 49.8966 41.1359 49.9691C39.6808 50.0373 39.2181 50.0562 35.5094 50.0562C31.8007 50.0562 31.3379 50.0416 29.8829 49.9691C28.4291 49.8966 27.4395 49.6529 26.5686 49.2946C25.6573 48.9312 24.8317 48.3604 24.1498 47.6222C23.4556 46.8972 22.9185 46.02 22.576 45.0518C22.2375 44.1278 22.0095 43.0747 21.9413 41.5299C21.8771 39.9836 21.8594 39.4919 21.8594 35.5508C21.8594 31.6097 21.873 31.1179 21.9413 29.5717C22.0095 28.0254 22.2375 26.9752 22.576 26.0498C22.9176 25.0811 23.4548 24.2037 24.1498 23.4794C24.8319 22.7414 25.6574 22.1706 26.5686 21.8069C27.4395 21.4472 28.4278 21.205 29.8829 21.1324C31.3379 21.0643 31.8007 21.0454 35.5094 21.0454ZM35.5094 28.2981C33.6993 28.2981 31.9633 29.0622 30.6834 30.4224C29.4034 31.7825 28.6844 33.6272 28.6844 35.5508C28.6844 37.4743 29.4034 39.3191 30.6834 40.6792C31.9633 42.0393 33.6993 42.8035 35.5094 42.8035C37.3195 42.8035 39.0555 42.0393 40.3354 40.6792C41.6153 39.3191 42.3344 37.4743 42.3344 35.5508C42.3344 33.6272 41.6153 31.7825 40.3354 30.4224C39.0555 29.0622 37.3195 28.2981 35.5094 28.2981ZM44.3819 27.9355C44.3819 27.4546 44.2021 26.9934 43.8822 26.6534C43.5622 26.3133 43.1282 26.1223 42.6756 26.1223C42.2231 26.1223 41.7891 26.3133 41.4691 26.6534C41.1492 26.9934 40.9694 27.4546 40.9694 27.9355C40.9694 28.4163 41.1492 28.8775 41.4691 29.2176C41.7891 29.5576 42.2231 29.7486 42.6756 29.7486C43.1282 29.7486 43.5622 29.5576 43.8822 29.2176C44.2021 28.8775 44.3819 28.4163 44.3819 27.9355ZM35.5094 31.1992C36.5955 31.1992 37.637 31.6576 38.405 32.4737C39.173 33.2898 39.6044 34.3967 39.6044 35.5508C39.6044 36.7049 39.173 37.8118 38.405 38.6278C37.637 39.4439 36.5955 39.9024 35.5094 39.9024C34.4233 39.9024 33.3817 39.4439 32.6138 38.6278C31.8458 37.8118 31.4144 36.7049 31.4144 35.5508C31.4144 34.3967 31.8458 33.2898 32.6138 32.4737C33.3817 31.6576 34.4233 31.1992 35.5094 31.1992Z" fill="white"/>
</g>
<defs>
<filter id="filter0_d_1072_4309" x="0" y="0.0678711" width="71" height="74.9478" filterUnits="userSpaceOnUse" color-interpolation-filters="sRGB">
<feFlood flood-opacity="0" result="BackgroundImageFix"/>
<feColorMatrix in="SourceAlpha" type="matrix" values="0 0 0 0 0 0 0 0 0 0 0 0 0 0 0 0 0 0 127 0" result="hardAlpha"/>
<feOffset dy="2"/>
<feGaussianBlur stdDeviation="2"/>
<feComposite in2="hardAlpha" operator="out"/>
<feColorMatrix type="matrix" values="0 0 0 0 0 0 0 0 0 0 0 0 0 0 0 0 0 0 0.2 0"/>
<feBlend mode="normal" in2="BackgroundImageFix" result="effect1_dropShadow_1072_4309"/>
<feBlend mode="normal" in="SourceGraphic" in2="effect1_dropShadow_1072_4309" result="shape"/>
</filter>
<clipPath id="clip0_1072_4309">
<rect width="32.76" height="34.8129" fill="white" transform="translate(19.1289 18.1445)"/>
</clipPath>
</defs>
</svg>
