<svg width="71" height="76" viewBox="0 0 71 76" fill="none" xmlns="http://www.w3.org/2000/svg">
<g filter="url(#filter0_d_1072_4318)">
<ellipse cx="35.5" cy="35.5418" rx="31.5" ry="33.4739" fill="#333333"/>
</g>
<path d="M52.9055 23.9904C51.7207 24.5483 50.4479 24.9253 49.1099 25.0956C50.4905 24.2178 51.5234 22.8361 52.0158 21.2084C50.7187 22.0272 49.2991 22.6035 47.8186 22.9123C46.8231 21.7827 45.5045 21.034 44.0675 20.7824C42.6305 20.5309 41.1555 20.7905 39.8716 21.5209C38.5877 22.2514 37.5666 23.4119 36.967 24.8223C36.3673 26.2326 36.2226 27.8139 36.5553 29.3206C33.927 29.1804 31.3558 28.4544 29.0086 27.1899C26.6615 25.9253 24.5907 24.1505 22.9308 21.9805C22.3632 23.0209 22.0369 24.2271 22.0369 25.5118C22.0363 26.6683 22.3043 27.8071 22.8171 28.8271C23.33 29.8472 24.0719 30.7169 24.9769 31.3592C23.9273 31.3237 22.9008 31.0223 21.983 30.4801V30.5706C21.9829 32.1926 22.5109 33.7647 23.4774 35.0202C24.4439 36.2756 25.7893 37.1371 27.2855 37.4584C26.3118 37.7384 25.291 37.7796 24.3001 37.579C24.7222 38.9747 25.5445 40.1951 26.6517 41.0695C27.759 41.9439 29.0959 42.4285 30.4752 42.4553C28.1337 44.4086 25.2421 45.4681 22.2653 45.4635C21.738 45.4636 21.2112 45.4309 20.6875 45.3654C23.7091 47.4299 27.2264 48.5256 30.8186 48.5213C42.9787 48.5213 49.6264 37.8187 49.6264 28.5365C49.6264 28.2349 49.6193 27.9304 49.6065 27.6288C50.8995 26.6351 52.0157 25.4046 52.9026 23.9949L52.9055 23.9904Z" fill="white"/>
<defs>
<filter id="filter0_d_1072_4318" x="0" y="0.0678711" width="71" height="74.9478" filterUnits="userSpaceOnUse" color-interpolation-filters="sRGB">
<feFlood flood-opacity="0" result="BackgroundImageFix"/>
<feColorMatrix in="SourceAlpha" type="matrix" values="0 0 0 0 0 0 0 0 0 0 0 0 0 0 0 0 0 0 127 0" result="hardAlpha"/>
<feOffset dy="2"/>
<feGaussianBlur stdDeviation="2"/>
<feComposite in2="hardAlpha" operator="out"/>
<feColorMatrix type="matrix" values="0 0 0 0 0 0 0 0 0 0 0 0 0 0 0 0 0 0 0.2 0"/>
<feBlend mode="normal" in2="BackgroundImageFix" result="effect1_dropShadow_1072_4318"/>
<feBlend mode="normal" in="SourceGraphic" in2="effect1_dropShadow_1072_4318" result="shape"/>
</filter>
</defs>
</svg>
