<svg width="71" height="76" viewBox="0 0 71 76" fill="none" xmlns="http://www.w3.org/2000/svg">
<g filter="url(#filter0_d_1072_4315)">
<ellipse cx="35.5" cy="35.5418" rx="31.5" ry="33.4739" fill="#333333"/>
</g>
<path d="M44.2541 23.5985C43.01 22.0893 42.3244 20.151 42.3249 18.1445H36.7011V42.1267C36.6577 43.4245 36.1421 44.6538 35.2629 45.5557C34.3836 46.4576 33.2093 46.9617 31.9873 46.9618C29.4029 46.9618 27.2553 44.7184 27.2553 41.9333C27.2553 38.6068 30.2765 36.1118 33.3887 37.1369V31.0253C27.1097 30.1356 21.6133 35.3189 21.6133 41.9333C21.6133 48.3737 26.6365 52.9574 31.9691 52.9574C37.6839 52.9574 42.3249 48.0256 42.3249 41.9333V29.7682C44.6053 31.5085 47.3433 32.4423 50.1509 32.4371V26.4609C50.1509 26.4609 46.7293 26.635 44.2541 23.5985Z" fill="white"/>
<defs>
<filter id="filter0_d_1072_4315" x="0" y="0.0678711" width="71" height="74.9478" filterUnits="userSpaceOnUse" color-interpolation-filters="sRGB">
<feFlood flood-opacity="0" result="BackgroundImageFix"/>
<feColorMatrix in="SourceAlpha" type="matrix" values="0 0 0 0 0 0 0 0 0 0 0 0 0 0 0 0 0 0 127 0" result="hardAlpha"/>
<feOffset dy="2"/>
<feGaussianBlur stdDeviation="2"/>
<feComposite in2="hardAlpha" operator="out"/>
<feColorMatrix type="matrix" values="0 0 0 0 0 0 0 0 0 0 0 0 0 0 0 0 0 0 0.2 0"/>
<feBlend mode="normal" in2="BackgroundImageFix" result="effect1_dropShadow_1072_4315"/>
<feBlend mode="normal" in="SourceGraphic" in2="effect1_dropShadow_1072_4315" result="shape"/>
</filter>
</defs>
</svg>
